<svg width="1239" height="472" viewBox="0 0 1239 472" fill="none" xmlns="http://www.w3.org/2000/svg">
<g clip-path="url(#clip0_150_41)">
<rect width="1238.14" height="472" fill="#60BC51" fill-opacity="0.84"/>
<path d="M257.55 142L258.194 104.74H266.244L270.844 128.246L275.766 104.74H283.54L284.184 142H278.664L278.066 116.746L273.328 142H268.59L263.622 116.562L263.116 142H257.55ZM297.63 142.46C295.668 142.46 294.027 142.107 292.708 141.402C291.39 140.666 290.393 139.608 289.718 138.228C289.044 136.817 288.706 135.131 288.706 133.168V124.244C288.706 122.22 289.044 120.533 289.718 119.184C290.393 117.804 291.405 116.761 292.754 116.056C294.104 115.32 295.729 114.952 297.63 114.952C299.654 114.952 301.295 115.32 302.552 116.056C303.81 116.792 304.73 117.865 305.312 119.276C305.926 120.687 306.232 122.404 306.232 124.428V129.074H295.56V134.226C295.56 134.993 295.637 135.621 295.79 136.112C295.974 136.603 296.22 136.955 296.526 137.17C296.833 137.354 297.216 137.446 297.676 137.446C298.106 137.446 298.474 137.354 298.78 137.17C299.118 136.955 299.363 136.633 299.516 136.204C299.67 135.775 299.746 135.207 299.746 134.502V131.972H306.186V134.18C306.186 136.879 305.45 138.933 303.978 140.344C302.506 141.755 300.39 142.46 297.63 142.46ZM295.56 125.762H299.746V123.14C299.746 122.373 299.67 121.76 299.516 121.3C299.363 120.809 299.118 120.472 298.78 120.288C298.474 120.073 298.075 119.966 297.584 119.966C297.124 119.966 296.741 120.073 296.434 120.288C296.158 120.503 295.944 120.886 295.79 121.438C295.637 121.959 295.56 122.711 295.56 123.692V125.762ZM308.3 142L313.912 128.568L308.668 115.412H314.74L319.294 128.062H319.8V115.412H325.596V128.062H326.056L330.794 115.412H337.004L331.484 128.568L337.28 142H331.438L326.056 129.12H325.596V142H319.8V129.12H319.294L314.188 142H308.3ZM338.779 149.13V137.722C339.76 137.201 340.619 136.541 341.355 135.744C342.091 134.947 342.72 133.965 343.241 132.8C343.793 131.604 344.222 130.209 344.529 128.614C344.866 126.989 345.081 125.103 345.173 122.956L345.817 115.412H359.893V137.63H363.619V149.13H358.605L358.099 142H344.253L343.839 149.13H338.779ZM346.139 137.63H353.499V119.69H351.015L350.555 124.612C350.463 126.605 350.294 128.323 350.049 129.764C349.804 131.205 349.482 132.432 349.083 133.444C348.715 134.456 348.27 135.299 347.749 135.974C347.258 136.618 346.722 137.17 346.139 137.63ZM367.253 149.498V144.622C368.265 144.622 369.093 144.561 369.737 144.438C370.381 144.315 370.857 144.085 371.163 143.748C371.501 143.441 371.669 142.997 371.669 142.414C371.669 141.954 371.562 141.325 371.347 140.528C371.163 139.731 370.949 138.841 370.703 137.86L364.631 115.412H371.209L374.613 131.742L377.373 115.412H383.997L377.833 142.828C377.465 144.545 376.852 145.879 375.993 146.83C375.165 147.811 374.138 148.501 372.911 148.9C371.715 149.299 370.32 149.498 368.725 149.498H367.253ZM386.829 142V115.412H393.775V125.9H398.605V115.412H405.597V142H398.605V130.73H393.775V142H386.829ZM415.613 142.46C414.355 142.46 413.267 142.138 412.347 141.494C411.457 140.85 410.783 140.037 410.323 139.056C409.863 138.075 409.633 137.063 409.633 136.02C409.633 134.364 409.955 132.969 410.599 131.834C411.243 130.699 412.086 129.749 413.129 128.982C414.171 128.215 415.337 127.556 416.625 127.004C417.913 126.452 419.201 125.946 420.489 125.486V123.002C420.489 122.419 420.443 121.913 420.351 121.484C420.259 121.055 420.075 120.733 419.799 120.518C419.553 120.273 419.185 120.15 418.695 120.15C418.204 120.15 417.821 120.257 417.545 120.472C417.299 120.656 417.115 120.947 416.993 121.346C416.901 121.714 416.839 122.128 416.809 122.588L416.671 124.428L410.093 124.152C410.246 121.024 411.059 118.709 412.531 117.206C414.033 115.703 416.287 114.952 419.293 114.952C421.991 114.952 423.985 115.703 425.273 117.206C426.561 118.678 427.205 120.625 427.205 123.048V135.422C427.205 136.465 427.22 137.4 427.251 138.228C427.312 139.025 427.373 139.746 427.435 140.39C427.527 141.003 427.603 141.54 427.665 142H421.409C421.317 141.325 421.209 140.589 421.087 139.792C420.964 138.995 420.872 138.458 420.811 138.182C420.504 139.286 419.921 140.283 419.063 141.172C418.204 142.031 417.054 142.46 415.613 142.46ZM418.143 137.538C418.48 137.538 418.802 137.461 419.109 137.308C419.415 137.155 419.676 136.955 419.891 136.71C420.136 136.465 420.335 136.235 420.489 136.02V128.706C419.845 129.105 419.247 129.503 418.695 129.902C418.143 130.27 417.667 130.684 417.269 131.144C416.87 131.604 416.563 132.11 416.349 132.662C416.134 133.214 416.027 133.843 416.027 134.548C416.027 135.468 416.211 136.204 416.579 136.756C416.947 137.277 417.468 137.538 418.143 137.538ZM431.705 150.74V115.412H438.651V117.39C439.479 116.623 440.369 116.025 441.319 115.596C442.301 115.167 443.282 114.952 444.263 114.952C445.337 114.952 446.241 115.197 446.977 115.688C447.713 116.148 448.311 116.777 448.771 117.574C449.231 118.371 449.553 119.261 449.737 120.242C449.921 121.223 450.013 122.22 450.013 123.232V133.628C450.013 135.345 449.799 136.863 449.369 138.182C448.94 139.501 448.281 140.543 447.391 141.31C446.533 142.077 445.413 142.46 444.033 142.46C443.083 142.46 442.147 142.23 441.227 141.77C440.338 141.31 439.479 140.712 438.651 139.976V150.74H431.705ZM440.951 137.814C441.534 137.814 441.963 137.645 442.239 137.308C442.546 136.94 442.761 136.465 442.883 135.882C443.006 135.299 443.067 134.655 443.067 133.95V122.818C443.067 122.174 443.006 121.591 442.883 121.07C442.761 120.549 442.546 120.135 442.239 119.828C441.933 119.491 441.519 119.322 440.997 119.322C440.568 119.322 440.154 119.429 439.755 119.644C439.357 119.828 438.989 120.073 438.651 120.38V137.032C439.019 137.277 439.387 137.477 439.755 137.63C440.123 137.753 440.522 137.814 440.951 137.814ZM462.764 142.46C460.863 142.46 459.237 142.123 457.888 141.448C456.539 140.743 455.511 139.731 454.806 138.412C454.131 137.093 453.794 135.453 453.794 133.49V123.922C453.794 121.959 454.131 120.319 454.806 119C455.511 117.681 456.539 116.685 457.888 116.01C459.237 115.305 460.863 114.952 462.764 114.952C464.665 114.952 466.291 115.305 467.64 116.01C468.989 116.685 470.017 117.681 470.722 119C471.427 120.319 471.78 121.959 471.78 123.922V133.49C471.78 135.453 471.427 137.093 470.722 138.412C470.017 139.731 468.989 140.743 467.64 141.448C466.291 142.123 464.665 142.46 462.764 142.46ZM462.81 137.768C463.393 137.768 463.837 137.615 464.144 137.308C464.451 136.971 464.65 136.526 464.742 135.974C464.834 135.391 464.88 134.732 464.88 133.996V123.462C464.88 122.695 464.834 122.036 464.742 121.484C464.65 120.932 464.451 120.487 464.144 120.15C463.837 119.813 463.393 119.644 462.81 119.644C462.227 119.644 461.783 119.813 461.476 120.15C461.169 120.487 460.955 120.932 460.832 121.484C460.74 122.036 460.694 122.695 460.694 123.462V133.996C460.694 134.732 460.74 135.391 460.832 135.974C460.955 136.526 461.169 136.971 461.476 137.308C461.783 137.615 462.227 137.768 462.81 137.768ZM474.174 149.13V137.722C475.155 137.201 476.014 136.541 476.75 135.744C477.486 134.947 478.114 133.965 478.636 132.8C479.188 131.604 479.617 130.209 479.924 128.614C480.261 126.989 480.476 125.103 480.568 122.956L481.212 115.412H495.288V137.63H499.014V149.13H494L493.494 142H479.648L479.234 149.13H474.174ZM481.534 137.63H488.894V119.69H486.41L485.95 124.612C485.858 126.605 485.689 128.323 485.444 129.764C485.198 131.205 484.876 132.432 484.478 133.444C484.11 134.456 483.665 135.299 483.144 135.974C482.653 136.618 482.116 137.17 481.534 137.63ZM502.188 142V115.412H509.134V125.9H513.964V115.412H520.956V142H513.964V130.73H509.134V142H502.188ZM530.972 142.46C529.715 142.46 528.626 142.138 527.706 141.494C526.817 140.85 526.142 140.037 525.682 139.056C525.222 138.075 524.992 137.063 524.992 136.02C524.992 134.364 525.314 132.969 525.958 131.834C526.602 130.699 527.445 129.749 528.488 128.982C529.531 128.215 530.696 127.556 531.984 127.004C533.272 126.452 534.56 125.946 535.848 125.486V123.002C535.848 122.419 535.802 121.913 535.71 121.484C535.618 121.055 535.434 120.733 535.158 120.518C534.913 120.273 534.545 120.15 534.054 120.15C533.563 120.15 533.18 120.257 532.904 120.472C532.659 120.656 532.475 120.947 532.352 121.346C532.26 121.714 532.199 122.128 532.168 122.588L532.03 124.428L525.452 124.152C525.605 121.024 526.418 118.709 527.89 117.206C529.393 115.703 531.647 114.952 534.652 114.952C537.351 114.952 539.344 115.703 540.632 117.206C541.92 118.678 542.564 120.625 542.564 123.048V135.422C542.564 136.465 542.579 137.4 542.61 138.228C542.671 139.025 542.733 139.746 542.794 140.39C542.886 141.003 542.963 141.54 543.024 142H536.768C536.676 141.325 536.569 140.589 536.446 139.792C536.323 138.995 536.231 138.458 536.17 138.182C535.863 139.286 535.281 140.283 534.422 141.172C533.563 142.031 532.413 142.46 530.972 142.46ZM533.502 137.538C533.839 137.538 534.161 137.461 534.468 137.308C534.775 137.155 535.035 136.955 535.25 136.71C535.495 136.465 535.695 136.235 535.848 136.02V128.706C535.204 129.105 534.606 129.503 534.054 129.902C533.502 130.27 533.027 130.684 532.628 131.144C532.229 131.604 531.923 132.11 531.708 132.662C531.493 133.214 531.386 133.843 531.386 134.548C531.386 135.468 531.57 136.204 531.938 136.756C532.306 137.277 532.827 137.538 533.502 137.538ZM545.409 142L549.733 130.914C548.966 130.515 548.338 129.979 547.847 129.304C547.356 128.599 546.988 127.771 546.743 126.82C546.498 125.839 546.375 124.796 546.375 123.692C546.375 122.404 546.544 121.254 546.881 120.242C547.249 119.23 547.816 118.371 548.583 117.666C549.38 116.961 550.408 116.409 551.665 116.01C552.953 115.611 554.502 115.412 556.311 115.412H565.189V142H558.289V132.294C558.105 132.294 557.752 132.294 557.231 132.294C556.74 132.263 556.342 132.233 556.035 132.202L552.723 142H545.409ZM557.921 128.246C557.982 128.246 558.044 128.246 558.105 128.246C558.197 128.246 558.258 128.246 558.289 128.246V119.322C558.258 119.322 558.197 119.322 558.105 119.322C558.044 119.322 557.982 119.322 557.921 119.322C556.725 119.322 555.728 119.491 554.931 119.828C554.164 120.135 553.597 120.61 553.229 121.254C552.861 121.867 552.677 122.665 552.677 123.646C552.677 125.179 553.106 126.329 553.965 127.096C554.854 127.832 556.173 128.215 557.921 128.246ZM581.475 142V115.412H588.421V125.9H593.251V115.412H600.243V142H593.251V130.73H588.421V142H581.475ZM610.259 142.46C609.002 142.46 607.913 142.138 606.993 141.494C606.104 140.85 605.429 140.037 604.969 139.056C604.509 138.075 604.279 137.063 604.279 136.02C604.279 134.364 604.601 132.969 605.245 131.834C605.889 130.699 606.732 129.749 607.775 128.982C608.818 128.215 609.983 127.556 611.271 127.004C612.559 126.452 613.847 125.946 615.135 125.486V123.002C615.135 122.419 615.089 121.913 614.997 121.484C614.905 121.055 614.721 120.733 614.445 120.518C614.2 120.273 613.832 120.15 613.341 120.15C612.85 120.15 612.467 120.257 612.191 120.472C611.946 120.656 611.762 120.947 611.639 121.346C611.547 121.714 611.486 122.128 611.455 122.588L611.317 124.428L604.739 124.152C604.892 121.024 605.705 118.709 607.177 117.206C608.68 115.703 610.934 114.952 613.939 114.952C616.638 114.952 618.631 115.703 619.919 117.206C621.207 118.678 621.851 120.625 621.851 123.048V135.422C621.851 136.465 621.866 137.4 621.897 138.228C621.958 139.025 622.02 139.746 622.081 140.39C622.173 141.003 622.25 141.54 622.311 142H616.055C615.963 141.325 615.856 140.589 615.733 139.792C615.61 138.995 615.518 138.458 615.457 138.182C615.15 139.286 614.568 140.283 613.709 141.172C612.85 142.031 611.7 142.46 610.259 142.46ZM612.789 137.538C613.126 137.538 613.448 137.461 613.755 137.308C614.062 137.155 614.322 136.955 614.537 136.71C614.782 136.465 614.982 136.235 615.135 136.02V128.706C614.491 129.105 613.893 129.503 613.341 129.902C612.789 130.27 612.314 130.684 611.915 131.144C611.516 131.604 611.21 132.11 610.995 132.662C610.78 133.214 610.673 133.843 610.673 134.548C610.673 135.468 610.857 136.204 611.225 136.756C611.593 137.277 612.114 137.538 612.789 137.538ZM626.812 149.498V144.622C627.824 144.622 628.652 144.561 629.296 144.438C629.94 144.315 630.415 144.085 630.722 143.748C631.059 143.441 631.228 142.997 631.228 142.414C631.228 141.954 631.121 141.325 630.906 140.528C630.722 139.731 630.507 138.841 630.262 137.86L624.19 115.412H630.768L634.172 131.742L636.932 115.412H643.556L637.392 142.828C637.024 144.545 636.411 145.879 635.552 146.83C634.724 147.811 633.697 148.501 632.47 148.9C631.274 149.299 629.879 149.498 628.284 149.498H626.812ZM656.875 142V131.328C656.415 131.359 655.955 131.389 655.495 131.42C655.066 131.451 654.636 131.466 654.207 131.466C652.122 131.466 650.45 131.221 649.193 130.73C647.966 130.239 647.092 129.503 646.571 128.522C646.05 127.51 645.789 126.283 645.789 124.842V115.412H652.689V124.474C652.689 125.425 652.873 126.145 653.241 126.636C653.64 127.096 654.437 127.357 655.633 127.418C655.817 127.418 656.001 127.403 656.185 127.372C656.4 127.341 656.63 127.326 656.875 127.326V115.412H663.821V142H656.875ZM668.623 142V115.412H675.569V125.9H680.399V115.412H687.391V142H680.399V130.73H675.569V142H668.623ZM700.536 142.46C698.634 142.46 697.009 142.123 695.66 141.448C694.31 140.743 693.283 139.731 692.578 138.412C691.903 137.093 691.566 135.453 691.566 133.49V123.922C691.566 121.959 691.903 120.319 692.578 119C693.283 117.681 694.31 116.685 695.66 116.01C697.009 115.305 698.634 114.952 700.536 114.952C702.437 114.952 704.062 115.305 705.412 116.01C706.761 116.685 707.788 117.681 708.494 119C709.199 120.319 709.552 121.959 709.552 123.922V133.49C709.552 135.453 709.199 137.093 708.494 138.412C707.788 139.731 706.761 140.743 705.412 141.448C704.062 142.123 702.437 142.46 700.536 142.46ZM700.582 137.768C701.164 137.768 701.609 137.615 701.916 137.308C702.222 136.971 702.422 136.526 702.514 135.974C702.606 135.391 702.652 134.732 702.652 133.996V123.462C702.652 122.695 702.606 122.036 702.514 121.484C702.422 120.932 702.222 120.487 701.916 120.15C701.609 119.813 701.164 119.644 700.582 119.644C699.999 119.644 699.554 119.813 699.248 120.15C698.941 120.487 698.726 120.932 698.604 121.484C698.512 122.036 698.466 122.695 698.466 123.462V133.996C698.466 134.732 698.512 135.391 698.604 135.974C698.726 136.526 698.941 136.971 699.248 137.308C699.554 137.615 699.999 137.768 700.582 137.768ZM714.184 128.614V124.06H725.73V128.614H714.184ZM730.885 142V115.412H749.009V142H742.063V120.242H737.831V142H730.885ZM753.75 150.74V115.412H760.696V117.39C761.524 116.623 762.414 116.025 763.364 115.596C764.346 115.167 765.327 114.952 766.308 114.952C767.382 114.952 768.286 115.197 769.022 115.688C769.758 116.148 770.356 116.777 770.816 117.574C771.276 118.371 771.598 119.261 771.782 120.242C771.966 121.223 772.058 122.22 772.058 123.232V133.628C772.058 135.345 771.844 136.863 771.414 138.182C770.985 139.501 770.326 140.543 769.436 141.31C768.578 142.077 767.458 142.46 766.078 142.46C765.128 142.46 764.192 142.23 763.272 141.77C762.383 141.31 761.524 140.712 760.696 139.976V150.74H753.75ZM762.996 137.814C763.579 137.814 764.008 137.645 764.284 137.308C764.591 136.94 764.806 136.465 764.928 135.882C765.051 135.299 765.112 134.655 765.112 133.95V122.818C765.112 122.174 765.051 121.591 764.928 121.07C764.806 120.549 764.591 120.135 764.284 119.828C763.978 119.491 763.564 119.322 763.042 119.322C762.613 119.322 762.199 119.429 761.8 119.644C761.402 119.828 761.034 120.073 760.696 120.38V137.032C761.064 137.277 761.432 137.477 761.8 137.63C762.168 137.753 762.567 137.814 762.996 137.814ZM781.681 142.46C780.424 142.46 779.335 142.138 778.415 141.494C777.526 140.85 776.851 140.037 776.391 139.056C775.931 138.075 775.701 137.063 775.701 136.02C775.701 134.364 776.023 132.969 776.667 131.834C777.311 130.699 778.154 129.749 779.197 128.982C780.24 128.215 781.405 127.556 782.693 127.004C783.981 126.452 785.269 125.946 786.557 125.486V123.002C786.557 122.419 786.511 121.913 786.419 121.484C786.327 121.055 786.143 120.733 785.867 120.518C785.622 120.273 785.254 120.15 784.763 120.15C784.272 120.15 783.889 120.257 783.613 120.472C783.368 120.656 783.184 120.947 783.061 121.346C782.969 121.714 782.908 122.128 782.877 122.588L782.739 124.428L776.161 124.152C776.314 121.024 777.127 118.709 778.599 117.206C780.102 115.703 782.356 114.952 785.361 114.952C788.06 114.952 790.053 115.703 791.341 117.206C792.629 118.678 793.273 120.625 793.273 123.048V135.422C793.273 136.465 793.288 137.4 793.319 138.228C793.38 139.025 793.442 139.746 793.503 140.39C793.595 141.003 793.672 141.54 793.733 142H787.477C787.385 141.325 787.278 140.589 787.155 139.792C787.032 138.995 786.94 138.458 786.879 138.182C786.572 139.286 785.99 140.283 785.131 141.172C784.272 142.031 783.122 142.46 781.681 142.46ZM784.211 137.538C784.548 137.538 784.87 137.461 785.177 137.308C785.484 137.155 785.744 136.955 785.959 136.71C786.204 136.465 786.404 136.235 786.557 136.02V128.706C785.913 129.105 785.315 129.503 784.763 129.902C784.211 130.27 783.736 130.684 783.337 131.144C782.938 131.604 782.632 132.11 782.417 132.662C782.202 133.214 782.095 133.843 782.095 134.548C782.095 135.468 782.279 136.204 782.647 136.756C783.015 137.277 783.536 137.538 784.211 137.538ZM797.774 142V115.412H804.72V126.038H805.87L810.102 115.412H817.554L812.218 128.016L817.646 142H810.332L805.87 130.086H804.72V142H797.774ZM823.588 142V120.196H818.712V115.412H835.364V120.196H830.488V142H823.588ZM838.428 142V115.412H843.948V130.408L851.124 115.412H856.552V142H850.894V127.096L843.902 142H838.428ZM871.781 142V131.328C871.321 131.359 870.861 131.389 870.401 131.42C869.972 131.451 869.543 131.466 869.113 131.466C867.028 131.466 865.357 131.221 864.099 130.73C862.873 130.239 861.999 129.503 861.477 128.522C860.956 127.51 860.695 126.283 860.695 124.842V115.412H867.595V124.474C867.595 125.425 867.779 126.145 868.147 126.636C868.546 127.096 869.343 127.357 870.539 127.418C870.723 127.418 870.907 127.403 871.091 127.372C871.306 127.341 871.536 127.326 871.781 127.326V115.412H878.727V142H871.781ZM891.902 142.46C889.939 142.46 888.298 142.107 886.98 141.402C885.661 140.666 884.664 139.608 883.99 138.228C883.315 136.817 882.978 135.131 882.978 133.168V124.244C882.978 122.22 883.315 120.533 883.99 119.184C884.664 117.804 885.676 116.761 887.026 116.056C888.375 115.32 890 114.952 891.902 114.952C893.926 114.952 895.566 115.32 896.824 116.056C898.081 116.792 899.001 117.865 899.584 119.276C900.197 120.687 900.504 122.404 900.504 124.428V129.074H889.832V134.226C889.832 134.993 889.908 135.621 890.062 136.112C890.246 136.603 890.491 136.955 890.798 137.17C891.104 137.354 891.488 137.446 891.948 137.446C892.377 137.446 892.745 137.354 893.052 137.17C893.389 136.955 893.634 136.633 893.788 136.204C893.941 135.775 894.018 135.207 894.018 134.502V131.972H900.458V134.18C900.458 136.879 899.722 138.933 898.25 140.344C896.778 141.755 894.662 142.46 891.902 142.46ZM889.832 125.762H894.018V123.14C894.018 122.373 893.941 121.76 893.788 121.3C893.634 120.809 893.389 120.472 893.052 120.288C892.745 120.073 892.346 119.966 891.856 119.966C891.396 119.966 891.012 120.073 890.706 120.288C890.43 120.503 890.215 120.886 890.062 121.438C889.908 121.959 889.832 122.711 889.832 123.692V125.762ZM913.014 142.46C911.051 142.46 909.411 142.092 908.092 141.356C906.773 140.589 905.777 139.516 905.102 138.136C904.458 136.756 904.136 135.115 904.136 133.214V124.244C904.136 122.251 904.458 120.579 905.102 119.23C905.777 117.85 906.773 116.792 908.092 116.056C909.411 115.32 911.051 114.952 913.014 114.952C914.915 114.952 916.51 115.259 917.798 115.872C919.086 116.455 920.037 117.344 920.65 118.54C921.294 119.736 921.616 121.239 921.616 123.048V125.578H914.992V122.864C914.992 122.067 914.915 121.453 914.762 121.024C914.639 120.564 914.425 120.242 914.118 120.058C913.842 119.874 913.474 119.782 913.014 119.782C912.554 119.782 912.186 119.905 911.91 120.15C911.634 120.365 911.435 120.748 911.312 121.3C911.189 121.821 911.128 122.557 911.128 123.508V133.95C911.128 135.391 911.281 136.373 911.588 136.894C911.925 137.385 912.416 137.63 913.06 137.63C913.551 137.63 913.934 137.523 914.21 137.308C914.486 137.093 914.685 136.756 914.808 136.296C914.931 135.836 914.992 135.253 914.992 134.548V131.328H921.616V134.226C921.616 136.005 921.294 137.523 920.65 138.78C920.006 140.007 919.04 140.927 917.752 141.54C916.464 142.153 914.885 142.46 913.014 142.46ZM925.666 142V115.412H932.612V126.038H933.762L937.994 115.412H945.446L940.11 128.016L945.538 142H938.224L933.762 130.086H932.612V142H925.666ZM953.507 142.46C952.25 142.46 951.161 142.138 950.241 141.494C949.352 140.85 948.677 140.037 948.217 139.056C947.757 138.075 947.527 137.063 947.527 136.02C947.527 134.364 947.849 132.969 948.493 131.834C949.137 130.699 949.981 129.749 951.023 128.982C952.066 128.215 953.231 127.556 954.519 127.004C955.807 126.452 957.095 125.946 958.383 125.486V123.002C958.383 122.419 958.337 121.913 958.245 121.484C958.153 121.055 957.969 120.733 957.693 120.518C957.448 120.273 957.08 120.15 956.589 120.15C956.099 120.15 955.715 120.257 955.439 120.472C955.194 120.656 955.01 120.947 954.887 121.346C954.795 121.714 954.734 122.128 954.703 122.588L954.565 124.428L947.987 124.152C948.141 121.024 948.953 118.709 950.425 117.206C951.928 115.703 954.182 114.952 957.187 114.952C959.886 114.952 961.879 115.703 963.167 117.206C964.455 118.678 965.099 120.625 965.099 123.048V135.422C965.099 136.465 965.115 137.4 965.145 138.228C965.207 139.025 965.268 139.746 965.329 140.39C965.421 141.003 965.498 141.54 965.559 142H959.303C959.211 141.325 959.104 140.589 958.981 139.792C958.859 138.995 958.767 138.458 958.705 138.182C958.399 139.286 957.816 140.283 956.957 141.172C956.099 142.031 954.949 142.46 953.507 142.46ZM956.037 137.538C956.375 137.538 956.697 137.461 957.003 137.308C957.31 137.155 957.571 136.955 957.785 136.71C958.031 136.465 958.23 136.235 958.383 136.02V128.706C957.739 129.105 957.141 129.503 956.589 129.902C956.037 130.27 955.562 130.684 955.163 131.144C954.765 131.604 954.458 132.11 954.243 132.662C954.029 133.214 953.921 133.843 953.921 134.548C953.921 135.468 954.105 136.204 954.473 136.756C954.841 137.277 955.363 137.538 956.037 137.538ZM967.944 142L972.268 130.914C971.501 130.515 970.873 129.979 970.382 129.304C969.891 128.599 969.523 127.771 969.278 126.82C969.033 125.839 968.91 124.796 968.91 123.692C968.91 122.404 969.079 121.254 969.416 120.242C969.784 119.23 970.351 118.371 971.118 117.666C971.915 116.961 972.943 116.409 974.2 116.01C975.488 115.611 977.037 115.412 978.846 115.412H987.724V142H980.824V132.294C980.64 132.294 980.287 132.294 979.766 132.294C979.275 132.263 978.877 132.233 978.57 132.202L975.258 142H967.944ZM980.456 128.246C980.517 128.246 980.579 128.246 980.64 128.246C980.732 128.246 980.793 128.246 980.824 128.246V119.322C980.793 119.322 980.732 119.322 980.64 119.322C980.579 119.322 980.517 119.322 980.456 119.322C979.26 119.322 978.263 119.491 977.466 119.828C976.699 120.135 976.132 120.61 975.764 121.254C975.396 121.867 975.212 122.665 975.212 123.646C975.212 125.179 975.641 126.329 976.5 127.096C977.389 127.832 978.708 128.215 980.456 128.246ZM495.697 210V183.412H502.643V194.038H503.793L508.025 183.412H515.477L510.141 196.016L515.569 210H508.255L503.793 198.086H502.643V210H495.697ZM526.665 210.46C524.764 210.46 523.139 210.123 521.789 209.448C520.44 208.743 519.413 207.731 518.707 206.412C518.033 205.093 517.695 203.453 517.695 201.49V191.922C517.695 189.959 518.033 188.319 518.707 187C519.413 185.681 520.44 184.685 521.789 184.01C523.139 183.305 524.764 182.952 526.665 182.952C528.567 182.952 530.192 183.305 531.541 184.01C532.891 184.685 533.918 185.681 534.623 187C535.329 188.319 535.681 189.959 535.681 191.922V201.49C535.681 203.453 535.329 205.093 534.623 206.412C533.918 207.731 532.891 208.743 531.541 209.448C530.192 210.123 528.567 210.46 526.665 210.46ZM526.711 205.768C527.294 205.768 527.739 205.615 528.045 205.308C528.352 204.971 528.551 204.526 528.643 203.974C528.735 203.391 528.781 202.732 528.781 201.996V191.462C528.781 190.695 528.735 190.036 528.643 189.484C528.551 188.932 528.352 188.487 528.045 188.15C527.739 187.813 527.294 187.644 526.711 187.644C526.129 187.644 525.684 187.813 525.377 188.15C525.071 188.487 524.856 188.932 524.733 189.484C524.641 190.036 524.595 190.695 524.595 191.462V201.996C524.595 202.732 524.641 203.391 524.733 203.974C524.856 204.526 525.071 204.971 525.377 205.308C525.684 205.615 526.129 205.768 526.711 205.768ZM539.9 210V183.412H546.846V193.9H551.676V183.412H558.668V210H551.676V198.73H546.846V210H539.9ZM573.514 218.096V209.402H572.778C571.797 209.402 570.739 209.264 569.604 208.988C568.469 208.681 567.396 208.175 566.384 207.47C565.372 206.765 564.529 205.799 563.854 204.572C563.21 203.315 562.888 201.72 562.888 199.788V192.888C562.888 191.232 563.179 189.821 563.762 188.656C564.345 187.491 565.111 186.54 566.062 185.804C567.013 185.037 568.071 184.485 569.236 184.148C570.401 183.78 571.582 183.596 572.778 183.596H573.514V172.786H579.586V183.596H580.46C582.085 183.596 583.634 183.918 585.106 184.562C586.609 185.175 587.835 186.172 588.786 187.552C589.737 188.901 590.212 190.68 590.212 192.888V199.788C590.212 201.72 589.89 203.315 589.246 204.572C588.602 205.799 587.774 206.765 586.762 207.47C585.75 208.175 584.677 208.681 583.542 208.988C582.438 209.264 581.411 209.402 580.46 209.402H579.586V218.096H573.514ZM572.962 205.124H573.514V187.552H572.916C572.241 187.552 571.628 187.721 571.076 188.058C570.555 188.365 570.141 188.871 569.834 189.576C569.527 190.251 569.374 191.14 569.374 192.244V200.202C569.374 201.337 569.512 202.272 569.788 203.008C570.095 203.744 570.509 204.281 571.03 204.618C571.582 204.955 572.226 205.124 572.962 205.124ZM579.586 205.124H580.046C580.751 205.124 581.38 204.955 581.932 204.618C582.484 204.281 582.929 203.744 583.266 203.008C583.603 202.272 583.772 201.337 583.772 200.202V192.244C583.772 191.14 583.603 190.251 583.266 189.576C582.959 188.871 582.53 188.365 581.978 188.058C581.426 187.721 580.797 187.552 580.092 187.552H579.586V205.124ZM602.942 210.46C600.979 210.46 599.338 210.107 598.02 209.402C596.701 208.666 595.704 207.608 595.03 206.228C594.355 204.817 594.018 203.131 594.018 201.168V192.244C594.018 190.22 594.355 188.533 595.03 187.184C595.704 185.804 596.716 184.761 598.066 184.056C599.415 183.32 601.04 182.952 602.942 182.952C604.966 182.952 606.606 183.32 607.864 184.056C609.121 184.792 610.041 185.865 610.624 187.276C611.237 188.687 611.544 190.404 611.544 192.428V197.074H600.872V202.226C600.872 202.993 600.948 203.621 601.102 204.112C601.286 204.603 601.531 204.955 601.838 205.17C602.144 205.354 602.528 205.446 602.988 205.446C603.417 205.446 603.785 205.354 604.092 205.17C604.429 204.955 604.674 204.633 604.828 204.204C604.981 203.775 605.058 203.207 605.058 202.502V199.972H611.498V202.18C611.498 204.879 610.762 206.933 609.29 208.344C607.818 209.755 605.702 210.46 602.942 210.46ZM600.872 193.762H605.058V191.14C605.058 190.373 604.981 189.76 604.828 189.3C604.674 188.809 604.429 188.472 604.092 188.288C603.785 188.073 603.386 187.966 602.896 187.966C602.436 187.966 602.052 188.073 601.746 188.288C601.47 188.503 601.255 188.886 601.102 189.438C600.948 189.959 600.872 190.711 600.872 191.692V193.762ZM615.728 218.74V183.412H622.674V185.39C623.502 184.623 624.391 184.025 625.342 183.596C626.323 183.167 627.305 182.952 628.286 182.952C629.359 182.952 630.264 183.197 631 183.688C631.736 184.148 632.334 184.777 632.794 185.574C633.254 186.371 633.576 187.261 633.76 188.242C633.944 189.223 634.036 190.22 634.036 191.232V201.628C634.036 203.345 633.821 204.863 633.392 206.182C632.963 207.501 632.303 208.543 631.414 209.31C630.555 210.077 629.436 210.46 628.056 210.46C627.105 210.46 626.17 210.23 625.25 209.77C624.361 209.31 623.502 208.712 622.674 207.976V218.74H615.728ZM624.974 205.814C625.557 205.814 625.986 205.645 626.262 205.308C626.569 204.94 626.783 204.465 626.906 203.882C627.029 203.299 627.09 202.655 627.09 201.95V190.818C627.09 190.174 627.029 189.591 626.906 189.07C626.783 188.549 626.569 188.135 626.262 187.828C625.955 187.491 625.541 187.322 625.02 187.322C624.591 187.322 624.177 187.429 623.778 187.644C623.379 187.828 623.011 188.073 622.674 188.38V205.032C623.042 205.277 623.41 205.477 623.778 205.63C624.146 205.753 624.545 205.814 624.974 205.814ZM646.741 210.46C644.778 210.46 643.137 210.107 641.819 209.402C640.5 208.666 639.503 207.608 638.829 206.228C638.154 204.817 637.817 203.131 637.817 201.168V192.244C637.817 190.22 638.154 188.533 638.829 187.184C639.503 185.804 640.515 184.761 641.865 184.056C643.214 183.32 644.839 182.952 646.741 182.952C648.765 182.952 650.405 183.32 651.663 184.056C652.92 184.792 653.84 185.865 654.423 187.276C655.036 188.687 655.343 190.404 655.343 192.428V197.074H644.671V202.226C644.671 202.993 644.747 203.621 644.901 204.112C645.085 204.603 645.33 204.955 645.637 205.17C645.943 205.354 646.327 205.446 646.787 205.446C647.216 205.446 647.584 205.354 647.891 205.17C648.228 204.955 648.473 204.633 648.627 204.204C648.78 203.775 648.857 203.207 648.857 202.502V199.972H655.297V202.18C655.297 204.879 654.561 206.933 653.089 208.344C651.617 209.755 649.501 210.46 646.741 210.46ZM644.671 193.762H648.857V191.14C648.857 190.373 648.78 189.76 648.627 189.3C648.473 188.809 648.228 188.472 647.891 188.288C647.584 188.073 647.185 187.966 646.695 187.966C646.235 187.966 645.851 188.073 645.545 188.288C645.269 188.503 645.054 188.886 644.901 189.438C644.747 189.959 644.671 190.711 644.671 191.692V193.762ZM659.527 210V183.412H666.473V193.9H671.303V183.412H678.295V210H671.303V198.73H666.473V210H659.527ZM700.087 217.13L699.627 210H682.975V183.412H689.967V205.63H694.475V183.412H701.421V205.63H705.101V217.13H700.087ZM708.312 210V183.412H713.832V198.408L721.008 183.412H726.436V210H720.778V195.096L713.786 210H708.312ZM729.521 210L733.845 198.914C733.078 198.515 732.45 197.979 731.959 197.304C731.468 196.599 731.1 195.771 730.855 194.82C730.61 193.839 730.487 192.796 730.487 191.692C730.487 190.404 730.656 189.254 730.993 188.242C731.361 187.23 731.928 186.371 732.695 185.666C733.492 184.961 734.52 184.409 735.777 184.01C737.065 183.611 738.614 183.412 740.423 183.412H749.301V210H742.401V200.294C742.217 200.294 741.864 200.294 741.343 200.294C740.852 200.263 740.454 200.233 740.147 200.202L736.835 210H729.521ZM742.033 196.246C742.094 196.246 742.156 196.246 742.217 196.246C742.309 196.246 742.37 196.246 742.401 196.246V187.322C742.37 187.322 742.309 187.322 742.217 187.322C742.156 187.322 742.094 187.322 742.033 187.322C740.837 187.322 739.84 187.491 739.043 187.828C738.276 188.135 737.709 188.61 737.341 189.254C736.973 189.867 736.789 190.665 736.789 191.646C736.789 193.179 737.218 194.329 738.077 195.096C738.966 195.832 740.285 196.215 742.033 196.246ZM175.594 276.252L166.854 265.534V263.004L175.594 252.332V259.278L171.086 264.292L175.594 269.306V276.252ZM165.842 276.252L157.148 265.534V263.004L165.842 252.332V259.278L161.38 264.292L165.842 269.306V276.252ZM180.445 278V240.74H202.341V278H194.889V246.168H187.897V278H180.445ZM207.523 286.74V251.412H214.469V253.39C215.297 252.623 216.186 252.025 217.137 251.596C218.118 251.167 219.1 250.952 220.081 250.952C221.154 250.952 222.059 251.197 222.795 251.688C223.531 252.148 224.129 252.777 224.589 253.574C225.049 254.371 225.371 255.261 225.555 256.242C225.739 257.223 225.831 258.22 225.831 259.232V269.628C225.831 271.345 225.616 272.863 225.187 274.182C224.758 275.501 224.098 276.543 223.209 277.31C222.35 278.077 221.231 278.46 219.851 278.46C218.9 278.46 217.965 278.23 217.045 277.77C216.156 277.31 215.297 276.712 214.469 275.976V286.74H207.523ZM216.769 273.814C217.352 273.814 217.781 273.645 218.057 273.308C218.364 272.94 218.578 272.465 218.701 271.882C218.824 271.299 218.885 270.655 218.885 269.95V258.818C218.885 258.174 218.824 257.591 218.701 257.07C218.578 256.549 218.364 256.135 218.057 255.828C217.75 255.491 217.336 255.322 216.815 255.322C216.386 255.322 215.972 255.429 215.573 255.644C215.174 255.828 214.806 256.073 214.469 256.38V273.032C214.837 273.277 215.205 273.477 215.573 273.63C215.941 273.753 216.34 273.814 216.769 273.814ZM238.581 278.46C236.68 278.46 235.055 278.123 233.705 277.448C232.356 276.743 231.329 275.731 230.623 274.412C229.949 273.093 229.611 271.453 229.611 269.49V259.922C229.611 257.959 229.949 256.319 230.623 255C231.329 253.681 232.356 252.685 233.705 252.01C235.055 251.305 236.68 250.952 238.581 250.952C240.483 250.952 242.108 251.305 243.457 252.01C244.807 252.685 245.834 253.681 246.539 255C247.245 256.319 247.597 257.959 247.597 259.922V269.49C247.597 271.453 247.245 273.093 246.539 274.412C245.834 275.731 244.807 276.743 243.457 277.448C242.108 278.123 240.483 278.46 238.581 278.46ZM238.627 273.768C239.21 273.768 239.655 273.615 239.961 273.308C240.268 272.971 240.467 272.526 240.559 271.974C240.651 271.391 240.697 270.732 240.697 269.996V259.462C240.697 258.695 240.651 258.036 240.559 257.484C240.467 256.932 240.268 256.487 239.961 256.15C239.655 255.813 239.21 255.644 238.627 255.644C238.045 255.644 237.6 255.813 237.293 256.15C236.987 256.487 236.772 256.932 236.649 257.484C236.557 258.036 236.511 258.695 236.511 259.462V269.996C236.511 270.732 236.557 271.391 236.649 271.974C236.772 272.526 236.987 272.971 237.293 273.308C237.6 273.615 238.045 273.768 238.627 273.768ZM261.936 286.096V277.402H261.2C260.218 277.402 259.16 277.264 258.026 276.988C256.891 276.681 255.818 276.175 254.806 275.47C253.794 274.765 252.95 273.799 252.276 272.572C251.632 271.315 251.31 269.72 251.31 267.788V260.888C251.31 259.232 251.601 257.821 252.184 256.656C252.766 255.491 253.533 254.54 254.484 253.804C255.434 253.037 256.492 252.485 257.658 252.148C258.823 251.78 260.004 251.596 261.2 251.596H261.936V240.786H268.008V251.596H268.882C270.507 251.596 272.056 251.918 273.528 252.562C275.03 253.175 276.257 254.172 277.208 255.552C278.158 256.901 278.634 258.68 278.634 260.888V267.788C278.634 269.72 278.312 271.315 277.668 272.572C277.024 273.799 276.196 274.765 275.184 275.47C274.172 276.175 273.098 276.681 271.964 276.988C270.86 277.264 269.832 277.402 268.882 277.402H268.008V286.096H261.936ZM261.384 273.124H261.936V255.552H261.338C260.663 255.552 260.05 255.721 259.498 256.058C258.976 256.365 258.562 256.871 258.256 257.576C257.949 258.251 257.796 259.14 257.796 260.244V268.202C257.796 269.337 257.934 270.272 258.21 271.008C258.516 271.744 258.93 272.281 259.452 272.618C260.004 272.955 260.648 273.124 261.384 273.124ZM268.008 273.124H268.468C269.173 273.124 269.802 272.955 270.354 272.618C270.906 272.281 271.35 271.744 271.688 271.008C272.025 270.272 272.194 269.337 272.194 268.202V260.244C272.194 259.14 272.025 258.251 271.688 257.576C271.381 256.871 270.952 256.365 270.4 256.058C269.848 255.721 269.219 255.552 268.514 255.552H268.008V273.124ZM291.364 278.46C289.401 278.46 287.76 278.107 286.442 277.402C285.123 276.666 284.126 275.608 283.452 274.228C282.777 272.817 282.44 271.131 282.44 269.168V260.244C282.44 258.22 282.777 256.533 283.452 255.184C284.126 253.804 285.138 252.761 286.488 252.056C287.837 251.32 289.462 250.952 291.364 250.952C293.388 250.952 295.028 251.32 296.286 252.056C297.543 252.792 298.463 253.865 299.046 255.276C299.659 256.687 299.966 258.404 299.966 260.428V265.074H289.294V270.226C289.294 270.993 289.37 271.621 289.524 272.112C289.708 272.603 289.953 272.955 290.26 273.17C290.566 273.354 290.95 273.446 291.41 273.446C291.839 273.446 292.207 273.354 292.514 273.17C292.851 272.955 293.096 272.633 293.25 272.204C293.403 271.775 293.48 271.207 293.48 270.502V267.972H299.92V270.18C299.92 272.879 299.184 274.933 297.712 276.344C296.24 277.755 294.124 278.46 291.364 278.46ZM289.294 261.762H293.48V259.14C293.48 258.373 293.403 257.76 293.25 257.3C293.096 256.809 292.851 256.472 292.514 256.288C292.207 256.073 291.808 255.966 291.318 255.966C290.858 255.966 290.474 256.073 290.168 256.288C289.892 256.503 289.677 256.886 289.524 257.438C289.37 257.959 289.294 258.711 289.294 259.692V261.762ZM312.476 278.46C310.513 278.46 308.872 278.092 307.554 277.356C306.235 276.589 305.238 275.516 304.564 274.136C303.92 272.756 303.598 271.115 303.598 269.214V260.244C303.598 258.251 303.92 256.579 304.564 255.23C305.238 253.85 306.235 252.792 307.554 252.056C308.872 251.32 310.513 250.952 312.476 250.952C314.377 250.952 315.972 251.259 317.26 251.872C318.548 252.455 319.498 253.344 320.112 254.54C320.756 255.736 321.078 257.239 321.078 259.048V261.578H314.454V258.864C314.454 258.067 314.377 257.453 314.224 257.024C314.101 256.564 313.886 256.242 313.58 256.058C313.304 255.874 312.936 255.782 312.476 255.782C312.016 255.782 311.648 255.905 311.372 256.15C311.096 256.365 310.896 256.748 310.774 257.3C310.651 257.821 310.59 258.557 310.59 259.508V269.95C310.59 271.391 310.743 272.373 311.05 272.894C311.387 273.385 311.878 273.63 312.522 273.63C313.012 273.63 313.396 273.523 313.672 273.308C313.948 273.093 314.147 272.756 314.27 272.296C314.392 271.836 314.454 271.253 314.454 270.548V267.328H321.078V270.226C321.078 272.005 320.756 273.523 320.112 274.78C319.468 276.007 318.502 276.927 317.214 277.54C315.926 278.153 314.346 278.46 312.476 278.46ZM333.454 278.46C331.492 278.46 329.851 278.092 328.532 277.356C327.214 276.589 326.217 275.516 325.542 274.136C324.898 272.756 324.576 271.115 324.576 269.214V260.244C324.576 258.251 324.898 256.579 325.542 255.23C326.217 253.85 327.214 252.792 328.532 252.056C329.851 251.32 331.492 250.952 333.454 250.952C335.356 250.952 336.95 251.259 338.238 251.872C339.526 252.455 340.477 253.344 341.09 254.54C341.734 255.736 342.056 257.239 342.056 259.048V261.578H335.432V258.864C335.432 258.067 335.356 257.453 335.202 257.024C335.08 256.564 334.865 256.242 334.558 256.058C334.282 255.874 333.914 255.782 333.454 255.782C332.994 255.782 332.626 255.905 332.35 256.15C332.074 256.365 331.875 256.748 331.752 257.3C331.63 257.821 331.568 258.557 331.568 259.508V269.95C331.568 271.391 331.722 272.373 332.028 272.894C332.366 273.385 332.856 273.63 333.5 273.63C333.991 273.63 334.374 273.523 334.65 273.308C334.926 273.093 335.126 272.756 335.248 272.296C335.371 271.836 335.432 271.253 335.432 270.548V267.328H342.056V270.226C342.056 272.005 341.734 273.523 341.09 274.78C340.446 276.007 339.48 276.927 338.192 277.54C336.904 278.153 335.325 278.46 333.454 278.46ZM346.107 278V251.412H351.627V266.408L358.803 251.412H364.231V278H358.573V263.096L351.581 278H346.107ZM377.39 278.46C375.489 278.46 373.863 278.123 372.514 277.448C371.165 276.743 370.137 275.731 369.432 274.412C368.757 273.093 368.42 271.453 368.42 269.49V259.922C368.42 257.959 368.757 256.319 369.432 255C370.137 253.681 371.165 252.685 372.514 252.01C373.863 251.305 375.489 250.952 377.39 250.952C379.291 250.952 380.917 251.305 382.266 252.01C383.615 252.685 384.643 253.681 385.348 255C386.053 256.319 386.406 257.959 386.406 259.922V269.49C386.406 271.453 386.053 273.093 385.348 274.412C384.643 275.731 383.615 276.743 382.266 277.448C380.917 278.123 379.291 278.46 377.39 278.46ZM377.436 273.768C378.019 273.768 378.463 273.615 378.77 273.308C379.077 272.971 379.276 272.526 379.368 271.974C379.46 271.391 379.506 270.732 379.506 269.996V259.462C379.506 258.695 379.46 258.036 379.368 257.484C379.276 256.932 379.077 256.487 378.77 256.15C378.463 255.813 378.019 255.644 377.436 255.644C376.853 255.644 376.409 255.813 376.102 256.15C375.795 256.487 375.581 256.932 375.458 257.484C375.366 258.036 375.32 258.695 375.32 259.462V269.996C375.32 270.732 375.366 271.391 375.458 271.974C375.581 272.526 375.795 272.971 376.102 273.308C376.409 273.615 376.853 273.768 377.436 273.768ZM390.624 278V251.412H397.57V261.9H402.4V251.412H409.392V278H402.4V266.73H397.57V278H390.624ZM419.409 278.46C418.151 278.46 417.063 278.138 416.143 277.494C415.253 276.85 414.579 276.037 414.119 275.056C413.659 274.075 413.429 273.063 413.429 272.02C413.429 270.364 413.751 268.969 414.395 267.834C415.039 266.699 415.882 265.749 416.925 264.982C417.967 264.215 419.133 263.556 420.421 263.004C421.709 262.452 422.997 261.946 424.285 261.486V259.002C424.285 258.419 424.239 257.913 424.147 257.484C424.055 257.055 423.871 256.733 423.595 256.518C423.349 256.273 422.981 256.15 422.491 256.15C422 256.15 421.617 256.257 421.341 256.472C421.095 256.656 420.911 256.947 420.789 257.346C420.697 257.714 420.635 258.128 420.605 258.588L420.467 260.428L413.889 260.152C414.042 257.024 414.855 254.709 416.327 253.206C417.829 251.703 420.083 250.952 423.089 250.952C425.787 250.952 427.781 251.703 429.069 253.206C430.357 254.678 431.001 256.625 431.001 259.048V271.422C431.001 272.465 431.016 273.4 431.047 274.228C431.108 275.025 431.169 275.746 431.231 276.39C431.323 277.003 431.399 277.54 431.461 278H425.205C425.113 277.325 425.005 276.589 424.883 275.792C424.76 274.995 424.668 274.458 424.607 274.182C424.3 275.286 423.717 276.283 422.859 277.172C422 278.031 420.85 278.46 419.409 278.46ZM421.939 273.538C422.276 273.538 422.598 273.461 422.905 273.308C423.211 273.155 423.472 272.955 423.687 272.71C423.932 272.465 424.131 272.235 424.285 272.02V264.706C423.641 265.105 423.043 265.503 422.491 265.902C421.939 266.27 421.463 266.684 421.065 267.144C420.666 267.604 420.359 268.11 420.145 268.662C419.93 269.214 419.823 269.843 419.823 270.548C419.823 271.468 420.007 272.204 420.375 272.756C420.743 273.277 421.264 273.538 421.939 273.538ZM433.753 278.276V273.308C434.704 273.308 435.486 273.155 436.099 272.848C436.713 272.511 437.203 271.959 437.571 271.192C437.939 270.395 438.215 269.337 438.399 268.018C438.614 266.669 438.798 264.951 438.951 262.866L439.779 251.412H456.017V278H449.071V256.196H445.667L445.069 264.062C444.885 266.883 444.594 269.214 444.195 271.054C443.827 272.894 443.275 274.335 442.539 275.378C441.803 276.421 440.822 277.172 439.595 277.632C438.369 278.061 436.789 278.276 434.857 278.276H433.753ZM460.792 278V251.412H467.738V262.13C467.769 262.13 467.8 262.13 467.83 262.13C467.861 262.13 467.892 262.13 467.922 262.13C467.984 262.13 468.03 262.13 468.06 262.13C469.9 262.161 471.51 262.299 472.89 262.544C474.27 262.759 475.405 263.173 476.294 263.786C477.214 264.369 477.904 265.166 478.364 266.178C478.855 267.159 479.1 268.417 479.1 269.95C479.1 271.391 478.886 272.633 478.456 273.676C478.058 274.688 477.414 275.516 476.524 276.16C475.635 276.773 474.485 277.233 473.074 277.54C471.664 277.847 469.977 278 468.014 278H460.792ZM467.738 273.998H467.876C469.103 273.998 470.069 273.891 470.774 273.676C471.51 273.431 472.032 273.017 472.338 272.434C472.645 271.851 472.798 271.069 472.798 270.088C472.798 269.107 472.645 268.34 472.338 267.788C472.032 267.236 471.526 266.837 470.82 266.592C470.146 266.347 469.21 266.224 468.014 266.224C467.984 266.224 467.938 266.224 467.876 266.224C467.815 266.224 467.769 266.224 467.738 266.224V273.998ZM482.669 278V251.412H489.615V261.9H494.445V251.412H501.437V278H494.445V266.73H489.615V278H482.669ZM511.453 278.46C510.196 278.46 509.107 278.138 508.187 277.494C507.298 276.85 506.623 276.037 506.163 275.056C505.703 274.075 505.473 273.063 505.473 272.02C505.473 270.364 505.795 268.969 506.439 267.834C507.083 266.699 507.927 265.749 508.969 264.982C510.012 264.215 511.177 263.556 512.465 263.004C513.753 262.452 515.041 261.946 516.329 261.486V259.002C516.329 258.419 516.283 257.913 516.191 257.484C516.099 257.055 515.915 256.733 515.639 256.518C515.394 256.273 515.026 256.15 514.535 256.15C514.045 256.15 513.661 256.257 513.385 256.472C513.14 256.656 512.956 256.947 512.833 257.346C512.741 257.714 512.68 258.128 512.649 258.588L512.511 260.428L505.933 260.152C506.087 257.024 506.899 254.709 508.371 253.206C509.874 251.703 512.128 250.952 515.133 250.952C517.832 250.952 519.825 251.703 521.113 253.206C522.401 254.678 523.045 256.625 523.045 259.048V271.422C523.045 272.465 523.061 273.4 523.091 274.228C523.153 275.025 523.214 275.746 523.275 276.39C523.367 277.003 523.444 277.54 523.505 278H517.249C517.157 277.325 517.05 276.589 516.927 275.792C516.805 274.995 516.713 274.458 516.651 274.182C516.345 275.286 515.762 276.283 514.903 277.172C514.045 278.031 512.895 278.46 511.453 278.46ZM513.983 273.538C514.321 273.538 514.643 273.461 514.949 273.308C515.256 273.155 515.517 272.955 515.731 272.71C515.977 272.465 516.176 272.235 516.329 272.02V264.706C515.685 265.105 515.087 265.503 514.535 265.902C513.983 266.27 513.508 266.684 513.109 267.144C512.711 267.604 512.404 268.11 512.189 268.662C511.975 269.214 511.867 269.843 511.867 270.548C511.867 271.468 512.051 272.204 512.419 272.756C512.787 273.277 513.309 273.538 513.983 273.538ZM525.89 278L530.214 266.914C529.448 266.515 528.819 265.979 528.328 265.304C527.838 264.599 527.47 263.771 527.224 262.82C526.979 261.839 526.856 260.796 526.856 259.692C526.856 258.404 527.025 257.254 527.362 256.242C527.73 255.23 528.298 254.371 529.064 253.666C529.862 252.961 530.889 252.409 532.146 252.01C533.434 251.611 534.983 251.412 536.792 251.412H545.67V278H538.77V268.294C538.586 268.294 538.234 268.294 537.712 268.294C537.222 268.263 536.823 268.233 536.516 268.202L533.204 278H525.89ZM538.402 264.246C538.464 264.246 538.525 264.246 538.586 264.246C538.678 264.246 538.74 264.246 538.77 264.246V255.322C538.74 255.322 538.678 255.322 538.586 255.322C538.525 255.322 538.464 255.322 538.402 255.322C537.206 255.322 536.21 255.491 535.412 255.828C534.646 256.135 534.078 256.61 533.71 257.254C533.342 257.867 533.158 258.665 533.158 259.646C533.158 261.179 533.588 262.329 534.446 263.096C535.336 263.832 536.654 264.215 538.402 264.246ZM561.956 278V251.412H568.902V262.038H570.052L574.284 251.412H581.736L576.4 264.016L581.828 278H574.514L570.052 266.086H568.902V278H561.956ZM592.925 278.46C591.024 278.46 589.399 278.123 588.049 277.448C586.7 276.743 585.673 275.731 584.967 274.412C584.293 273.093 583.955 271.453 583.955 269.49V259.922C583.955 257.959 584.293 256.319 584.967 255C585.673 253.681 586.7 252.685 588.049 252.01C589.399 251.305 591.024 250.952 592.925 250.952C594.827 250.952 596.452 251.305 597.801 252.01C599.151 252.685 600.178 253.681 600.883 255C601.589 256.319 601.941 257.959 601.941 259.922V269.49C601.941 271.453 601.589 273.093 600.883 274.412C600.178 275.731 599.151 276.743 597.801 277.448C596.452 278.123 594.827 278.46 592.925 278.46ZM592.971 273.768C593.554 273.768 593.999 273.615 594.305 273.308C594.612 272.971 594.811 272.526 594.903 271.974C594.995 271.391 595.041 270.732 595.041 269.996V259.462C595.041 258.695 594.995 258.036 594.903 257.484C594.811 256.932 594.612 256.487 594.305 256.15C593.999 255.813 593.554 255.644 592.971 255.644C592.389 255.644 591.944 255.813 591.637 256.15C591.331 256.487 591.116 256.932 590.993 257.484C590.901 258.036 590.855 258.695 590.855 259.462V269.996C590.855 270.732 590.901 271.391 590.993 271.974C591.116 272.526 591.331 272.971 591.637 273.308C591.944 273.615 592.389 273.768 592.971 273.768ZM606.068 278L606.206 251.412H611.312L616.832 264.936L622.444 251.412H627.55L627.688 278H622.214V263.602L617.936 274.182H615.866L611.542 263.602V278H606.068ZM632.347 278L632.485 251.412H637.591L643.111 264.936L648.723 251.412H653.829L653.967 278H648.493V263.602L644.215 274.182H642.145L637.821 263.602V278H632.347ZM659.178 285.498V280.622C660.19 280.622 661.018 280.561 661.662 280.438C662.306 280.315 662.782 280.085 663.088 279.748C663.426 279.441 663.594 278.997 663.594 278.414C663.594 277.954 663.487 277.325 663.272 276.528C663.088 275.731 662.874 274.841 662.628 273.86L656.556 251.412H663.134L666.538 267.742L669.298 251.412H675.922L669.758 278.828C669.39 280.545 668.777 281.879 667.918 282.83C667.09 283.811 666.063 284.501 664.836 284.9C663.64 285.299 662.245 285.498 660.65 285.498H659.178ZM678.753 278V251.412H685.699V261.9H690.529V251.412H697.521V278H690.529V266.73H685.699V278H678.753ZM702.247 278V251.412H707.767V266.408L714.943 251.412H720.371V278H714.713V263.096L707.721 278H702.247ZM725.113 278V251.412H732.059V262.038H733.209L737.441 251.412H744.893L739.557 264.016L744.985 278H737.671L733.209 266.086H732.059V278H725.113ZM752.953 278.46C751.696 278.46 750.607 278.138 749.687 277.494C748.798 276.85 748.123 276.037 747.663 275.056C747.203 274.075 746.973 273.063 746.973 272.02C746.973 270.364 747.295 268.969 747.939 267.834C748.583 266.699 749.427 265.749 750.469 264.982C751.512 264.215 752.677 263.556 753.965 263.004C755.253 262.452 756.541 261.946 757.829 261.486V259.002C757.829 258.419 757.783 257.913 757.691 257.484C757.599 257.055 757.415 256.733 757.139 256.518C756.894 256.273 756.526 256.15 756.035 256.15C755.545 256.15 755.161 256.257 754.885 256.472C754.64 256.656 754.456 256.947 754.333 257.346C754.241 257.714 754.18 258.128 754.149 258.588L754.011 260.428L747.433 260.152C747.587 257.024 748.399 254.709 749.871 253.206C751.374 251.703 753.628 250.952 756.633 250.952C759.332 250.952 761.325 251.703 762.613 253.206C763.901 254.678 764.545 256.625 764.545 259.048V271.422C764.545 272.465 764.561 273.4 764.591 274.228C764.653 275.025 764.714 275.746 764.775 276.39C764.867 277.003 764.944 277.54 765.005 278H758.749C758.657 277.325 758.55 276.589 758.427 275.792C758.305 274.995 758.213 274.458 758.151 274.182C757.845 275.286 757.262 276.283 756.403 277.172C755.545 278.031 754.395 278.46 752.953 278.46ZM755.483 273.538C755.821 273.538 756.143 273.461 756.449 273.308C756.756 273.155 757.017 272.955 757.231 272.71C757.477 272.465 757.676 272.235 757.829 272.02V264.706C757.185 265.105 756.587 265.503 756.035 265.902C755.483 266.27 755.008 266.684 754.609 267.144C754.211 267.604 753.904 268.11 753.689 268.662C753.475 269.214 753.367 269.843 753.367 270.548C753.367 271.468 753.551 272.204 753.919 272.756C754.287 273.277 754.809 273.538 755.483 273.538ZM786.112 285.13L785.652 278H769V251.412H775.992V273.63H780.5V251.412H787.446V273.63H791.126V285.13H786.112ZM794.337 278V251.412H799.857V266.408L807.033 251.412H812.461V278H806.803V263.096L799.811 278H794.337ZM815.547 278L819.871 266.914C819.104 266.515 818.475 265.979 817.985 265.304C817.494 264.599 817.126 263.771 816.881 262.82C816.635 261.839 816.513 260.796 816.513 259.692C816.513 258.404 816.681 257.254 817.019 256.242C817.387 255.23 817.954 254.371 818.721 253.666C819.518 252.961 820.545 252.409 821.803 252.01C823.091 251.611 824.639 251.412 826.449 251.412H835.327V278H828.427V268.294C828.243 268.294 827.89 268.294 827.369 268.294C826.878 268.263 826.479 268.233 826.173 268.202L822.861 278H815.547ZM828.059 264.246C828.12 264.246 828.181 264.246 828.243 264.246C828.335 264.246 828.396 264.246 828.427 264.246V255.322C828.396 255.322 828.335 255.322 828.243 255.322C828.181 255.322 828.12 255.322 828.059 255.322C826.863 255.322 825.866 255.491 825.069 255.828C824.302 256.135 823.735 256.61 823.367 257.254C822.999 257.867 822.815 258.665 822.815 259.646C822.815 261.179 823.244 262.329 824.103 263.096C824.992 263.832 826.311 264.215 828.059 264.246ZM860.031 278.46C858.129 278.46 856.504 278.123 855.155 277.448C853.805 276.743 852.778 275.731 852.073 274.412C851.398 273.093 851.061 271.453 851.061 269.49V259.922C851.061 257.959 851.398 256.319 852.073 255C852.778 253.681 853.805 252.685 855.155 252.01C856.504 251.305 858.129 250.952 860.031 250.952C861.932 250.952 863.557 251.305 864.907 252.01C866.256 252.685 867.283 253.681 867.989 255C868.694 256.319 869.047 257.959 869.047 259.922V269.49C869.047 271.453 868.694 273.093 867.989 274.412C867.283 275.731 866.256 276.743 864.907 277.448C863.557 278.123 861.932 278.46 860.031 278.46ZM860.077 273.768C860.659 273.768 861.104 273.615 861.411 273.308C861.717 272.971 861.917 272.526 862.009 271.974C862.101 271.391 862.147 270.732 862.147 269.996V259.462C862.147 258.695 862.101 258.036 862.009 257.484C861.917 256.932 861.717 256.487 861.411 256.15C861.104 255.813 860.659 255.644 860.077 255.644C859.494 255.644 859.049 255.813 858.743 256.15C858.436 256.487 858.221 256.932 858.099 257.484C858.007 258.036 857.961 258.695 857.961 259.462V269.996C857.961 270.732 858.007 271.391 858.099 271.974C858.221 272.526 858.436 272.971 858.743 273.308C859.049 273.615 859.494 273.768 860.077 273.768ZM876.08 278V256.196H871.204V251.412H887.856V256.196H882.98V278H876.08ZM905.593 278V256.196H900.717V251.412H917.369V256.196H912.493V278H905.593ZM928.311 278.46C926.348 278.46 924.708 278.107 923.389 277.402C922.07 276.666 921.074 275.608 920.399 274.228C919.724 272.817 919.387 271.131 919.387 269.168V260.244C919.387 258.22 919.724 256.533 920.399 255.184C921.074 253.804 922.086 252.761 923.435 252.056C924.784 251.32 926.41 250.952 928.311 250.952C930.335 250.952 931.976 251.32 933.233 252.056C934.49 252.792 935.41 253.865 935.993 255.276C936.606 256.687 936.913 258.404 936.913 260.428V265.074H926.241V270.226C926.241 270.993 926.318 271.621 926.471 272.112C926.655 272.603 926.9 272.955 927.207 273.17C927.514 273.354 927.897 273.446 928.357 273.446C928.786 273.446 929.154 273.354 929.461 273.17C929.798 272.955 930.044 272.633 930.197 272.204C930.35 271.775 930.427 271.207 930.427 270.502V267.972H936.867V270.18C936.867 272.879 936.131 274.933 934.659 276.344C933.187 277.755 931.071 278.46 928.311 278.46ZM926.241 261.762H930.427V259.14C930.427 258.373 930.35 257.76 930.197 257.3C930.044 256.809 929.798 256.472 929.461 256.288C929.154 256.073 928.756 255.966 928.265 255.966C927.805 255.966 927.422 256.073 927.115 256.288C926.839 256.503 926.624 256.886 926.471 257.438C926.318 257.959 926.241 258.711 926.241 259.692V261.762ZM941.097 286.74V251.412H948.043V253.39C948.871 252.623 949.76 252.025 950.711 251.596C951.692 251.167 952.674 250.952 953.655 250.952C954.728 250.952 955.633 251.197 956.369 251.688C957.105 252.148 957.703 252.777 958.163 253.574C958.623 254.371 958.945 255.261 959.129 256.242C959.313 257.223 959.405 258.22 959.405 259.232V269.628C959.405 271.345 959.19 272.863 958.761 274.182C958.332 275.501 957.672 276.543 956.783 277.31C955.924 278.077 954.805 278.46 953.425 278.46C952.474 278.46 951.539 278.23 950.619 277.77C949.73 277.31 948.871 276.712 948.043 275.976V286.74H941.097ZM950.343 273.814C950.926 273.814 951.355 273.645 951.631 273.308C951.938 272.94 952.152 272.465 952.275 271.882C952.398 271.299 952.459 270.655 952.459 269.95V258.818C952.459 258.174 952.398 257.591 952.275 257.07C952.152 256.549 951.938 256.135 951.631 255.828C951.324 255.491 950.91 255.322 950.389 255.322C949.96 255.322 949.546 255.429 949.147 255.644C948.748 255.828 948.38 256.073 948.043 256.38V273.032C948.411 273.277 948.779 273.477 949.147 273.63C949.515 273.753 949.914 273.814 950.343 273.814ZM963.646 278L963.784 251.412H968.89L974.41 264.936L980.022 251.412H985.128L985.266 278H979.792V263.602L975.514 274.182H973.444L969.12 263.602V278H963.646ZM990.017 278V251.412H995.537V266.408L1002.71 251.412H1008.14V278H1002.48V263.096L995.491 278H990.017ZM1012.88 278V251.412H1019.83V261.9H1024.66V251.412H1031.65V278H1024.66V266.73H1019.83V278H1012.88ZM1041.67 278.46C1040.41 278.46 1039.32 278.138 1038.4 277.494C1037.51 276.85 1036.84 276.037 1036.38 275.056C1035.92 274.075 1035.69 273.063 1035.69 272.02C1035.69 270.364 1036.01 268.969 1036.65 267.834C1037.3 266.699 1038.14 265.749 1039.18 264.982C1040.23 264.215 1041.39 263.556 1042.68 263.004C1043.97 262.452 1045.25 261.946 1046.54 261.486V259.002C1046.54 258.419 1046.5 257.913 1046.4 257.484C1046.31 257.055 1046.13 256.733 1045.85 256.518C1045.61 256.273 1045.24 256.15 1044.75 256.15C1044.26 256.15 1043.87 256.257 1043.6 256.472C1043.35 256.656 1043.17 256.947 1043.05 257.346C1042.95 257.714 1042.89 258.128 1042.86 258.588L1042.72 260.428L1036.15 260.152C1036.3 257.024 1037.11 254.709 1038.58 253.206C1040.09 251.703 1042.34 250.952 1045.35 250.952C1048.05 250.952 1050.04 251.703 1051.33 253.206C1052.61 254.678 1053.26 256.625 1053.26 259.048V271.422C1053.26 272.465 1053.27 273.4 1053.3 274.228C1053.37 275.025 1053.43 275.746 1053.49 276.39C1053.58 277.003 1053.66 277.54 1053.72 278H1047.46C1047.37 277.325 1047.26 276.589 1047.14 275.792C1047.02 274.995 1046.93 274.458 1046.86 274.182C1046.56 275.286 1045.98 276.283 1045.12 277.172C1044.26 278.031 1043.11 278.46 1041.67 278.46ZM1044.2 273.538C1044.53 273.538 1044.86 273.461 1045.16 273.308C1045.47 273.155 1045.73 272.955 1045.94 272.71C1046.19 272.465 1046.39 272.235 1046.54 272.02V264.706C1045.9 265.105 1045.3 265.503 1044.75 265.902C1044.2 266.27 1043.72 266.684 1043.32 267.144C1042.92 267.604 1042.62 268.11 1042.4 268.662C1042.19 269.214 1042.08 269.843 1042.08 270.548C1042.08 271.468 1042.26 272.204 1042.63 272.756C1043 273.277 1043.52 273.538 1044.2 273.538ZM1069.26 278V251.412H1076.21V262.038H1077.36L1081.59 251.412H1089.04L1083.7 264.016L1089.13 278H1081.82L1077.36 266.086H1076.21V278H1069.26ZM523.902 353.13V341.722C524.883 341.201 525.742 340.541 526.478 339.744C527.214 338.947 527.843 337.965 528.364 336.8C528.916 335.604 529.345 334.209 529.652 332.614C529.989 330.989 530.204 329.103 530.296 326.956L530.94 319.412H545.016V341.63H548.742V353.13H543.728L543.222 346H529.376L528.962 353.13H523.902ZM531.262 341.63H538.622V323.69H536.138L535.678 328.612C535.586 330.605 535.417 332.323 535.172 333.764C534.927 335.205 534.605 336.432 534.206 337.444C533.838 338.456 533.393 339.299 532.872 339.974C532.381 340.618 531.845 341.17 531.262 341.63ZM551.916 346V319.412H557.436V334.408L564.612 319.412H570.04V346H564.382V331.096L557.39 346H551.916ZM583.108 346.46C581.145 346.46 579.504 346.092 578.186 345.356C576.867 344.589 575.87 343.516 575.196 342.136C574.552 340.756 574.23 339.115 574.23 337.214V328.244C574.23 326.251 574.552 324.579 575.196 323.23C575.87 321.85 576.867 320.792 578.186 320.056C579.504 319.32 581.145 318.952 583.108 318.952C585.009 318.952 586.604 319.259 587.892 319.872C589.18 320.455 590.13 321.344 590.744 322.54C591.388 323.736 591.71 325.239 591.71 327.048V329.578H585.086V326.864C585.086 326.067 585.009 325.453 584.856 325.024C584.733 324.564 584.518 324.242 584.212 324.058C583.936 323.874 583.568 323.782 583.108 323.782C582.648 323.782 582.28 323.905 582.004 324.15C581.728 324.365 581.528 324.748 581.406 325.3C581.283 325.821 581.222 326.557 581.222 327.508V337.95C581.222 339.391 581.375 340.373 581.682 340.894C582.019 341.385 582.51 341.63 583.154 341.63C583.644 341.63 584.028 341.523 584.304 341.308C584.58 341.093 584.779 340.756 584.902 340.296C585.024 339.836 585.086 339.253 585.086 338.548V335.328H591.71V338.226C591.71 340.005 591.388 341.523 590.744 342.78C590.1 344.007 589.134 344.927 587.846 345.54C586.558 346.153 584.978 346.46 583.108 346.46ZM595.76 346V319.412H602.706V330.038H603.856L608.088 319.412H615.54L610.204 332.016L615.632 346H608.318L603.856 334.086H602.706V346H595.76ZM618.861 353.498V348.622C619.873 348.622 620.701 348.561 621.345 348.438C621.989 348.315 622.464 348.085 622.771 347.748C623.108 347.441 623.277 346.997 623.277 346.414C623.277 345.954 623.169 345.325 622.955 344.528C622.771 343.731 622.556 342.841 622.311 341.86L616.239 319.412H622.817L626.221 335.742L628.981 319.412H635.605L629.441 346.828C629.073 348.545 628.459 349.879 627.601 350.83C626.773 351.811 625.745 352.501 624.519 352.9C623.323 353.299 621.927 353.498 620.333 353.498H618.861ZM638.436 354.74V319.412H645.382V321.39C646.21 320.623 647.099 320.025 648.05 319.596C649.031 319.167 650.013 318.952 650.994 318.952C652.067 318.952 652.972 319.197 653.708 319.688C654.444 320.148 655.042 320.777 655.502 321.574C655.962 322.371 656.284 323.261 656.468 324.242C656.652 325.223 656.744 326.22 656.744 327.232V337.628C656.744 339.345 656.529 340.863 656.1 342.182C655.671 343.501 655.011 344.543 654.122 345.31C653.263 346.077 652.144 346.46 650.764 346.46C649.813 346.46 648.878 346.23 647.958 345.77C647.069 345.31 646.21 344.712 645.382 343.976V354.74H638.436ZM647.682 341.814C648.265 341.814 648.694 341.645 648.97 341.308C649.277 340.94 649.491 340.465 649.614 339.882C649.737 339.299 649.798 338.655 649.798 337.95V326.818C649.798 326.174 649.737 325.591 649.614 325.07C649.491 324.549 649.277 324.135 648.97 323.828C648.663 323.491 648.249 323.322 647.728 323.322C647.299 323.322 646.885 323.429 646.486 323.644C646.087 323.828 645.719 324.073 645.382 324.38V341.032C645.75 341.277 646.118 341.477 646.486 341.63C646.854 341.753 647.253 341.814 647.682 341.814ZM669.403 346.46C667.44 346.46 665.799 346.092 664.481 345.356C663.162 344.589 662.165 343.516 661.491 342.136C660.847 340.756 660.525 339.115 660.525 337.214V328.244C660.525 326.251 660.847 324.579 661.491 323.23C662.165 321.85 663.162 320.792 664.481 320.056C665.799 319.32 667.44 318.952 669.403 318.952C671.304 318.952 672.899 319.259 674.187 319.872C675.475 320.455 676.425 321.344 677.039 322.54C677.683 323.736 678.005 325.239 678.005 327.048V329.578H671.381V326.864C671.381 326.067 671.304 325.453 671.151 325.024C671.028 324.564 670.813 324.242 670.507 324.058C670.231 323.874 669.863 323.782 669.403 323.782C668.943 323.782 668.575 323.905 668.299 324.15C668.023 324.365 667.823 324.748 667.701 325.3C667.578 325.821 667.517 326.557 667.517 327.508V337.95C667.517 339.391 667.67 340.373 667.977 340.894C668.314 341.385 668.805 341.63 669.449 341.63C669.939 341.63 670.323 341.523 670.599 341.308C670.875 341.093 671.074 340.756 671.197 340.296C671.319 339.836 671.381 339.253 671.381 338.548V335.328H678.005V338.226C678.005 340.005 677.683 341.523 677.039 342.78C676.395 344.007 675.429 344.927 674.141 345.54C672.853 346.153 671.273 346.46 669.403 346.46ZM682.515 353.498V348.622C683.527 348.622 684.355 348.561 684.999 348.438C685.643 348.315 686.118 348.085 686.425 347.748C686.762 347.441 686.931 346.997 686.931 346.414C686.931 345.954 686.824 345.325 686.609 344.528C686.425 343.731 686.21 342.841 685.965 341.86L679.893 319.412H686.471L689.875 335.742L692.635 319.412H699.259L693.095 346.828C692.727 348.545 692.114 349.879 691.255 350.83C690.427 351.811 689.4 352.501 688.173 352.9C686.977 353.299 685.582 353.498 683.987 353.498H682.515ZM701.906 344.252V337.306L706.552 332.246L701.906 327.278V320.332L710.784 331.004V333.534L701.906 344.252ZM711.612 344.252V337.306L716.258 332.246L711.612 327.278V320.332L720.49 331.004V333.534L711.612 344.252Z" fill="white"/>
<g filter="url(#filter0_dii_150_41)">
<rect x="200.088" y="193.985" width="172.504" height="154.757" rx="40" transform="rotate(-45 200.088 193.985)" fill="#A9EB9F"/>
</g>
<g filter="url(#filter1_dii_150_41)">
<rect x="-14" y="69.6221" width="147.958" height="132.736" rx="40" transform="rotate(-45 -14 69.6221)" fill="#A9EB9F"/>
</g>
<g filter="url(#filter2_dii_150_41)">
<rect x="115" y="-60.3779" width="147.958" height="132.736" rx="40" transform="rotate(-45 115 -60.3779)" fill="#A9EB9F"/>
</g>
<g filter="url(#filter3_dii_150_41)">
<rect x="583.903" y="121.863" width="147.958" height="132.736" rx="40" transform="rotate(-45 583.903 121.863)" fill="#A9EB9F"/>
</g>
<g filter="url(#filter4_dii_150_41)">
<rect x="459.059" y="245.32" width="147.958" height="132.736" rx="40" transform="rotate(-45 459.059 245.32)" fill="#A9FF94"/>
</g>
<g filter="url(#filter5_dii_150_41)">
<rect x="303.583" y="383.623" width="147.958" height="132.736" rx="40" transform="rotate(-45 303.583 383.623)" fill="#A9EB9F"/>
</g>
<g filter="url(#filter6_dii_150_41)">
<rect x="361.132" y="54.6904" width="171.102" height="153.499" rx="40" transform="rotate(-45 361.132 54.6904)" fill="#A9EB9F"/>
</g>
<g filter="url(#filter7_dii_150_41)">
<rect x="79" y="520.623" width="147.958" height="132.736" rx="40" transform="rotate(-45 79 520.623)" fill="#A9EB9F"/>
</g>
<g filter="url(#filter8_dii_150_41)">
<rect x="887" y="434.624" width="147.958" height="132.736" rx="40" transform="rotate(-45 887 434.624)" fill="#A9EB9F"/>
</g>
<g filter="url(#filter9_dii_150_41)">
<rect x="1199" y="427.624" width="147.958" height="132.736" rx="40" transform="rotate(-45 1199 427.624)" fill="#A9EB9F"/>
</g>
<g filter="url(#filter10_dii_150_41)">
<rect x="712.923" y="8.62207" width="147.958" height="132.736" rx="40" transform="rotate(-45 712.923 8.62207)" fill="#A9EB9F"/>
</g>
<g filter="url(#filter11_dii_150_41)">
<rect x="311.009" y="654.439" width="504.041" height="418.053" rx="40" transform="rotate(-45 311.009 654.439)" fill="#A9EB9F"/>
</g>
<g filter="url(#filter12_dii_150_41)">
<rect x="894" y="127.333" width="304.528" height="344.596" rx="40" transform="rotate(-45 894 127.333)" fill="#A9EB9F"/>
</g>
<rect x="739.31" y="443.038" width="131.658" height="105.474" rx="32.5" transform="rotate(-45 739.31 443.038)" fill="#A9EB9F" stroke="url(#paint0_radial_150_41)" stroke-width="15"/>
<rect x="870.652" y="170.698" width="129.823" height="114.956" rx="32.5" transform="rotate(-45 870.652 170.698)" fill="#A9EB9F" stroke="url(#paint1_radial_150_41)" stroke-width="15"/>
<rect x="417.221" y="48.1211" width="92.992" height="89.6632" rx="32.5" transform="rotate(-45 417.221 48.1211)" fill="#A9EB9F" stroke="url(#paint2_radial_150_41)" stroke-width="15"/>
<rect x="240.861" y="199.034" width="128.542" height="103.95" rx="32.5" transform="rotate(-45 240.861 199.034)" fill="#A9EB9F" stroke="url(#paint3_radial_150_41)" stroke-width="15"/>
<g filter="url(#filter13_dii_150_41)">
<rect x="-66" y="400.979" width="172.504" height="154.757" rx="40" transform="rotate(-45 -66 400.979)" fill="#A9EB9F"/>
</g>
<rect x="-71" y="348.007" width="547.309" height="9.46101" rx="4.7305" transform="rotate(-45 -71 348.007)" fill="url(#paint4_radial_150_41)"/>
<rect x="-79.498" y="106" width="608.837" height="9.1955" rx="4.59775" transform="rotate(45 -79.498 106)" fill="url(#paint5_radial_150_41)"/>
<rect x="1315.35" y="271.784" width="318.419" height="12.5268" rx="6.26342" transform="rotate(134.51 1315.35 271.784)" fill="url(#paint6_radial_150_41)"/>
<rect x="989.173" y="292.002" width="287.311" height="12.5268" rx="6.26342" transform="rotate(40.7338 989.173 292.002)" fill="url(#paint7_radial_150_41)"/>
<g filter="url(#filter14_dii_150_41)">
<rect x="78" y="236.001" width="765.09" height="765.09" rx="40" transform="rotate(-45 78 236.001)" fill="#DDF3D9"/>
</g>
<rect x="182.609" y="236.116" width="617.312" height="617.312" rx="35" transform="rotate(-45 182.609 236.116)" fill="white" stroke="url(#paint8_radial_150_41)" stroke-width="10"/>
<rect x="-4.3934" y="230.117" width="67.1894" height="64.9273" rx="32.4637" transform="rotate(-45 -4.3934 230.117)" fill="#A9EB9F" stroke="url(#paint9_radial_150_41)" stroke-width="15"/>
<rect x="1098.61" y="432.117" width="67.1894" height="64.9273" rx="32.4637" transform="rotate(-45 1098.61 432.117)" fill="#A9EB9F" stroke="url(#paint10_radial_150_41)" stroke-width="15"/>
</g>
<defs>
<filter id="filter0_dii_150_41" x="206.656" y="78.5747" width="238.271" height="243.271" filterUnits="userSpaceOnUse" color-interpolation-filters="sRGB">
<feFlood flood-opacity="0" result="BackgroundImageFix"/>
<feColorMatrix in="SourceAlpha" type="matrix" values="0 0 0 0 0 0 0 0 0 0 0 0 0 0 0 0 0 0 127 0" result="hardAlpha"/>
<feOffset dx="10" dy="15"/>
<feGaussianBlur stdDeviation="10"/>
<feComposite in2="hardAlpha" operator="out"/>
<feColorMatrix type="matrix" values="0 0 0 0 0.0117647 0 0 0 0 0.54902 0 0 0 0 0.396078 0 0 0 0.38 0"/>
<feBlend mode="normal" in2="BackgroundImageFix" result="effect1_dropShadow_150_41"/>
<feBlend mode="normal" in="SourceGraphic" in2="effect1_dropShadow_150_41" result="shape"/>
<feColorMatrix in="SourceAlpha" type="matrix" values="0 0 0 0 0 0 0 0 0 0 0 0 0 0 0 0 0 0 127 0" result="hardAlpha"/>
<feOffset dx="10" dy="10"/>
<feGaussianBlur stdDeviation="10"/>
<feComposite in2="hardAlpha" operator="arithmetic" k2="-1" k3="1"/>
<feColorMatrix type="matrix" values="0 0 0 0 0.0117647 0 0 0 0 0.54902 0 0 0 0 0.396078 0 0 0 0.47 0"/>
<feBlend mode="normal" in2="shape" result="effect2_innerShadow_150_41"/>
<feColorMatrix in="SourceAlpha" type="matrix" values="0 0 0 0 0 0 0 0 0 0 0 0 0 0 0 0 0 0 127 0" result="hardAlpha"/>
<feOffset dx="-10" dy="-10"/>
<feGaussianBlur stdDeviation="10"/>
<feComposite in2="hardAlpha" operator="arithmetic" k2="-1" k3="1"/>
<feColorMatrix type="matrix" values="0 0 0 0 0.662745 0 0 0 0 0.921569 0 0 0 0 0.623529 0 0 0 1 0"/>
<feBlend mode="normal" in2="effect2_innerShadow_150_41" result="effect3_innerShadow_150_41"/>
</filter>
<filter id="filter1_dii_150_41" x="-7.43164" y="-28.4316" width="205.344" height="210.343" filterUnits="userSpaceOnUse" color-interpolation-filters="sRGB">
<feFlood flood-opacity="0" result="BackgroundImageFix"/>
<feColorMatrix in="SourceAlpha" type="matrix" values="0 0 0 0 0 0 0 0 0 0 0 0 0 0 0 0 0 0 127 0" result="hardAlpha"/>
<feOffset dx="10" dy="15"/>
<feGaussianBlur stdDeviation="10"/>
<feComposite in2="hardAlpha" operator="out"/>
<feColorMatrix type="matrix" values="0 0 0 0 0.0117647 0 0 0 0 0.54902 0 0 0 0 0.396078 0 0 0 0.38 0"/>
<feBlend mode="normal" in2="BackgroundImageFix" result="effect1_dropShadow_150_41"/>
<feBlend mode="normal" in="SourceGraphic" in2="effect1_dropShadow_150_41" result="shape"/>
<feColorMatrix in="SourceAlpha" type="matrix" values="0 0 0 0 0 0 0 0 0 0 0 0 0 0 0 0 0 0 127 0" result="hardAlpha"/>
<feOffset dx="10" dy="10"/>
<feGaussianBlur stdDeviation="10"/>
<feComposite in2="hardAlpha" operator="arithmetic" k2="-1" k3="1"/>
<feColorMatrix type="matrix" values="0 0 0 0 0.0117647 0 0 0 0 0.54902 0 0 0 0 0.396078 0 0 0 0.47 0"/>
<feBlend mode="normal" in2="shape" result="effect2_innerShadow_150_41"/>
<feColorMatrix in="SourceAlpha" type="matrix" values="0 0 0 0 0 0 0 0 0 0 0 0 0 0 0 0 0 0 127 0" result="hardAlpha"/>
<feOffset dx="-10" dy="-10"/>
<feGaussianBlur stdDeviation="10"/>
<feComposite in2="hardAlpha" operator="arithmetic" k2="-1" k3="1"/>
<feColorMatrix type="matrix" values="0 0 0 0 0.662745 0 0 0 0 0.921569 0 0 0 0 0.623529 0 0 0 1 0"/>
<feBlend mode="normal" in2="effect2_innerShadow_150_41" result="effect3_innerShadow_150_41"/>
</filter>
<filter id="filter2_dii_150_41" x="121.568" y="-158.432" width="205.344" height="210.343" filterUnits="userSpaceOnUse" color-interpolation-filters="sRGB">
<feFlood flood-opacity="0" result="BackgroundImageFix"/>
<feColorMatrix in="SourceAlpha" type="matrix" values="0 0 0 0 0 0 0 0 0 0 0 0 0 0 0 0 0 0 127 0" result="hardAlpha"/>
<feOffset dx="10" dy="15"/>
<feGaussianBlur stdDeviation="10"/>
<feComposite in2="hardAlpha" operator="out"/>
<feColorMatrix type="matrix" values="0 0 0 0 0.0117647 0 0 0 0 0.54902 0 0 0 0 0.396078 0 0 0 0.38 0"/>
<feBlend mode="normal" in2="BackgroundImageFix" result="effect1_dropShadow_150_41"/>
<feBlend mode="normal" in="SourceGraphic" in2="effect1_dropShadow_150_41" result="shape"/>
<feColorMatrix in="SourceAlpha" type="matrix" values="0 0 0 0 0 0 0 0 0 0 0 0 0 0 0 0 0 0 127 0" result="hardAlpha"/>
<feOffset dx="10" dy="10"/>
<feGaussianBlur stdDeviation="10"/>
<feComposite in2="hardAlpha" operator="arithmetic" k2="-1" k3="1"/>
<feColorMatrix type="matrix" values="0 0 0 0 0.0117647 0 0 0 0 0.54902 0 0 0 0 0.396078 0 0 0 0.47 0"/>
<feBlend mode="normal" in2="shape" result="effect2_innerShadow_150_41"/>
<feColorMatrix in="SourceAlpha" type="matrix" values="0 0 0 0 0 0 0 0 0 0 0 0 0 0 0 0 0 0 127 0" result="hardAlpha"/>
<feOffset dx="-10" dy="-10"/>
<feGaussianBlur stdDeviation="10"/>
<feComposite in2="hardAlpha" operator="arithmetic" k2="-1" k3="1"/>
<feColorMatrix type="matrix" values="0 0 0 0 0.662745 0 0 0 0 0.921569 0 0 0 0 0.623529 0 0 0 1 0"/>
<feBlend mode="normal" in2="effect2_innerShadow_150_41" result="effect3_innerShadow_150_41"/>
</filter>
<filter id="filter3_dii_150_41" x="590.471" y="23.8096" width="205.344" height="210.343" filterUnits="userSpaceOnUse" color-interpolation-filters="sRGB">
<feFlood flood-opacity="0" result="BackgroundImageFix"/>
<feColorMatrix in="SourceAlpha" type="matrix" values="0 0 0 0 0 0 0 0 0 0 0 0 0 0 0 0 0 0 127 0" result="hardAlpha"/>
<feOffset dx="10" dy="15"/>
<feGaussianBlur stdDeviation="10"/>
<feComposite in2="hardAlpha" operator="out"/>
<feColorMatrix type="matrix" values="0 0 0 0 0.0117647 0 0 0 0 0.54902 0 0 0 0 0.396078 0 0 0 0.38 0"/>
<feBlend mode="normal" in2="BackgroundImageFix" result="effect1_dropShadow_150_41"/>
<feBlend mode="normal" in="SourceGraphic" in2="effect1_dropShadow_150_41" result="shape"/>
<feColorMatrix in="SourceAlpha" type="matrix" values="0 0 0 0 0 0 0 0 0 0 0 0 0 0 0 0 0 0 127 0" result="hardAlpha"/>
<feOffset dx="10" dy="10"/>
<feGaussianBlur stdDeviation="10"/>
<feComposite in2="hardAlpha" operator="arithmetic" k2="-1" k3="1"/>
<feColorMatrix type="matrix" values="0 0 0 0 0.0117647 0 0 0 0 0.54902 0 0 0 0 0.396078 0 0 0 0.47 0"/>
<feBlend mode="normal" in2="shape" result="effect2_innerShadow_150_41"/>
<feColorMatrix in="SourceAlpha" type="matrix" values="0 0 0 0 0 0 0 0 0 0 0 0 0 0 0 0 0 0 127 0" result="hardAlpha"/>
<feOffset dx="-10" dy="-10"/>
<feGaussianBlur stdDeviation="10"/>
<feComposite in2="hardAlpha" operator="arithmetic" k2="-1" k3="1"/>
<feColorMatrix type="matrix" values="0 0 0 0 0.662745 0 0 0 0 0.921569 0 0 0 0 0.623529 0 0 0 1 0"/>
<feBlend mode="normal" in2="effect2_innerShadow_150_41" result="effect3_innerShadow_150_41"/>
</filter>
<filter id="filter4_dii_150_41" x="465.627" y="147.267" width="205.344" height="210.343" filterUnits="userSpaceOnUse" color-interpolation-filters="sRGB">
<feFlood flood-opacity="0" result="BackgroundImageFix"/>
<feColorMatrix in="SourceAlpha" type="matrix" values="0 0 0 0 0 0 0 0 0 0 0 0 0 0 0 0 0 0 127 0" result="hardAlpha"/>
<feOffset dx="10" dy="15"/>
<feGaussianBlur stdDeviation="10"/>
<feComposite in2="hardAlpha" operator="out"/>
<feColorMatrix type="matrix" values="0 0 0 0 0 0 0 0 0 0.916667 0 0 0 0 0.201667 0 0 0 0.28 0"/>
<feBlend mode="normal" in2="BackgroundImageFix" result="effect1_dropShadow_150_41"/>
<feBlend mode="normal" in="SourceGraphic" in2="effect1_dropShadow_150_41" result="shape"/>
<feColorMatrix in="SourceAlpha" type="matrix" values="0 0 0 0 0 0 0 0 0 0 0 0 0 0 0 0 0 0 127 0" result="hardAlpha"/>
<feOffset dx="10" dy="10"/>
<feGaussianBlur stdDeviation="10"/>
<feComposite in2="hardAlpha" operator="arithmetic" k2="-1" k3="1"/>
<feColorMatrix type="matrix" values="0 0 0 0 0 0 0 0 0 0.629167 0 0 0 0 0.176167 0 0 0 0.47 0"/>
<feBlend mode="normal" in2="shape" result="effect2_innerShadow_150_41"/>
<feColorMatrix in="SourceAlpha" type="matrix" values="0 0 0 0 0 0 0 0 0 0 0 0 0 0 0 0 0 0 127 0" result="hardAlpha"/>
<feOffset dx="-10" dy="-10"/>
<feGaussianBlur stdDeviation="10"/>
<feComposite in2="hardAlpha" operator="arithmetic" k2="-1" k3="1"/>
<feColorMatrix type="matrix" values="0 0 0 0 0.785 0 0 0 0 0.9484 0 0 0 0 1 0 0 0 1 0"/>
<feBlend mode="normal" in2="effect2_innerShadow_150_41" result="effect3_innerShadow_150_41"/>
</filter>
<filter id="filter5_dii_150_41" x="310.152" y="285.569" width="205.344" height="210.343" filterUnits="userSpaceOnUse" color-interpolation-filters="sRGB">
<feFlood flood-opacity="0" result="BackgroundImageFix"/>
<feColorMatrix in="SourceAlpha" type="matrix" values="0 0 0 0 0 0 0 0 0 0 0 0 0 0 0 0 0 0 127 0" result="hardAlpha"/>
<feOffset dx="10" dy="15"/>
<feGaussianBlur stdDeviation="10"/>
<feComposite in2="hardAlpha" operator="out"/>
<feColorMatrix type="matrix" values="0 0 0 0 0.0117647 0 0 0 0 0.54902 0 0 0 0 0.396078 0 0 0 0.38 0"/>
<feBlend mode="normal" in2="BackgroundImageFix" result="effect1_dropShadow_150_41"/>
<feBlend mode="normal" in="SourceGraphic" in2="effect1_dropShadow_150_41" result="shape"/>
<feColorMatrix in="SourceAlpha" type="matrix" values="0 0 0 0 0 0 0 0 0 0 0 0 0 0 0 0 0 0 127 0" result="hardAlpha"/>
<feOffset dx="10" dy="10"/>
<feGaussianBlur stdDeviation="10"/>
<feComposite in2="hardAlpha" operator="arithmetic" k2="-1" k3="1"/>
<feColorMatrix type="matrix" values="0 0 0 0 0.0117647 0 0 0 0 0.54902 0 0 0 0 0.396078 0 0 0 0.47 0"/>
<feBlend mode="normal" in2="shape" result="effect2_innerShadow_150_41"/>
<feColorMatrix in="SourceAlpha" type="matrix" values="0 0 0 0 0 0 0 0 0 0 0 0 0 0 0 0 0 0 127 0" result="hardAlpha"/>
<feOffset dx="-10" dy="-10"/>
<feGaussianBlur stdDeviation="10"/>
<feComposite in2="hardAlpha" operator="arithmetic" k2="-1" k3="1"/>
<feColorMatrix type="matrix" values="0 0 0 0 0.662745 0 0 0 0 0.921569 0 0 0 0 0.623529 0 0 0 1 0"/>
<feBlend mode="normal" in2="effect2_innerShadow_150_41" result="effect3_innerShadow_150_41"/>
</filter>
<filter id="filter6_dii_150_41" x="367.701" y="-59.7285" width="236.391" height="241.391" filterUnits="userSpaceOnUse" color-interpolation-filters="sRGB">
<feFlood flood-opacity="0" result="BackgroundImageFix"/>
<feColorMatrix in="SourceAlpha" type="matrix" values="0 0 0 0 0 0 0 0 0 0 0 0 0 0 0 0 0 0 127 0" result="hardAlpha"/>
<feOffset dx="10" dy="15"/>
<feGaussianBlur stdDeviation="10"/>
<feComposite in2="hardAlpha" operator="out"/>
<feColorMatrix type="matrix" values="0 0 0 0 0.0117647 0 0 0 0 0.54902 0 0 0 0 0.396078 0 0 0 0.38 0"/>
<feBlend mode="normal" in2="BackgroundImageFix" result="effect1_dropShadow_150_41"/>
<feBlend mode="normal" in="SourceGraphic" in2="effect1_dropShadow_150_41" result="shape"/>
<feColorMatrix in="SourceAlpha" type="matrix" values="0 0 0 0 0 0 0 0 0 0 0 0 0 0 0 0 0 0 127 0" result="hardAlpha"/>
<feOffset dx="10" dy="10"/>
<feGaussianBlur stdDeviation="10"/>
<feComposite in2="hardAlpha" operator="arithmetic" k2="-1" k3="1"/>
<feColorMatrix type="matrix" values="0 0 0 0 0.0117647 0 0 0 0 0.54902 0 0 0 0 0.396078 0 0 0 0.47 0"/>
<feBlend mode="normal" in2="shape" result="effect2_innerShadow_150_41"/>
<feColorMatrix in="SourceAlpha" type="matrix" values="0 0 0 0 0 0 0 0 0 0 0 0 0 0 0 0 0 0 127 0" result="hardAlpha"/>
<feOffset dx="-10" dy="-10"/>
<feGaussianBlur stdDeviation="10"/>
<feComposite in2="hardAlpha" operator="arithmetic" k2="-1" k3="1"/>
<feColorMatrix type="matrix" values="0 0 0 0 0.662745 0 0 0 0 0.921569 0 0 0 0 0.623529 0 0 0 1 0"/>
<feBlend mode="normal" in2="effect2_innerShadow_150_41" result="effect3_innerShadow_150_41"/>
</filter>
<filter id="filter7_dii_150_41" x="85.5684" y="422.569" width="205.344" height="210.343" filterUnits="userSpaceOnUse" color-interpolation-filters="sRGB">
<feFlood flood-opacity="0" result="BackgroundImageFix"/>
<feColorMatrix in="SourceAlpha" type="matrix" values="0 0 0 0 0 0 0 0 0 0 0 0 0 0 0 0 0 0 127 0" result="hardAlpha"/>
<feOffset dx="10" dy="15"/>
<feGaussianBlur stdDeviation="10"/>
<feComposite in2="hardAlpha" operator="out"/>
<feColorMatrix type="matrix" values="0 0 0 0 0.0117647 0 0 0 0 0.54902 0 0 0 0 0.396078 0 0 0 0.38 0"/>
<feBlend mode="normal" in2="BackgroundImageFix" result="effect1_dropShadow_150_41"/>
<feBlend mode="normal" in="SourceGraphic" in2="effect1_dropShadow_150_41" result="shape"/>
<feColorMatrix in="SourceAlpha" type="matrix" values="0 0 0 0 0 0 0 0 0 0 0 0 0 0 0 0 0 0 127 0" result="hardAlpha"/>
<feOffset dx="10" dy="10"/>
<feGaussianBlur stdDeviation="10"/>
<feComposite in2="hardAlpha" operator="arithmetic" k2="-1" k3="1"/>
<feColorMatrix type="matrix" values="0 0 0 0 0.0117647 0 0 0 0 0.54902 0 0 0 0 0.396078 0 0 0 0.47 0"/>
<feBlend mode="normal" in2="shape" result="effect2_innerShadow_150_41"/>
<feColorMatrix in="SourceAlpha" type="matrix" values="0 0 0 0 0 0 0 0 0 0 0 0 0 0 0 0 0 0 127 0" result="hardAlpha"/>
<feOffset dx="-10" dy="-10"/>
<feGaussianBlur stdDeviation="10"/>
<feComposite in2="hardAlpha" operator="arithmetic" k2="-1" k3="1"/>
<feColorMatrix type="matrix" values="0 0 0 0 0.662745 0 0 0 0 0.921569 0 0 0 0 0.623529 0 0 0 1 0"/>
<feBlend mode="normal" in2="effect2_innerShadow_150_41" result="effect3_innerShadow_150_41"/>
</filter>
<filter id="filter8_dii_150_41" x="893.568" y="336.57" width="205.344" height="210.343" filterUnits="userSpaceOnUse" color-interpolation-filters="sRGB">
<feFlood flood-opacity="0" result="BackgroundImageFix"/>
<feColorMatrix in="SourceAlpha" type="matrix" values="0 0 0 0 0 0 0 0 0 0 0 0 0 0 0 0 0 0 127 0" result="hardAlpha"/>
<feOffset dx="10" dy="15"/>
<feGaussianBlur stdDeviation="10"/>
<feComposite in2="hardAlpha" operator="out"/>
<feColorMatrix type="matrix" values="0 0 0 0 0.0117647 0 0 0 0 0.54902 0 0 0 0 0.396078 0 0 0 0.38 0"/>
<feBlend mode="normal" in2="BackgroundImageFix" result="effect1_dropShadow_150_41"/>
<feBlend mode="normal" in="SourceGraphic" in2="effect1_dropShadow_150_41" result="shape"/>
<feColorMatrix in="SourceAlpha" type="matrix" values="0 0 0 0 0 0 0 0 0 0 0 0 0 0 0 0 0 0 127 0" result="hardAlpha"/>
<feOffset dx="10" dy="10"/>
<feGaussianBlur stdDeviation="10"/>
<feComposite in2="hardAlpha" operator="arithmetic" k2="-1" k3="1"/>
<feColorMatrix type="matrix" values="0 0 0 0 0.0117647 0 0 0 0 0.54902 0 0 0 0 0.396078 0 0 0 0.47 0"/>
<feBlend mode="normal" in2="shape" result="effect2_innerShadow_150_41"/>
<feColorMatrix in="SourceAlpha" type="matrix" values="0 0 0 0 0 0 0 0 0 0 0 0 0 0 0 0 0 0 127 0" result="hardAlpha"/>
<feOffset dx="-10" dy="-10"/>
<feGaussianBlur stdDeviation="10"/>
<feComposite in2="hardAlpha" operator="arithmetic" k2="-1" k3="1"/>
<feColorMatrix type="matrix" values="0 0 0 0 0.662745 0 0 0 0 0.921569 0 0 0 0 0.623529 0 0 0 1 0"/>
<feBlend mode="normal" in2="effect2_innerShadow_150_41" result="effect3_innerShadow_150_41"/>
</filter>
<filter id="filter9_dii_150_41" x="1205.57" y="329.57" width="205.344" height="210.343" filterUnits="userSpaceOnUse" color-interpolation-filters="sRGB">
<feFlood flood-opacity="0" result="BackgroundImageFix"/>
<feColorMatrix in="SourceAlpha" type="matrix" values="0 0 0 0 0 0 0 0 0 0 0 0 0 0 0 0 0 0 127 0" result="hardAlpha"/>
<feOffset dx="10" dy="15"/>
<feGaussianBlur stdDeviation="10"/>
<feComposite in2="hardAlpha" operator="out"/>
<feColorMatrix type="matrix" values="0 0 0 0 0.0117647 0 0 0 0 0.54902 0 0 0 0 0.396078 0 0 0 0.38 0"/>
<feBlend mode="normal" in2="BackgroundImageFix" result="effect1_dropShadow_150_41"/>
<feBlend mode="normal" in="SourceGraphic" in2="effect1_dropShadow_150_41" result="shape"/>
<feColorMatrix in="SourceAlpha" type="matrix" values="0 0 0 0 0 0 0 0 0 0 0 0 0 0 0 0 0 0 127 0" result="hardAlpha"/>
<feOffset dx="10" dy="10"/>
<feGaussianBlur stdDeviation="10"/>
<feComposite in2="hardAlpha" operator="arithmetic" k2="-1" k3="1"/>
<feColorMatrix type="matrix" values="0 0 0 0 0.0117647 0 0 0 0 0.54902 0 0 0 0 0.396078 0 0 0 0.47 0"/>
<feBlend mode="normal" in2="shape" result="effect2_innerShadow_150_41"/>
<feColorMatrix in="SourceAlpha" type="matrix" values="0 0 0 0 0 0 0 0 0 0 0 0 0 0 0 0 0 0 127 0" result="hardAlpha"/>
<feOffset dx="-10" dy="-10"/>
<feGaussianBlur stdDeviation="10"/>
<feComposite in2="hardAlpha" operator="arithmetic" k2="-1" k3="1"/>
<feColorMatrix type="matrix" values="0 0 0 0 0.662745 0 0 0 0 0.921569 0 0 0 0 0.623529 0 0 0 1 0"/>
<feBlend mode="normal" in2="effect2_innerShadow_150_41" result="effect3_innerShadow_150_41"/>
</filter>
<filter id="filter10_dii_150_41" x="719.492" y="-89.4316" width="205.344" height="210.343" filterUnits="userSpaceOnUse" color-interpolation-filters="sRGB">
<feFlood flood-opacity="0" result="BackgroundImageFix"/>
<feColorMatrix in="SourceAlpha" type="matrix" values="0 0 0 0 0 0 0 0 0 0 0 0 0 0 0 0 0 0 127 0" result="hardAlpha"/>
<feOffset dx="10" dy="15"/>
<feGaussianBlur stdDeviation="10"/>
<feComposite in2="hardAlpha" operator="out"/>
<feColorMatrix type="matrix" values="0 0 0 0 0.0117647 0 0 0 0 0.54902 0 0 0 0 0.396078 0 0 0 0.38 0"/>
<feBlend mode="normal" in2="BackgroundImageFix" result="effect1_dropShadow_150_41"/>
<feBlend mode="normal" in="SourceGraphic" in2="effect1_dropShadow_150_41" result="shape"/>
<feColorMatrix in="SourceAlpha" type="matrix" values="0 0 0 0 0 0 0 0 0 0 0 0 0 0 0 0 0 0 127 0" result="hardAlpha"/>
<feOffset dx="10" dy="10"/>
<feGaussianBlur stdDeviation="10"/>
<feComposite in2="hardAlpha" operator="arithmetic" k2="-1" k3="1"/>
<feColorMatrix type="matrix" values="0 0 0 0 0.0117647 0 0 0 0 0.54902 0 0 0 0 0.396078 0 0 0 0.47 0"/>
<feBlend mode="normal" in2="shape" result="effect2_innerShadow_150_41"/>
<feColorMatrix in="SourceAlpha" type="matrix" values="0 0 0 0 0 0 0 0 0 0 0 0 0 0 0 0 0 0 127 0" result="hardAlpha"/>
<feOffset dx="-10" dy="-10"/>
<feGaussianBlur stdDeviation="10"/>
<feComposite in2="hardAlpha" operator="arithmetic" k2="-1" k3="1"/>
<feColorMatrix type="matrix" values="0 0 0 0 0.662745 0 0 0 0 0.921569 0 0 0 0 0.623529 0 0 0 1 0"/>
<feBlend mode="normal" in2="effect2_innerShadow_150_41" result="effect3_innerShadow_150_41"/>
</filter>
<filter id="filter11_dii_150_41" x="317.577" y="304.598" width="658.881" height="663.881" filterUnits="userSpaceOnUse" color-interpolation-filters="sRGB">
<feFlood flood-opacity="0" result="BackgroundImageFix"/>
<feColorMatrix in="SourceAlpha" type="matrix" values="0 0 0 0 0 0 0 0 0 0 0 0 0 0 0 0 0 0 127 0" result="hardAlpha"/>
<feOffset dx="10" dy="15"/>
<feGaussianBlur stdDeviation="10"/>
<feComposite in2="hardAlpha" operator="out"/>
<feColorMatrix type="matrix" values="0 0 0 0 0.0117647 0 0 0 0 0.54902 0 0 0 0 0.396078 0 0 0 0.38 0"/>
<feBlend mode="normal" in2="BackgroundImageFix" result="effect1_dropShadow_150_41"/>
<feBlend mode="normal" in="SourceGraphic" in2="effect1_dropShadow_150_41" result="shape"/>
<feColorMatrix in="SourceAlpha" type="matrix" values="0 0 0 0 0 0 0 0 0 0 0 0 0 0 0 0 0 0 127 0" result="hardAlpha"/>
<feOffset dx="10" dy="10"/>
<feGaussianBlur stdDeviation="10"/>
<feComposite in2="hardAlpha" operator="arithmetic" k2="-1" k3="1"/>
<feColorMatrix type="matrix" values="0 0 0 0 0.0117647 0 0 0 0 0.54902 0 0 0 0 0.396078 0 0 0 0.47 0"/>
<feBlend mode="normal" in2="shape" result="effect2_innerShadow_150_41"/>
<feColorMatrix in="SourceAlpha" type="matrix" values="0 0 0 0 0 0 0 0 0 0 0 0 0 0 0 0 0 0 127 0" result="hardAlpha"/>
<feOffset dx="-10" dy="-10"/>
<feGaussianBlur stdDeviation="10"/>
<feComposite in2="hardAlpha" operator="arithmetic" k2="-1" k3="1"/>
<feColorMatrix type="matrix" values="0 0 0 0 0.866667 0 0 0 0 0.952941 0 0 0 0 0.85098 0 0 0 1 0"/>
<feBlend mode="normal" in2="effect2_innerShadow_150_41" result="effect3_innerShadow_150_41"/>
</filter>
<filter id="filter12_dii_150_41" x="900.568" y="-81.4316" width="465.863" height="470.862" filterUnits="userSpaceOnUse" color-interpolation-filters="sRGB">
<feFlood flood-opacity="0" result="BackgroundImageFix"/>
<feColorMatrix in="SourceAlpha" type="matrix" values="0 0 0 0 0 0 0 0 0 0 0 0 0 0 0 0 0 0 127 0" result="hardAlpha"/>
<feOffset dx="10" dy="15"/>
<feGaussianBlur stdDeviation="10"/>
<feComposite in2="hardAlpha" operator="out"/>
<feColorMatrix type="matrix" values="0 0 0 0 0.0117647 0 0 0 0 0.54902 0 0 0 0 0.396078 0 0 0 0.98 0"/>
<feBlend mode="normal" in2="BackgroundImageFix" result="effect1_dropShadow_150_41"/>
<feBlend mode="normal" in="SourceGraphic" in2="effect1_dropShadow_150_41" result="shape"/>
<feColorMatrix in="SourceAlpha" type="matrix" values="0 0 0 0 0 0 0 0 0 0 0 0 0 0 0 0 0 0 127 0" result="hardAlpha"/>
<feOffset dx="10" dy="10"/>
<feGaussianBlur stdDeviation="10"/>
<feComposite in2="hardAlpha" operator="arithmetic" k2="-1" k3="1"/>
<feColorMatrix type="matrix" values="0 0 0 0 0.0117647 0 0 0 0 0.54902 0 0 0 0 0.396078 0 0 0 0.47 0"/>
<feBlend mode="normal" in2="shape" result="effect2_innerShadow_150_41"/>
<feColorMatrix in="SourceAlpha" type="matrix" values="0 0 0 0 0 0 0 0 0 0 0 0 0 0 0 0 0 0 127 0" result="hardAlpha"/>
<feOffset dx="-10" dy="-10"/>
<feGaussianBlur stdDeviation="10"/>
<feComposite in2="hardAlpha" operator="arithmetic" k2="-1" k3="1"/>
<feColorMatrix type="matrix" values="0 0 0 0 0.662745 0 0 0 0 0.921569 0 0 0 0 0.623529 0 0 0 1 0"/>
<feBlend mode="normal" in2="effect2_innerShadow_150_41" result="effect3_innerShadow_150_41"/>
</filter>
<filter id="filter13_dii_150_41" x="-59.4316" y="285.569" width="238.271" height="243.271" filterUnits="userSpaceOnUse" color-interpolation-filters="sRGB">
<feFlood flood-opacity="0" result="BackgroundImageFix"/>
<feColorMatrix in="SourceAlpha" type="matrix" values="0 0 0 0 0 0 0 0 0 0 0 0 0 0 0 0 0 0 127 0" result="hardAlpha"/>
<feOffset dx="10" dy="15"/>
<feGaussianBlur stdDeviation="10"/>
<feComposite in2="hardAlpha" operator="out"/>
<feColorMatrix type="matrix" values="0 0 0 0 0.0117647 0 0 0 0 0.54902 0 0 0 0 0.396078 0 0 0 0.38 0"/>
<feBlend mode="normal" in2="BackgroundImageFix" result="effect1_dropShadow_150_41"/>
<feBlend mode="normal" in="SourceGraphic" in2="effect1_dropShadow_150_41" result="shape"/>
<feColorMatrix in="SourceAlpha" type="matrix" values="0 0 0 0 0 0 0 0 0 0 0 0 0 0 0 0 0 0 127 0" result="hardAlpha"/>
<feOffset dx="10" dy="10"/>
<feGaussianBlur stdDeviation="10"/>
<feComposite in2="hardAlpha" operator="arithmetic" k2="-1" k3="1"/>
<feColorMatrix type="matrix" values="0 0 0 0 0.0117647 0 0 0 0 0.54902 0 0 0 0 0.396078 0 0 0 0.47 0"/>
<feBlend mode="normal" in2="shape" result="effect2_innerShadow_150_41"/>
<feColorMatrix in="SourceAlpha" type="matrix" values="0 0 0 0 0 0 0 0 0 0 0 0 0 0 0 0 0 0 127 0" result="hardAlpha"/>
<feOffset dx="-10" dy="-10"/>
<feGaussianBlur stdDeviation="10"/>
<feComposite in2="hardAlpha" operator="arithmetic" k2="-1" k3="1"/>
<feColorMatrix type="matrix" values="0 0 0 0 0.662745 0 0 0 0 0.921569 0 0 0 0 0.623529 0 0 0 1 0"/>
<feBlend mode="normal" in2="effect2_innerShadow_150_41" result="effect3_innerShadow_150_41"/>
</filter>
<filter id="filter14_dii_150_41" x="84.5684" y="-298.43" width="1088.86" height="1093.86" filterUnits="userSpaceOnUse" color-interpolation-filters="sRGB">
<feFlood flood-opacity="0" result="BackgroundImageFix"/>
<feColorMatrix in="SourceAlpha" type="matrix" values="0 0 0 0 0 0 0 0 0 0 0 0 0 0 0 0 0 0 127 0" result="hardAlpha"/>
<feOffset dx="10" dy="15"/>
<feGaussianBlur stdDeviation="10"/>
<feComposite in2="hardAlpha" operator="out"/>
<feColorMatrix type="matrix" values="0 0 0 0 0.0117647 0 0 0 0 0.54902 0 0 0 0 0.396078 0 0 0 0.38 0"/>
<feBlend mode="normal" in2="BackgroundImageFix" result="effect1_dropShadow_150_41"/>
<feBlend mode="normal" in="SourceGraphic" in2="effect1_dropShadow_150_41" result="shape"/>
<feColorMatrix in="SourceAlpha" type="matrix" values="0 0 0 0 0 0 0 0 0 0 0 0 0 0 0 0 0 0 127 0" result="hardAlpha"/>
<feOffset dx="10" dy="10"/>
<feGaussianBlur stdDeviation="10"/>
<feComposite in2="hardAlpha" operator="arithmetic" k2="-1" k3="1"/>
<feColorMatrix type="matrix" values="0 0 0 0 0.0117647 0 0 0 0 0.54902 0 0 0 0 0.396078 0 0 0 0.47 0"/>
<feBlend mode="normal" in2="shape" result="effect2_innerShadow_150_41"/>
<feColorMatrix in="SourceAlpha" type="matrix" values="0 0 0 0 0 0 0 0 0 0 0 0 0 0 0 0 0 0 127 0" result="hardAlpha"/>
<feOffset dx="-10" dy="-10"/>
<feGaussianBlur stdDeviation="10"/>
<feComposite in2="hardAlpha" operator="arithmetic" k2="-1" k3="1"/>
<feColorMatrix type="matrix" values="0 0 0 0 0.662745 0 0 0 0 0.921569 0 0 0 0 0.623529 0 0 0 1 0"/>
<feBlend mode="normal" in2="effect2_innerShadow_150_41" result="effect3_innerShadow_150_41"/>
</filter>
<radialGradient id="paint0_radial_150_41" cx="0" cy="0" r="1" gradientUnits="userSpaceOnUse" gradientTransform="translate(867.999 555.86) rotate(-139.489) scale(163.917 180.861)">
<stop stop-color="#038C65"/>
<stop offset="0.489764" stop-color="#A9EB9F"/>
<stop offset="0.981592" stop-color="#038C65"/>
</radialGradient>
<radialGradient id="paint1_radial_150_41" cx="0" cy="0" r="1" gradientUnits="userSpaceOnUse" gradientTransform="translate(997.599 292.4) rotate(-136.975) scale(168.338 187.596)">
<stop stop-color="#038C65"/>
<stop offset="0.489764" stop-color="#A9EB9F"/>
<stop offset="0.981592" stop-color="#038C65"/>
</radialGradient>
<radialGradient id="paint2_radial_150_41" cx="0" cy="0" r="1" gradientUnits="userSpaceOnUse" gradientTransform="translate(509.185 146.137) rotate(-134.77) scale(130.301 145.549)">
<stop stop-color="#038C65"/>
<stop offset="0.489764" stop-color="#A9EB9F"/>
<stop offset="0.981592" stop-color="#038C65"/>
</radialGradient>
<radialGradient id="paint3_radial_150_41" cx="0" cy="0" r="1" gradientUnits="userSpaceOnUse" gradientTransform="translate(366.591 310.429) rotate(-139.241) scale(161.031 177.913)">
<stop stop-color="#038C65"/>
<stop offset="0.489764" stop-color="#A9EB9F"/>
<stop offset="0.981592" stop-color="#038C65"/>
</radialGradient>
<radialGradient id="paint4_radial_150_41" cx="0" cy="0" r="1" gradientUnits="userSpaceOnUse" gradientTransform="translate(448.836 356.867) rotate(-178.97) scale(465.154 18.6786)">
<stop stop-color="#45EFA7"/>
<stop offset="0.489764" stop-color="#A9EB9F"/>
<stop offset="0.981592" stop-color="#00F1AD"/>
</radialGradient>
<radialGradient id="paint5_radial_150_41" cx="0" cy="0" r="1" gradientUnits="userSpaceOnUse" gradientTransform="translate(498.777 114.611) rotate(-179.1) scale(517.426 18.1551)">
<stop stop-color="#45EFA7"/>
<stop offset="0.489764" stop-color="#A9EB9F"/>
<stop offset="0.981592" stop-color="#00F1AD"/>
</radialGradient>
<radialGradient id="paint6_radial_150_41" cx="0" cy="0" r="1" gradientUnits="userSpaceOnUse" gradientTransform="translate(1617.78 283.515) rotate(-177.657) scale(270.804 24.7147)">
<stop stop-color="#45EFA7"/>
<stop offset="0.489764" stop-color="#A9EB9F"/>
<stop offset="0.981592" stop-color="#00F1AD"/>
</radialGradient>
<radialGradient id="paint7_radial_150_41" cx="0" cy="0" r="1" gradientUnits="userSpaceOnUse" gradientTransform="translate(1262.06 303.733) rotate(-177.403) scale(244.395 24.71)">
<stop stop-color="#45EFA7"/>
<stop offset="0.489764" stop-color="#A9EB9F"/>
<stop offset="0.981592" stop-color="#00F1AD"/>
</radialGradient>
<radialGradient id="paint8_radial_150_41" cx="0" cy="0" r="1" gradientUnits="userSpaceOnUse" gradientTransform="translate(771.361 823.585) rotate(-133.874) scale(769.13 858.498)">
<stop stop-color="#038C65"/>
<stop offset="0.489764" stop-color="#A9EB9F"/>
<stop offset="0.981592" stop-color="#038C65"/>
</radialGradient>
<radialGradient id="paint9_radial_150_41" cx="0" cy="0" r="1" gradientUnits="userSpaceOnUse" gradientTransform="translate(63.0638 304.967) rotate(-134.673) scale(99.3386 110.96)">
<stop stop-color="#038C65"/>
<stop offset="0.489764" stop-color="#A9EB9F"/>
<stop offset="0.981592" stop-color="#038C65"/>
</radialGradient>
<radialGradient id="paint10_radial_150_41" cx="0" cy="0" r="1" gradientUnits="userSpaceOnUse" gradientTransform="translate(1166.06 506.967) rotate(-134.673) scale(99.3386 110.96)">
<stop stop-color="#038C65"/>
<stop offset="0.489764" stop-color="#A9EB9F"/>
<stop offset="0.981592" stop-color="#038C65"/>
</radialGradient>
<clipPath id="clip0_150_41">
<rect width="1238.14" height="472" fill="white"/>
</clipPath>
</defs>
</svg>
