<svg width="44" height="44" viewBox="0 0 44 44" fill="none" xmlns="http://www.w3.org/2000/svg">
<g clip-path="url(#clip0_7_225)">
<path d="M13.1908 43.9696C5.90568 43.9696 0 38.064 0 30.7784V13.1908C0 5.90568 5.90568 0 13.1908 0H30.7784C38.0635 0 43.9692 5.90568 43.9696 13.1908V30.7784C43.9696 38.0635 38.064 43.9692 30.7784 43.9696H13.1908Z" fill="#316BFF"/>
<g clip-path="url(#clip1_7_225)">
<g clip-path="url(#clip2_7_225)">
<path d="M21.9726 8.79388C18.9351 8.79388 16.4715 11.2574 16.4715 14.295C16.4715 17.3326 18.9351 19.7961 21.9726 19.7961C25.0102 19.7961 27.4738 17.3326 27.4738 14.295C27.4738 11.2574 25.0102 8.79388 21.9726 8.79388ZM21.9726 10.229C24.2209 10.229 26.0387 12.0467 26.0387 14.295C26.0387 16.5433 24.2209 18.3611 21.9726 18.3611C19.7244 18.3611 17.9066 16.5433 17.9066 14.295C17.9066 12.0467 19.7244 10.229 21.9726 10.229ZM12.1907 10.4746C12.0515 10.4641 11.9092 10.4921 11.7836 10.5638C10.4442 11.3292 9.48747 12.5968 9.08086 14.0798C8.67426 15.5627 8.88952 17.1413 9.65489 18.4807C9.7984 18.7198 10.0376 18.8394 10.2768 18.8394C10.3963 18.8394 10.5159 18.8155 10.6355 18.7438C11.9749 17.9784 12.9317 16.7107 13.3383 15.2278C13.7449 13.7449 13.5296 12.1663 12.7642 10.8269C12.6446 10.6176 12.4222 10.4925 12.1907 10.4746ZM31.7785 10.4746C31.5468 10.4925 31.3246 10.6176 31.205 10.8269C30.4396 12.1663 30.2241 13.721 30.6307 15.2278C31.0373 16.7107 31.9943 17.9784 33.3337 18.7438C33.4533 18.8155 33.5728 18.8394 33.6924 18.8394C33.7642 18.8394 33.8123 18.8394 33.884 18.8155C34.0754 18.7677 34.2186 18.6481 34.3143 18.4807C35.9168 15.7062 34.9598 12.1663 32.1854 10.5638C32.0598 10.4921 31.9175 10.4641 31.7785 10.4746ZM11.8551 12.262C12.4531 13.9602 11.951 15.8736 10.5877 17.0456C9.96583 15.3474 10.4679 13.434 11.8551 12.262ZM32.1139 12.262C33.4772 13.434 34.0036 15.3474 33.4057 17.0456C32.736 16.4715 32.2574 15.7303 32.0182 14.8454C31.779 13.9843 31.8268 13.0991 32.1139 12.262ZM15.8465 19.5393C15.7537 19.5333 15.6581 19.545 15.5624 19.5809C14.51 19.9636 13.5535 20.6811 12.8838 21.6139C12.6446 21.9248 12.7162 22.3795 13.051 22.6187C13.3619 22.8579 13.8166 22.7859 14.0558 22.451C14.4146 21.9727 14.869 21.5661 15.3713 21.2551C15.5865 22.475 15.2517 23.7187 14.4624 24.7232C14.2232 25.0342 14.2711 25.4889 14.5581 25.728C14.7016 25.8237 14.8451 25.8952 15.0125 25.8952C15.2278 25.8952 15.4189 25.7995 15.5624 25.6321C16.854 24.0296 17.213 21.9248 16.4954 20.0114C16.4237 19.844 16.3041 19.6763 16.1127 19.6046C16.029 19.5687 15.9391 19.5452 15.8465 19.5393ZM28.1076 19.5393C28.0119 19.5452 27.9163 19.5687 27.8325 19.6046C27.6651 19.6763 27.5216 19.8201 27.4499 20.0114C26.7562 21.9248 27.115 24.0296 28.4066 25.6321C28.5501 25.7995 28.7651 25.8952 28.9564 25.8952C29.1239 25.8952 29.2676 25.8476 29.4111 25.728C29.7221 25.4889 29.7699 25.0342 29.5068 24.7232C28.7175 23.7426 28.3824 22.475 28.5977 21.2551C29.1239 21.5661 29.5544 21.9727 29.9132 22.451C30.1523 22.762 30.5831 22.834 30.918 22.6187C31.2289 22.3795 31.3006 21.9488 31.0854 21.6139C30.4157 20.6811 29.4831 19.9636 28.3829 19.5809C28.2992 19.545 28.2033 19.5333 28.1076 19.5393ZM7.71754 20.9681C7.31093 20.9681 7 21.2791 7 21.6857C7 24.8907 9.60706 27.4738 12.7881 27.4738C13.1948 27.4738 13.5057 27.1629 13.5057 26.7563C13.5057 23.5513 10.8986 20.9681 7.71754 20.9681ZM36.2514 20.9681C33.0464 20.9681 30.4635 23.5752 30.4635 26.7563C30.4635 27.1629 30.7744 27.4738 31.1811 27.4738C34.3861 27.4738 36.969 24.8667 36.969 21.6857C36.969 21.2791 36.658 20.9681 36.2514 20.9681ZM8.50659 22.4747C10.2765 22.8096 11.6882 24.1973 11.9991 25.9672C10.2292 25.6324 8.84144 24.2446 8.50659 22.4747ZM35.4624 22.4747C35.1514 24.2446 33.7405 25.6324 31.9706 25.9672C32.3054 24.1973 33.6924 22.7856 35.4624 22.4747ZM17.8822 25.5429C17.6507 25.5608 17.4282 25.6859 17.3086 25.8952C16.8064 26.7563 16.5435 27.7371 16.5435 28.7178C16.5435 29.1244 16.8544 29.4353 17.261 29.4353C17.6676 29.4353 17.9786 29.1244 17.9786 28.7178C17.9786 28.2394 18.074 27.7608 18.2414 27.3064C19.1982 28.0957 19.7485 29.2677 19.7724 30.5353C19.7724 30.918 20.1073 31.2292 20.49 31.2292H20.5136C20.9202 31.2292 21.2314 30.8938 21.2075 30.4872C21.1597 28.502 20.0592 26.6606 18.2893 25.6321C18.1637 25.5604 18.0214 25.5324 17.8822 25.5429ZM26.1107 25.5668C25.9717 25.5561 25.8294 25.5843 25.7038 25.656C23.9339 26.6845 22.8576 28.5262 22.8098 30.5592C22.8098 30.9658 23.1207 31.2768 23.5034 31.3007H23.5273C23.8861 31.2768 24.2209 30.9658 24.2209 30.5592C24.2448 29.2916 24.7952 28.1196 25.7519 27.3303C25.9193 27.7847 25.9909 28.2631 26.0148 28.7415C26.0148 29.1481 26.3496 29.4351 26.7323 29.459C27.1389 29.459 27.4499 29.1241 27.4499 28.7415C27.4259 27.7608 27.1626 26.7802 26.6842 25.9191C26.5646 25.7099 26.3424 25.5845 26.1107 25.5668ZM29.3681 30.0254C28.9222 30.0168 28.4726 30.0507 28.0241 30.1285C26.2303 30.4394 24.6754 31.4442 23.623 32.9271C23.3838 33.262 23.4795 33.6925 23.7904 33.9317C24.9385 34.7449 26.3018 35.1756 27.689 35.1756C28.0956 35.1756 28.4783 35.1515 28.8849 35.0797C30.6788 34.7688 32.2337 33.764 33.2861 32.2811C33.5253 31.9223 33.4293 31.492 33.1184 31.2528C32.0062 30.4636 30.7056 30.051 29.3681 30.0254ZM14.6042 30.0285C13.2725 30.0598 11.9809 30.4815 10.8508 31.2528C10.5159 31.492 10.4444 31.9225 10.6836 32.2574C11.736 33.7403 13.2902 34.7451 15.084 35.056C15.4906 35.1278 15.8733 35.1512 16.2799 35.1512C17.6672 35.1512 19.0068 34.7209 20.1788 33.9077C20.5136 33.6686 20.5852 33.2383 20.346 32.9034C19.2936 31.4444 17.7394 30.4394 15.9456 30.1285C15.4971 30.0507 15.0484 30.018 14.6042 30.0285ZM29.1499 31.4533C30.0119 31.4411 30.8641 31.6472 31.6355 32.0419C30.8223 32.879 29.7938 33.4294 28.6457 33.6446C27.4977 33.8599 26.3257 33.6688 25.2972 33.1426C26.0865 32.3055 27.115 31.7312 28.287 31.5399C28.574 31.486 28.8624 31.4573 29.1499 31.4533ZM14.8193 31.4636C15.1065 31.4667 15.395 31.492 15.682 31.5399C16.83 31.7551 17.8824 32.3055 18.6717 33.1426C17.6433 33.6688 16.4952 33.836 15.3232 33.6446C14.1751 33.4294 13.1228 32.879 12.3335 32.0419C13.1048 31.6472 13.957 31.4547 14.8193 31.4636Z" fill="white"/>
</g>
</g>
</g>
<defs>
<clipPath id="clip0_7_225">
<rect width="43.9695" height="43.9695" fill="white"/>
</clipPath>
<clipPath id="clip1_7_225">
<rect width="29.9689" height="26.3817" fill="white" transform="translate(7.00024 8.79388)"/>
</clipPath>
<clipPath id="clip2_7_225">
<rect width="29.9689" height="26.3817" fill="white" transform="translate(7.00024 8.79388)"/>
</clipPath>
</defs>
</svg>
