<svg width="487" height="404" viewBox="0 0 487 404" fill="none" xmlns="http://www.w3.org/2000/svg">
<rect x="0.5" y="0.5" width="486" height="403" rx="1.5" fill="white" stroke="#3E7C23"/>
<path d="M218.44 51L219.04 18.6H223.48L229.2 44.88L234.96 18.6H239.36L239.96 51H236.32L235.96 27.48L230.48 51H227.92L222.48 27.48L222.12 51H218.44ZM248.726 51.32C247.82 51.32 247.02 51.0667 246.326 50.56C245.633 50.0267 245.086 49.36 244.686 48.56C244.286 47.7333 244.086 46.8667 244.086 45.96C244.086 44.52 244.326 43.3067 244.806 42.32C245.286 41.3333 245.94 40.5067 246.766 39.84C247.62 39.1467 248.593 38.5467 249.686 38.04C250.806 37.5333 251.98 37.04 253.206 36.56V34.92C253.206 33.9867 253.153 33.2133 253.046 32.6C252.94 31.9867 252.713 31.5333 252.366 31.24C252.046 30.92 251.553 30.76 250.886 30.76C250.3 30.76 249.82 30.8933 249.446 31.16C249.1 31.4267 248.846 31.8133 248.686 32.32C248.526 32.8 248.446 33.3733 248.446 34.04V35.2L244.206 35.04C244.26 32.48 244.846 30.6 245.966 29.4C247.086 28.1733 248.82 27.56 251.166 27.56C253.46 27.56 255.086 28.1867 256.046 29.44C257.006 30.6933 257.486 32.5067 257.486 34.88V45.44C257.486 46.16 257.5 46.8533 257.526 47.52C257.58 48.1867 257.633 48.8133 257.686 49.4C257.766 49.96 257.833 50.4933 257.886 51H253.966C253.886 50.5733 253.78 50.04 253.646 49.4C253.54 48.7333 253.46 48.1333 253.406 47.6C253.14 48.5067 252.62 49.36 251.846 50.16C251.1 50.9333 250.06 51.32 248.726 51.32ZM250.406 47.64C250.833 47.64 251.233 47.52 251.606 47.28C251.98 47.04 252.313 46.7733 252.606 46.48C252.9 46.16 253.1 45.9067 253.206 45.72V39.16C252.54 39.5333 251.913 39.9067 251.326 40.28C250.74 40.6533 250.22 41.0533 249.766 41.48C249.34 41.88 248.993 42.3467 248.726 42.88C248.486 43.3867 248.366 43.9733 248.366 44.64C248.366 45.5733 248.54 46.3067 248.886 46.84C249.233 47.3733 249.74 47.64 250.406 47.64ZM261.598 51V27.88H265.198V43.44L272.158 27.88H275.518V51H271.998V35.32L265.078 51H261.598ZM268.678 25.36C266.758 25.36 265.398 24.84 264.598 23.8C263.824 22.76 263.438 21.4667 263.438 19.92H265.918C265.944 20.88 266.158 21.6267 266.558 22.16C266.984 22.6667 267.691 22.92 268.678 22.92C269.691 22.92 270.398 22.6533 270.798 22.12C271.224 21.5867 271.438 20.8533 271.438 19.92H273.958C273.958 21.4667 273.558 22.76 272.758 23.8C271.984 24.84 270.624 25.36 268.678 25.36Z" fill="#51A230"/>
<rect x="41" y="80" width="41" height="41" fill="#ECECEC"/>
<rect x="41" y="141" width="41" height="41" fill="#ECECEC"/>
<rect x="41" y="202" width="41" height="41" fill="#ECECEC"/>
<rect x="41" y="263" width="41" height="41" fill="#AEFF8B"/>
<rect x="41" y="324" width="41" height="41" fill="#ECECEC"/>
<rect x="103" y="80" width="41" height="41" fill="#ECECEC"/>
<rect x="103" y="141" width="41" height="41" fill="#ECECEC"/>
<rect x="103" y="202" width="41" height="41" fill="#ECECEC"/>
<rect x="103" y="263" width="41" height="41" fill="#ECECEC"/>
<rect x="103" y="324" width="41" height="41" fill="#ECECEC"/>
<rect x="165" y="80" width="41" height="41" fill="#ECECEC"/>
<rect x="165" y="141" width="41" height="41" fill="#ECECEC"/>
<rect x="165" y="202" width="289" height="41" fill="#AEFF8B"/>
<rect x="165" y="263" width="41" height="41" fill="#ECECEC"/>
<rect x="165" y="324" width="41" height="41" fill="#ECECEC"/>
<rect x="227" y="80" width="41" height="41" fill="#ECECEC"/>
<rect x="227" y="140" width="41" height="41" fill="#ECECEC"/>
<rect x="227" y="263" width="41" height="41" fill="#ECECEC"/>
<rect x="227" y="324" width="41" height="41" fill="#ECECEC"/>
<rect x="289" y="80" width="41" height="41" fill="#ECECEC"/>
<rect x="289" y="141" width="41" height="41" fill="#ECECEC"/>
<rect x="290" y="263" width="41" height="41" fill="#ECECEC"/>
<rect x="291" y="324" width="41" height="41" fill="#ECECEC"/>
<rect x="351" y="80" width="41" height="41" fill="#ECECEC"/>
<rect x="351" y="141" width="41" height="41" fill="#ECECEC"/>
<rect x="351" y="263" width="41" height="41" fill="#ECECEC"/>
<rect x="351" y="324" width="41" height="41" fill="#ECECEC"/>
<rect x="413" y="80" width="41" height="41" fill="#ECECEC"/>
<rect x="413" y="141" width="41" height="41" fill="#ECECEC"/>
<rect x="413" y="263" width="41" height="41" fill="#ECECEC"/>
<rect x="413" y="324" width="41" height="41" fill="#ECECEC"/>
<path d="M60.104 112V95.92C60.088 95.936 59.904 95.984 59.552 96.064C59.216 96.144 58.832 96.224 58.4 96.304C57.968 96.384 57.584 96.456 57.248 96.52C56.912 96.584 56.736 96.616 56.72 96.616V94.672C56.992 94.608 57.304 94.52 57.656 94.408C58.024 94.296 58.392 94.16 58.76 94C59.144 93.84 59.504 93.64 59.84 93.4C60.192 93.16 60.488 92.88 60.728 92.56H62.672V112H60.104Z" fill="#3E7C23"/>
<path d="M61 173.216C59.832 173.216 58.896 172.984 58.192 172.52C57.488 172.056 56.976 171.4 56.656 170.552C56.352 169.688 56.2 168.68 56.2 167.528C56.2 166.872 56.256 166.296 56.368 165.8C56.48 165.304 56.64 164.872 56.848 164.504C57.072 164.12 57.328 163.792 57.616 163.52C57.92 163.232 58.248 162.976 58.6 162.752C57.96 162.32 57.44 161.76 57.04 161.072C56.64 160.368 56.44 159.48 56.44 158.408C56.44 157.384 56.6 156.496 56.92 155.744C57.24 154.992 57.736 154.416 58.408 154.016C59.096 153.6 59.96 153.392 61 153.392C62.04 153.392 62.888 153.6 63.544 154.016C64.216 154.416 64.712 154.992 65.032 155.744C65.352 156.496 65.512 157.384 65.512 158.408C65.512 159.496 65.312 160.384 64.912 161.072C64.528 161.76 64.008 162.32 63.352 162.752C63.704 162.976 64.024 163.232 64.312 163.52C64.616 163.792 64.872 164.12 65.08 164.504C65.304 164.872 65.472 165.304 65.584 165.8C65.712 166.296 65.776 166.872 65.776 167.528C65.776 168.68 65.616 169.688 65.296 170.552C64.992 171.4 64.488 172.056 63.784 172.52C63.096 172.984 62.168 173.216 61 173.216ZM61 171.176C61.624 171.176 62.104 171.016 62.44 170.696C62.776 170.376 63 169.944 63.112 169.4C63.24 168.856 63.304 168.248 63.304 167.576C63.304 166.968 63.232 166.4 63.088 165.872C62.96 165.328 62.728 164.888 62.392 164.552C62.056 164.2 61.592 164.024 61 164.024C60.408 164.024 59.936 164.192 59.584 164.528C59.248 164.864 59.008 165.304 58.864 165.848C58.72 166.376 58.648 166.952 58.648 167.576C58.648 168.248 58.712 168.856 58.84 169.4C58.968 169.944 59.2 170.376 59.536 170.696C59.888 171.016 60.376 171.176 61 171.176ZM61 161.576C61.544 161.56 61.952 161.392 62.224 161.072C62.512 160.752 62.712 160.344 62.824 159.848C62.936 159.336 62.992 158.808 62.992 158.264C62.992 157.464 62.848 156.784 62.56 156.224C62.272 155.664 61.752 155.384 61 155.384C60.248 155.384 59.72 155.664 59.416 156.224C59.112 156.784 58.96 157.464 58.96 158.264C58.96 158.808 59.016 159.336 59.128 159.848C59.24 160.344 59.44 160.752 59.728 161.072C60.032 161.392 60.456 161.56 61 161.576Z" fill="#3E7C23"/>
<path d="M55.104 234V217.92C55.088 217.936 54.904 217.984 54.552 218.064C54.216 218.144 53.832 218.224 53.4 218.304C52.968 218.384 52.584 218.456 52.248 218.52C51.912 218.584 51.736 218.616 51.72 218.616V216.672C51.992 216.608 52.304 216.52 52.656 216.408C53.024 216.296 53.392 216.16 53.76 216C54.144 215.84 54.504 215.64 54.84 215.4C55.192 215.16 55.488 214.88 55.728 214.56H57.672V234H55.104ZM66.3476 234.192C65.1796 234.192 64.2516 233.968 63.5636 233.52C62.8756 233.072 62.3796 232.424 62.0756 231.576C61.7876 230.728 61.6436 229.72 61.6436 228.552H64.2116C64.2116 229.128 64.2596 229.696 64.3556 230.256C64.4516 230.8 64.6516 231.256 64.9556 231.624C65.2756 231.976 65.7556 232.152 66.3956 232.152C67.0996 232.152 67.6036 231.952 67.9076 231.552C68.2116 231.136 68.4036 230.584 68.4836 229.896C68.5636 229.192 68.6036 228.4 68.6036 227.52C68.6036 226.64 68.5556 225.896 68.4596 225.288C68.3636 224.664 68.1636 224.192 67.8596 223.872C67.5556 223.536 67.0756 223.368 66.4196 223.368C65.8916 223.368 65.4436 223.536 65.0756 223.872C64.7076 224.192 64.4356 224.56 64.2596 224.976H62.0756V214.56H70.4516V217.128H64.4036L64.2356 222.504C64.5556 222.168 64.9476 221.904 65.4116 221.712C65.8916 221.52 66.4356 221.424 67.0436 221.424C68.0996 221.424 68.9236 221.672 69.5156 222.168C70.1236 222.664 70.5476 223.344 70.7876 224.208C71.0436 225.072 71.1716 226.064 71.1716 227.184C71.1716 228.176 71.0996 229.104 70.9556 229.968C70.8116 230.816 70.5556 231.56 70.1876 232.2C69.8356 232.824 69.3476 233.312 68.7236 233.664C68.0996 234.016 67.3076 234.192 66.3476 234.192Z" fill="#3E7C23"/>
<path d="M50.984 295V293.176L55.928 285.472C56.296 284.896 56.632 284.36 56.936 283.864C57.256 283.368 57.512 282.848 57.704 282.304C57.912 281.744 58.016 281.104 58.016 280.384C58.016 279.488 57.872 278.784 57.584 278.272C57.296 277.76 56.792 277.504 56.072 277.504C55.464 277.504 54.992 277.672 54.656 278.008C54.32 278.344 54.088 278.784 53.96 279.328C53.832 279.872 53.768 280.456 53.768 281.08V281.728H51.2V281.056C51.2 279.888 51.352 278.888 51.656 278.056C51.976 277.208 52.48 276.552 53.168 276.088C53.872 275.624 54.8 275.392 55.952 275.392C57.52 275.392 58.688 275.84 59.456 276.736C60.224 277.616 60.608 278.84 60.608 280.408C60.608 281.24 60.504 281.968 60.296 282.592C60.104 283.216 59.848 283.8 59.528 284.344C59.208 284.888 58.856 285.448 58.472 286.024L54.008 292.84H60.152V295H50.984ZM62.4449 295V293.176L67.3889 285.472C67.7569 284.896 68.0929 284.36 68.3969 283.864C68.7169 283.368 68.9729 282.848 69.1649 282.304C69.3729 281.744 69.4769 281.104 69.4769 280.384C69.4769 279.488 69.3329 278.784 69.0449 278.272C68.7569 277.76 68.2529 277.504 67.5329 277.504C66.9249 277.504 66.4529 277.672 66.1169 278.008C65.7809 278.344 65.5489 278.784 65.4209 279.328C65.2929 279.872 65.2289 280.456 65.2289 281.08V281.728H62.6609V281.056C62.6609 279.888 62.8129 278.888 63.1169 278.056C63.4369 277.208 63.9409 276.552 64.6289 276.088C65.3329 275.624 66.2609 275.392 67.4129 275.392C68.9809 275.392 70.1489 275.84 70.9169 276.736C71.6849 277.616 72.0689 278.84 72.0689 280.408C72.0689 281.24 71.9649 281.968 71.7569 282.592C71.5649 283.216 71.3089 283.8 70.9889 284.344C70.6689 284.888 70.3169 285.448 69.9329 286.024L65.4689 292.84H71.6129V295H62.4449Z" fill="#3E7C23"/>
<path d="M56.984 356V354.176L61.928 346.472C62.296 345.896 62.632 345.36 62.936 344.864C63.256 344.368 63.512 343.848 63.704 343.304C63.912 342.744 64.016 342.104 64.016 341.384C64.016 340.488 63.872 339.784 63.584 339.272C63.296 338.76 62.792 338.504 62.072 338.504C61.464 338.504 60.992 338.672 60.656 339.008C60.32 339.344 60.088 339.784 59.96 340.328C59.832 340.872 59.768 341.456 59.768 342.08V342.728H57.2V342.056C57.2 340.888 57.352 339.888 57.656 339.056C57.976 338.208 58.48 337.552 59.168 337.088C59.872 336.624 60.8 336.392 61.952 336.392C63.52 336.392 64.688 336.84 65.456 337.736C66.224 338.616 66.608 339.84 66.608 341.408C66.608 342.24 66.504 342.968 66.296 343.592C66.104 344.216 65.848 344.8 65.528 345.344C65.208 345.888 64.856 346.448 64.472 347.024L60.008 353.84H66.152V356H56.984ZM73.3409 356.216C72.3329 356.216 71.4689 356.032 70.7489 355.664C70.0449 355.28 69.5089 354.728 69.1409 354.008C68.7729 353.288 68.5809 352.416 68.5649 351.392C68.5649 351.36 68.5649 351.328 68.5649 351.296C68.5649 351.248 68.5649 351.208 68.5649 351.176H71.1329C71.1329 352.104 71.2849 352.824 71.5889 353.336C71.8929 353.832 72.4849 354.08 73.3649 354.08C73.8449 354.08 74.2449 353.936 74.5649 353.648C74.8849 353.344 75.1249 352.888 75.2849 352.28C75.4449 351.656 75.5249 350.872 75.5249 349.928V346.976C75.2849 347.376 74.9249 347.704 74.4449 347.96C73.9809 348.2 73.3969 348.32 72.6929 348.32C71.6209 348.32 70.7809 348.088 70.1729 347.624C69.5649 347.144 69.1329 346.488 68.8769 345.656C68.6369 344.808 68.5169 343.824 68.5169 342.704C68.5169 341.52 68.6769 340.456 68.9969 339.512C69.3169 338.552 69.8289 337.792 70.5329 337.232C71.2529 336.672 72.1889 336.392 73.3409 336.392C74.4609 336.392 75.3729 336.68 76.0769 337.256C76.7809 337.816 77.2929 338.576 77.6129 339.536C77.9489 340.496 78.1169 341.568 78.1169 342.752V349.28C78.1169 350.528 77.9729 351.68 77.6849 352.736C77.3969 353.792 76.9089 354.64 76.2209 355.28C75.5329 355.904 74.5729 356.216 73.3409 356.216ZM73.3409 346.376C73.9009 346.376 74.3569 346.24 74.7089 345.968C75.0609 345.68 75.3329 345.368 75.5249 345.032V342.152C75.5249 341.48 75.4609 340.872 75.3329 340.328C75.2049 339.768 74.9809 339.328 74.6609 339.008C74.3409 338.672 73.9009 338.504 73.3409 338.504C72.7809 338.504 72.3329 338.672 71.9969 339.008C71.6769 339.344 71.4449 339.784 71.3009 340.328C71.1729 340.856 71.1089 341.44 71.1089 342.08C71.1089 342.848 71.1409 343.56 71.2049 344.216C71.2849 344.872 71.4769 345.4 71.7809 345.8C72.1009 346.184 72.6209 346.376 73.3409 346.376Z" fill="#3E7C23"/>
<path d="M117.984 112V110.176L122.928 102.472C123.296 101.896 123.632 101.36 123.936 100.864C124.256 100.368 124.512 99.848 124.704 99.304C124.912 98.744 125.016 98.104 125.016 97.384C125.016 96.488 124.872 95.784 124.584 95.272C124.296 94.76 123.792 94.504 123.072 94.504C122.464 94.504 121.992 94.672 121.656 95.008C121.32 95.344 121.088 95.784 120.96 96.328C120.832 96.872 120.768 97.456 120.768 98.08V98.728H118.2V98.056C118.2 96.888 118.352 95.888 118.656 95.056C118.976 94.208 119.48 93.552 120.168 93.088C120.872 92.624 121.8 92.392 122.952 92.392C124.52 92.392 125.688 92.84 126.456 93.736C127.224 94.616 127.608 95.84 127.608 97.408C127.608 98.24 127.504 98.968 127.296 99.592C127.104 100.216 126.848 100.8 126.528 101.344C126.208 101.888 125.856 102.448 125.472 103.024L121.008 109.84H127.152V112H117.984Z" fill="#3E7C23"/>
<path d="M123.88 173.216C122.872 173.216 122.008 173.032 121.288 172.664C120.584 172.28 120.048 171.728 119.68 171.008C119.312 170.288 119.12 169.416 119.104 168.392C119.104 168.36 119.104 168.328 119.104 168.296C119.104 168.248 119.104 168.208 119.104 168.176H121.672C121.672 169.104 121.824 169.824 122.128 170.336C122.432 170.832 123.024 171.08 123.904 171.08C124.384 171.08 124.784 170.936 125.104 170.648C125.424 170.344 125.664 169.888 125.824 169.28C125.984 168.656 126.064 167.872 126.064 166.928V163.976C125.824 164.376 125.464 164.704 124.984 164.96C124.52 165.2 123.936 165.32 123.232 165.32C122.16 165.32 121.32 165.088 120.712 164.624C120.104 164.144 119.672 163.488 119.416 162.656C119.176 161.808 119.056 160.824 119.056 159.704C119.056 158.52 119.216 157.456 119.536 156.512C119.856 155.552 120.368 154.792 121.072 154.232C121.792 153.672 122.728 153.392 123.88 153.392C125 153.392 125.912 153.68 126.616 154.256C127.32 154.816 127.832 155.576 128.152 156.536C128.488 157.496 128.656 158.568 128.656 159.752V166.28C128.656 167.528 128.512 168.68 128.224 169.736C127.936 170.792 127.448 171.64 126.76 172.28C126.072 172.904 125.112 173.216 123.88 173.216ZM123.88 163.376C124.44 163.376 124.896 163.24 125.248 162.968C125.6 162.68 125.872 162.368 126.064 162.032V159.152C126.064 158.48 126 157.872 125.872 157.328C125.744 156.768 125.52 156.328 125.2 156.008C124.88 155.672 124.44 155.504 123.88 155.504C123.32 155.504 122.872 155.672 122.536 156.008C122.216 156.344 121.984 156.784 121.84 157.328C121.712 157.856 121.648 158.44 121.648 159.08C121.648 159.848 121.68 160.56 121.744 161.216C121.824 161.872 122.016 162.4 122.32 162.8C122.64 163.184 123.16 163.376 123.88 163.376Z" fill="#3E7C23"/>
<path d="M116.104 234V217.92C116.088 217.936 115.904 217.984 115.552 218.064C115.216 218.144 114.832 218.224 114.4 218.304C113.968 218.384 113.584 218.456 113.248 218.52C112.912 218.584 112.736 218.616 112.72 218.616V216.672C112.992 216.608 113.304 216.52 113.656 216.408C114.024 216.296 114.392 216.16 114.76 216C115.144 215.84 115.504 215.64 115.84 215.4C116.192 215.16 116.488 214.88 116.728 214.56H118.672V234H116.104ZM127.684 234.216C126.564 234.216 125.652 233.936 124.948 233.376C124.244 232.8 123.724 232.032 123.388 231.072C123.068 230.096 122.908 229.016 122.908 227.832V221.28C122.908 220.016 123.052 218.864 123.34 217.824C123.628 216.784 124.116 215.952 124.804 215.328C125.508 214.704 126.468 214.392 127.684 214.392C128.692 214.392 129.54 214.576 130.228 214.944C130.932 215.312 131.468 215.848 131.836 216.552C132.22 217.256 132.42 218.112 132.436 219.12C132.436 219.152 132.436 219.2 132.436 219.264C132.452 219.312 132.46 219.36 132.46 219.408H129.868C129.868 218.464 129.716 217.744 129.412 217.248C129.108 216.752 128.532 216.504 127.684 216.504C127.22 216.504 126.82 216.656 126.484 216.96C126.148 217.248 125.892 217.696 125.716 218.304C125.556 218.912 125.476 219.696 125.476 220.656V223.608C125.732 223.208 126.092 222.888 126.556 222.648C127.036 222.392 127.62 222.264 128.308 222.264C129.38 222.264 130.22 222.496 130.828 222.96C131.436 223.424 131.868 224.08 132.124 224.928C132.38 225.76 132.508 226.744 132.508 227.88C132.508 229.048 132.348 230.112 132.028 231.072C131.708 232.032 131.196 232.8 130.492 233.376C129.788 233.936 128.852 234.216 127.684 234.216ZM127.684 232.08C128.26 232.08 128.708 231.92 129.028 231.6C129.348 231.264 129.572 230.824 129.7 230.28C129.844 229.736 129.916 229.144 129.916 228.504C129.916 227.736 129.876 227.024 129.796 226.368C129.732 225.712 129.548 225.192 129.244 224.808C128.94 224.408 128.42 224.208 127.684 224.208C127.332 224.208 127.012 224.272 126.724 224.4C126.436 224.528 126.188 224.696 125.98 224.904C125.772 225.096 125.604 225.304 125.476 225.528V228.432C125.476 229.088 125.54 229.696 125.668 230.256C125.812 230.816 126.044 231.264 126.364 231.6C126.684 231.92 127.124 232.08 127.684 232.08Z" fill="#3E7C23"/>
<path d="M112.984 295V293.176L117.928 285.472C118.296 284.896 118.632 284.36 118.936 283.864C119.256 283.368 119.512 282.848 119.704 282.304C119.912 281.744 120.016 281.104 120.016 280.384C120.016 279.488 119.872 278.784 119.584 278.272C119.296 277.76 118.792 277.504 118.072 277.504C117.464 277.504 116.992 277.672 116.656 278.008C116.32 278.344 116.088 278.784 115.96 279.328C115.832 279.872 115.768 280.456 115.768 281.08V281.728H113.2V281.056C113.2 279.888 113.352 278.888 113.656 278.056C113.976 277.208 114.48 276.552 115.168 276.088C115.872 275.624 116.8 275.392 117.952 275.392C119.52 275.392 120.688 275.84 121.456 276.736C122.224 277.616 122.608 278.84 122.608 280.408C122.608 281.24 122.504 281.968 122.296 282.592C122.104 283.216 121.848 283.8 121.528 284.344C121.208 284.888 120.856 285.448 120.472 286.024L116.008 292.84H122.152V295H112.984ZM129.173 295.216C128.117 295.216 127.237 295.016 126.533 294.616C125.829 294.216 125.301 293.64 124.949 292.888C124.597 292.136 124.421 291.248 124.421 290.224V289.576H126.965C126.965 289.64 126.965 289.712 126.965 289.792C126.965 289.856 126.965 289.928 126.965 290.008C126.981 290.584 127.045 291.104 127.157 291.568C127.285 292.032 127.501 292.4 127.805 292.672C128.125 292.944 128.581 293.08 129.173 293.08C129.797 293.08 130.269 292.936 130.589 292.648C130.909 292.344 131.125 291.92 131.237 291.376C131.349 290.832 131.405 290.208 131.405 289.504C131.405 288.48 131.213 287.648 130.829 287.008C130.461 286.352 129.805 285.992 128.861 285.928C128.813 285.912 128.749 285.904 128.669 285.904C128.605 285.904 128.549 285.904 128.501 285.904V283.336C128.549 283.336 128.605 283.336 128.669 283.336C128.733 283.336 128.789 283.336 128.837 283.336C129.749 283.304 130.405 283.064 130.805 282.616C131.205 282.168 131.405 281.424 131.405 280.384C131.405 279.504 131.253 278.8 130.949 278.272C130.661 277.744 130.077 277.48 129.197 277.48C128.317 277.48 127.733 277.776 127.445 278.368C127.157 278.944 126.997 279.688 126.965 280.6C126.965 280.664 126.965 280.736 126.965 280.816C126.965 280.88 126.965 280.944 126.965 281.008H124.421V280.36C124.421 279.32 124.597 278.432 124.949 277.696C125.301 276.96 125.829 276.392 126.533 275.992C127.253 275.592 128.141 275.392 129.197 275.392C130.269 275.392 131.157 275.592 131.861 275.992C132.565 276.392 133.093 276.968 133.445 277.72C133.797 278.456 133.973 279.344 133.973 280.384C133.973 281.552 133.717 282.488 133.205 283.192C132.709 283.896 132.037 284.376 131.189 284.632C131.781 284.808 132.277 285.112 132.677 285.544C133.093 285.976 133.413 286.528 133.637 287.2C133.861 287.856 133.973 288.624 133.973 289.504C133.973 290.656 133.813 291.664 133.493 292.528C133.173 293.376 132.661 294.04 131.957 294.52C131.253 294.984 130.325 295.216 129.173 295.216Z" fill="#3E7C23"/>
<path d="M116.712 353.216C115.656 353.216 114.776 353.016 114.072 352.616C113.368 352.216 112.84 351.64 112.488 350.888C112.136 350.136 111.96 349.248 111.96 348.224V347.576H114.504C114.504 347.64 114.504 347.712 114.504 347.792C114.504 347.856 114.504 347.928 114.504 348.008C114.52 348.584 114.584 349.104 114.696 349.568C114.824 350.032 115.04 350.4 115.344 350.672C115.664 350.944 116.12 351.08 116.712 351.08C117.336 351.08 117.808 350.936 118.128 350.648C118.448 350.344 118.664 349.92 118.776 349.376C118.888 348.832 118.944 348.208 118.944 347.504C118.944 346.48 118.752 345.648 118.368 345.008C118 344.352 117.344 343.992 116.4 343.928C116.352 343.912 116.288 343.904 116.208 343.904C116.144 343.904 116.088 343.904 116.04 343.904V341.336C116.088 341.336 116.144 341.336 116.208 341.336C116.272 341.336 116.328 341.336 116.376 341.336C117.288 341.304 117.944 341.064 118.344 340.616C118.744 340.168 118.944 339.424 118.944 338.384C118.944 337.504 118.792 336.8 118.488 336.272C118.2 335.744 117.616 335.48 116.736 335.48C115.856 335.48 115.272 335.776 114.984 336.368C114.696 336.944 114.536 337.688 114.504 338.6C114.504 338.664 114.504 338.736 114.504 338.816C114.504 338.88 114.504 338.944 114.504 339.008H111.96V338.36C111.96 337.32 112.136 336.432 112.488 335.696C112.84 334.96 113.368 334.392 114.072 333.992C114.792 333.592 115.68 333.392 116.736 333.392C117.808 333.392 118.696 333.592 119.4 333.992C120.104 334.392 120.632 334.968 120.984 335.72C121.336 336.456 121.512 337.344 121.512 338.384C121.512 339.552 121.256 340.488 120.744 341.192C120.248 341.896 119.576 342.376 118.728 342.632C119.32 342.808 119.816 343.112 120.216 343.544C120.632 343.976 120.952 344.528 121.176 345.2C121.4 345.856 121.512 346.624 121.512 347.504C121.512 348.656 121.352 349.664 121.032 350.528C120.712 351.376 120.2 352.04 119.496 352.52C118.792 352.984 117.864 353.216 116.712 353.216ZM128.654 353.216C127.55 353.216 126.638 352.968 125.918 352.472C125.214 351.976 124.686 351.296 124.334 350.432C123.998 349.568 123.83 348.584 123.83 347.48V339.104C123.83 337.968 123.998 336.976 124.334 336.128C124.67 335.264 125.19 334.592 125.894 334.112C126.614 333.632 127.534 333.392 128.654 333.392C129.774 333.392 130.686 333.632 131.39 334.112C132.094 334.592 132.614 335.264 132.95 336.128C133.286 336.976 133.454 337.968 133.454 339.104V347.48C133.454 348.6 133.278 349.592 132.926 350.456C132.59 351.32 132.07 352 131.366 352.496C130.662 352.976 129.758 353.216 128.654 353.216ZM128.654 351.104C129.262 351.104 129.718 350.928 130.022 350.576C130.342 350.224 130.558 349.776 130.67 349.232C130.798 348.672 130.862 348.096 130.862 347.504V339.08C130.862 338.456 130.806 337.872 130.694 337.328C130.582 336.768 130.366 336.32 130.046 335.984C129.742 335.648 129.278 335.48 128.654 335.48C128.03 335.48 127.558 335.648 127.238 335.984C126.918 336.32 126.702 336.768 126.59 337.328C126.478 337.872 126.422 338.456 126.422 339.08V347.504C126.422 348.096 126.478 348.672 126.59 349.232C126.718 349.776 126.942 350.224 127.262 350.576C127.598 350.928 128.062 351.104 128.654 351.104Z" fill="#3E7C23"/>
<path d="M184.712 112.216C183.656 112.216 182.776 112.016 182.072 111.616C181.368 111.216 180.84 110.64 180.488 109.888C180.136 109.136 179.96 108.248 179.96 107.224V106.576H182.504C182.504 106.64 182.504 106.712 182.504 106.792C182.504 106.856 182.504 106.928 182.504 107.008C182.52 107.584 182.584 108.104 182.696 108.568C182.824 109.032 183.04 109.4 183.344 109.672C183.664 109.944 184.12 110.08 184.712 110.08C185.336 110.08 185.808 109.936 186.128 109.648C186.448 109.344 186.664 108.92 186.776 108.376C186.888 107.832 186.944 107.208 186.944 106.504C186.944 105.48 186.752 104.648 186.368 104.008C186 103.352 185.344 102.992 184.4 102.928C184.352 102.912 184.288 102.904 184.208 102.904C184.144 102.904 184.088 102.904 184.04 102.904V100.336C184.088 100.336 184.144 100.336 184.208 100.336C184.272 100.336 184.328 100.336 184.376 100.336C185.288 100.304 185.944 100.064 186.344 99.616C186.744 99.168 186.944 98.424 186.944 97.384C186.944 96.504 186.792 95.8 186.488 95.272C186.2 94.744 185.616 94.48 184.736 94.48C183.856 94.48 183.272 94.776 182.984 95.368C182.696 95.944 182.536 96.688 182.504 97.6C182.504 97.664 182.504 97.736 182.504 97.816C182.504 97.88 182.504 97.944 182.504 98.008H179.96V97.36C179.96 96.32 180.136 95.432 180.488 94.696C180.84 93.96 181.368 93.392 182.072 92.992C182.792 92.592 183.68 92.392 184.736 92.392C185.808 92.392 186.696 92.592 187.4 92.992C188.104 93.392 188.632 93.968 188.984 94.72C189.336 95.456 189.512 96.344 189.512 97.384C189.512 98.552 189.256 99.488 188.744 100.192C188.248 100.896 187.576 101.376 186.728 101.632C187.32 101.808 187.816 102.112 188.216 102.544C188.632 102.976 188.952 103.528 189.176 104.2C189.4 104.856 189.512 105.624 189.512 106.504C189.512 107.656 189.352 108.664 189.032 109.528C188.712 110.376 188.2 111.04 187.496 111.52C186.792 111.984 185.864 112.216 184.712 112.216Z" fill="#3E7C23"/>
<path d="M178.104 173V156.92C178.088 156.936 177.904 156.984 177.552 157.064C177.216 157.144 176.832 157.224 176.4 157.304C175.968 157.384 175.584 157.456 175.248 157.52C174.912 157.584 174.736 157.616 174.72 157.616V155.672C174.992 155.608 175.304 155.52 175.656 155.408C176.024 155.296 176.392 155.16 176.76 155C177.144 154.84 177.504 154.64 177.84 154.4C178.192 154.16 178.488 153.88 178.728 153.56H180.672V173H178.104ZM189.732 173.216C188.628 173.216 187.716 172.968 186.996 172.472C186.292 171.976 185.764 171.296 185.412 170.432C185.076 169.568 184.908 168.584 184.908 167.48V159.104C184.908 157.968 185.076 156.976 185.412 156.128C185.748 155.264 186.268 154.592 186.972 154.112C187.692 153.632 188.612 153.392 189.732 153.392C190.852 153.392 191.764 153.632 192.468 154.112C193.172 154.592 193.692 155.264 194.028 156.128C194.364 156.976 194.532 157.968 194.532 159.104V167.48C194.532 168.6 194.356 169.592 194.004 170.456C193.668 171.32 193.148 172 192.444 172.496C191.74 172.976 190.836 173.216 189.732 173.216ZM189.732 171.104C190.34 171.104 190.796 170.928 191.1 170.576C191.42 170.224 191.636 169.776 191.748 169.232C191.876 168.672 191.94 168.096 191.94 167.504V159.08C191.94 158.456 191.884 157.872 191.772 157.328C191.66 156.768 191.444 156.32 191.124 155.984C190.82 155.648 190.356 155.48 189.732 155.48C189.108 155.48 188.636 155.648 188.316 155.984C187.996 156.32 187.78 156.768 187.668 157.328C187.556 157.872 187.5 158.456 187.5 159.08V167.504C187.5 168.096 187.556 168.672 187.668 169.232C187.796 169.776 188.02 170.224 188.34 170.576C188.676 170.928 189.14 171.104 189.732 171.104Z" fill="#3E7C23"/>
<path d="M180.104 234V217.92C180.088 217.936 179.904 217.984 179.552 218.064C179.216 218.144 178.832 218.224 178.4 218.304C177.968 218.384 177.584 218.456 177.248 218.52C176.912 218.584 176.736 218.616 176.72 218.616V216.672C176.992 216.608 177.304 216.52 177.656 216.408C178.024 216.296 178.392 216.16 178.76 216C179.144 215.84 179.504 215.64 179.84 215.4C180.192 215.16 180.488 214.88 180.728 214.56H182.672V234H180.104ZM187.748 234L191.252 216.576H186.044V214.56H193.82V215.808L190.22 234H187.748Z" fill="#3E7C23"/>
<path d="M173.984 295V293.176L178.928 285.472C179.296 284.896 179.632 284.36 179.936 283.864C180.256 283.368 180.512 282.848 180.704 282.304C180.912 281.744 181.016 281.104 181.016 280.384C181.016 279.488 180.872 278.784 180.584 278.272C180.296 277.76 179.792 277.504 179.072 277.504C178.464 277.504 177.992 277.672 177.656 278.008C177.32 278.344 177.088 278.784 176.96 279.328C176.832 279.872 176.768 280.456 176.768 281.08V281.728H174.2V281.056C174.2 279.888 174.352 278.888 174.656 278.056C174.976 277.208 175.48 276.552 176.168 276.088C176.872 275.624 177.8 275.392 178.952 275.392C180.52 275.392 181.688 275.84 182.456 276.736C183.224 277.616 183.608 278.84 183.608 280.408C183.608 281.24 183.504 281.968 183.296 282.592C183.104 283.216 182.848 283.8 182.528 284.344C182.208 284.888 181.856 285.448 181.472 286.024L177.008 292.84H183.152V295H173.984ZM191.061 295V289.792H185.421V287.104L190.485 275.56H193.509V287.512H195.693V289.792H193.509V295H191.061ZM187.893 287.512H191.061V278.68L187.893 287.512Z" fill="#3E7C23"/>
<path d="M181.712 353.216C180.656 353.216 179.776 353.016 179.072 352.616C178.368 352.216 177.84 351.64 177.488 350.888C177.136 350.136 176.96 349.248 176.96 348.224V347.576H179.504C179.504 347.64 179.504 347.712 179.504 347.792C179.504 347.856 179.504 347.928 179.504 348.008C179.52 348.584 179.584 349.104 179.696 349.568C179.824 350.032 180.04 350.4 180.344 350.672C180.664 350.944 181.12 351.08 181.712 351.08C182.336 351.08 182.808 350.936 183.128 350.648C183.448 350.344 183.664 349.92 183.776 349.376C183.888 348.832 183.944 348.208 183.944 347.504C183.944 346.48 183.752 345.648 183.368 345.008C183 344.352 182.344 343.992 181.4 343.928C181.352 343.912 181.288 343.904 181.208 343.904C181.144 343.904 181.088 343.904 181.04 343.904V341.336C181.088 341.336 181.144 341.336 181.208 341.336C181.272 341.336 181.328 341.336 181.376 341.336C182.288 341.304 182.944 341.064 183.344 340.616C183.744 340.168 183.944 339.424 183.944 338.384C183.944 337.504 183.792 336.8 183.488 336.272C183.2 335.744 182.616 335.48 181.736 335.48C180.856 335.48 180.272 335.776 179.984 336.368C179.696 336.944 179.536 337.688 179.504 338.6C179.504 338.664 179.504 338.736 179.504 338.816C179.504 338.88 179.504 338.944 179.504 339.008H176.96V338.36C176.96 337.32 177.136 336.432 177.488 335.696C177.84 334.96 178.368 334.392 179.072 333.992C179.792 333.592 180.68 333.392 181.736 333.392C182.808 333.392 183.696 333.592 184.4 333.992C185.104 334.392 185.632 334.968 185.984 335.72C186.336 336.456 186.512 337.344 186.512 338.384C186.512 339.552 186.256 340.488 185.744 341.192C185.248 341.896 184.576 342.376 183.728 342.632C184.32 342.808 184.816 343.112 185.216 343.544C185.632 343.976 185.952 344.528 186.176 345.2C186.4 345.856 186.512 346.624 186.512 347.504C186.512 348.656 186.352 349.664 186.032 350.528C185.712 351.376 185.2 352.04 184.496 352.52C183.792 352.984 182.864 353.216 181.712 353.216ZM191.542 353V336.92C191.526 336.936 191.342 336.984 190.99 337.064C190.654 337.144 190.27 337.224 189.838 337.304C189.406 337.384 189.022 337.456 188.686 337.52C188.35 337.584 188.174 337.616 188.158 337.616V335.672C188.43 335.608 188.742 335.52 189.094 335.408C189.462 335.296 189.83 335.16 190.198 335C190.582 334.84 190.942 334.64 191.278 334.4C191.63 334.16 191.926 333.88 192.166 333.56H194.11V353H191.542Z" fill="#3E7C23"/>
<path d="M247.6 112V106.792H241.96V104.104L247.024 92.56H250.048V104.512H252.232V106.792H250.048V112H247.6ZM244.432 104.512H247.6V95.68L244.432 104.512Z" fill="#3E7C23"/>
<path d="M245.104 172V155.92C245.088 155.936 244.904 155.984 244.552 156.064C244.216 156.144 243.832 156.224 243.4 156.304C242.968 156.384 242.584 156.456 242.248 156.52C241.912 156.584 241.736 156.616 241.72 156.616V154.672C241.992 154.608 242.304 154.52 242.656 154.408C243.024 154.296 243.392 154.16 243.76 154C244.144 153.84 244.504 153.64 244.84 153.4C245.192 153.16 245.488 152.88 245.728 152.56H247.672V172H245.104ZM254.62 172V155.92C254.604 155.936 254.42 155.984 254.068 156.064C253.732 156.144 253.348 156.224 252.916 156.304C252.484 156.384 252.1 156.456 251.764 156.52C251.428 156.584 251.252 156.616 251.236 156.616V154.672C251.508 154.608 251.82 154.52 252.172 154.408C252.54 154.296 252.908 154.16 253.276 154C253.66 153.84 254.02 153.64 254.356 153.4C254.708 153.16 255.004 152.88 255.244 152.56H257.188V172H254.62Z" fill="#3E7C23"/>
<path d="M240.104 234V217.92C240.088 217.936 239.904 217.984 239.552 218.064C239.216 218.144 238.832 218.224 238.4 218.304C237.968 218.384 237.584 218.456 237.248 218.52C236.912 218.584 236.736 218.616 236.72 218.616V216.672C236.992 216.608 237.304 216.52 237.656 216.408C238.024 216.296 238.392 216.16 238.76 216C239.144 215.84 239.504 215.64 239.84 215.4C240.192 215.16 240.488 214.88 240.728 214.56H242.672V234H240.104ZM251.516 234.216C250.348 234.216 249.412 233.984 248.708 233.52C248.004 233.056 247.492 232.4 247.172 231.552C246.868 230.688 246.716 229.68 246.716 228.528C246.716 227.872 246.772 227.296 246.884 226.8C246.996 226.304 247.156 225.872 247.364 225.504C247.588 225.12 247.844 224.792 248.132 224.52C248.436 224.232 248.764 223.976 249.116 223.752C248.476 223.32 247.956 222.76 247.556 222.072C247.156 221.368 246.956 220.48 246.956 219.408C246.956 218.384 247.116 217.496 247.436 216.744C247.756 215.992 248.252 215.416 248.924 215.016C249.612 214.6 250.476 214.392 251.516 214.392C252.556 214.392 253.404 214.6 254.06 215.016C254.732 215.416 255.228 215.992 255.548 216.744C255.868 217.496 256.028 218.384 256.028 219.408C256.028 220.496 255.828 221.384 255.428 222.072C255.044 222.76 254.524 223.32 253.868 223.752C254.22 223.976 254.54 224.232 254.828 224.52C255.132 224.792 255.388 225.12 255.596 225.504C255.82 225.872 255.988 226.304 256.1 226.8C256.228 227.296 256.292 227.872 256.292 228.528C256.292 229.68 256.132 230.688 255.812 231.552C255.508 232.4 255.004 233.056 254.3 233.52C253.612 233.984 252.684 234.216 251.516 234.216ZM251.516 232.176C252.14 232.176 252.62 232.016 252.956 231.696C253.292 231.376 253.516 230.944 253.628 230.4C253.756 229.856 253.82 229.248 253.82 228.576C253.82 227.968 253.748 227.4 253.604 226.872C253.476 226.328 253.244 225.888 252.908 225.552C252.572 225.2 252.108 225.024 251.516 225.024C250.924 225.024 250.452 225.192 250.1 225.528C249.764 225.864 249.524 226.304 249.38 226.848C249.236 227.376 249.164 227.952 249.164 228.576C249.164 229.248 249.228 229.856 249.356 230.4C249.484 230.944 249.716 231.376 250.052 231.696C250.404 232.016 250.892 232.176 251.516 232.176ZM251.516 222.576C252.06 222.56 252.468 222.392 252.74 222.072C253.028 221.752 253.228 221.344 253.34 220.848C253.452 220.336 253.508 219.808 253.508 219.264C253.508 218.464 253.364 217.784 253.076 217.224C252.788 216.664 252.268 216.384 251.516 216.384C250.764 216.384 250.236 216.664 249.932 217.224C249.628 217.784 249.476 218.464 249.476 219.264C249.476 219.808 249.532 220.336 249.644 220.848C249.756 221.344 249.956 221.752 250.244 222.072C250.548 222.392 250.972 222.56 251.516 222.576Z" fill="#3E7C23"/>
<path d="M237.984 295V293.176L242.928 285.472C243.296 284.896 243.632 284.36 243.936 283.864C244.256 283.368 244.512 282.848 244.704 282.304C244.912 281.744 245.016 281.104 245.016 280.384C245.016 279.488 244.872 278.784 244.584 278.272C244.296 277.76 243.792 277.504 243.072 277.504C242.464 277.504 241.992 277.672 241.656 278.008C241.32 278.344 241.088 278.784 240.96 279.328C240.832 279.872 240.768 280.456 240.768 281.08V281.728H238.2V281.056C238.2 279.888 238.352 278.888 238.656 278.056C238.976 277.208 239.48 276.552 240.168 276.088C240.872 275.624 241.8 275.392 242.952 275.392C244.52 275.392 245.688 275.84 246.456 276.736C247.224 277.616 247.608 278.84 247.608 280.408C247.608 281.24 247.504 281.968 247.296 282.592C247.104 283.216 246.848 283.8 246.528 284.344C246.208 284.888 245.856 285.448 245.472 286.024L241.008 292.84H247.152V295H237.984ZM254.293 295.192C253.125 295.192 252.197 294.968 251.509 294.52C250.821 294.072 250.325 293.424 250.021 292.576C249.733 291.728 249.589 290.72 249.589 289.552H252.157C252.157 290.128 252.205 290.696 252.301 291.256C252.397 291.8 252.597 292.256 252.901 292.624C253.221 292.976 253.701 293.152 254.341 293.152C255.045 293.152 255.549 292.952 255.853 292.552C256.157 292.136 256.349 291.584 256.429 290.896C256.509 290.192 256.549 289.4 256.549 288.52C256.549 287.64 256.501 286.896 256.405 286.288C256.309 285.664 256.109 285.192 255.805 284.872C255.501 284.536 255.021 284.368 254.365 284.368C253.837 284.368 253.389 284.536 253.021 284.872C252.653 285.192 252.381 285.56 252.205 285.976H250.021V275.56H258.397V278.128H252.349L252.181 283.504C252.501 283.168 252.893 282.904 253.357 282.712C253.837 282.52 254.381 282.424 254.989 282.424C256.045 282.424 256.869 282.672 257.461 283.168C258.069 283.664 258.493 284.344 258.733 285.208C258.989 286.072 259.117 287.064 259.117 288.184C259.117 289.176 259.045 290.104 258.901 290.968C258.757 291.816 258.501 292.56 258.133 293.2C257.781 293.824 257.293 294.312 256.669 294.664C256.045 295.016 255.253 295.192 254.293 295.192Z" fill="#3E7C23"/>
<path d="M246.104 356V339.92C246.088 339.936 245.904 339.984 245.552 340.064C245.216 340.144 244.832 340.224 244.4 340.304C243.968 340.384 243.584 340.456 243.248 340.52C242.912 340.584 242.736 340.616 242.72 340.616V338.672C242.992 338.608 243.304 338.52 243.656 338.408C244.024 338.296 244.392 338.16 244.76 338C245.144 337.84 245.504 337.64 245.84 337.4C246.192 337.16 246.488 336.88 246.728 336.56H248.672V356H246.104Z" fill="#AEFF8B"/>
<path d="M308.832 112.192C307.664 112.192 306.736 111.968 306.048 111.52C305.36 111.072 304.864 110.424 304.56 109.576C304.272 108.728 304.128 107.72 304.128 106.552H306.696C306.696 107.128 306.744 107.696 306.84 108.256C306.936 108.8 307.136 109.256 307.44 109.624C307.76 109.976 308.24 110.152 308.88 110.152C309.584 110.152 310.088 109.952 310.392 109.552C310.696 109.136 310.888 108.584 310.968 107.896C311.048 107.192 311.088 106.4 311.088 105.52C311.088 104.64 311.04 103.896 310.944 103.288C310.848 102.664 310.648 102.192 310.344 101.872C310.04 101.536 309.56 101.368 308.904 101.368C308.376 101.368 307.928 101.536 307.56 101.872C307.192 102.192 306.92 102.56 306.744 102.976H304.56V92.56H312.936V95.128H306.888L306.72 100.504C307.04 100.168 307.432 99.904 307.896 99.712C308.376 99.52 308.92 99.424 309.528 99.424C310.584 99.424 311.408 99.672 312 100.168C312.608 100.664 313.032 101.344 313.272 102.208C313.528 103.072 313.656 104.064 313.656 105.184C313.656 106.176 313.584 107.104 313.44 107.968C313.296 108.816 313.04 109.56 312.672 110.2C312.32 110.824 311.832 111.312 311.208 111.664C310.584 112.016 309.792 112.192 308.832 112.192Z" fill="#3E7C23"/>
<path d="M302.104 173V156.92C302.088 156.936 301.904 156.984 301.552 157.064C301.216 157.144 300.832 157.224 300.4 157.304C299.968 157.384 299.584 157.456 299.248 157.52C298.912 157.584 298.736 157.616 298.72 157.616V155.672C298.992 155.608 299.304 155.52 299.656 155.408C300.024 155.296 300.392 155.16 300.76 155C301.144 154.84 301.504 154.64 301.84 154.4C302.192 154.16 302.488 153.88 302.728 153.56H304.672V173H302.104ZM308.5 173V171.176L313.444 163.472C313.812 162.896 314.148 162.36 314.452 161.864C314.772 161.368 315.028 160.848 315.22 160.304C315.428 159.744 315.532 159.104 315.532 158.384C315.532 157.488 315.388 156.784 315.1 156.272C314.812 155.76 314.308 155.504 313.588 155.504C312.98 155.504 312.508 155.672 312.172 156.008C311.836 156.344 311.604 156.784 311.476 157.328C311.348 157.872 311.284 158.456 311.284 159.08V159.728H308.716V159.056C308.716 157.888 308.868 156.888 309.172 156.056C309.492 155.208 309.996 154.552 310.684 154.088C311.388 153.624 312.316 153.392 313.468 153.392C315.036 153.392 316.204 153.84 316.972 154.736C317.74 155.616 318.124 156.84 318.124 158.408C318.124 159.24 318.02 159.968 317.812 160.592C317.62 161.216 317.364 161.8 317.044 162.344C316.724 162.888 316.372 163.448 315.988 164.024L311.524 170.84H317.668V173H308.5Z" fill="#3E7C23"/>
<path d="M302.104 234V217.92C302.088 217.936 301.904 217.984 301.552 218.064C301.216 218.144 300.832 218.224 300.4 218.304C299.968 218.384 299.584 218.456 299.248 218.52C298.912 218.584 298.736 218.616 298.72 218.616V216.672C298.992 216.608 299.304 216.52 299.656 216.408C300.024 216.296 300.392 216.16 300.76 216C301.144 215.84 301.504 215.64 301.84 215.4C302.192 215.16 302.488 214.88 302.728 214.56H304.672V234H302.104ZM313.396 234.216C312.388 234.216 311.524 234.032 310.804 233.664C310.1 233.28 309.564 232.728 309.196 232.008C308.828 231.288 308.636 230.416 308.62 229.392C308.62 229.36 308.62 229.328 308.62 229.296C308.62 229.248 308.62 229.208 308.62 229.176H311.188C311.188 230.104 311.34 230.824 311.644 231.336C311.948 231.832 312.54 232.08 313.42 232.08C313.9 232.08 314.3 231.936 314.62 231.648C314.94 231.344 315.18 230.888 315.34 230.28C315.5 229.656 315.58 228.872 315.58 227.928V224.976C315.34 225.376 314.98 225.704 314.5 225.96C314.036 226.2 313.452 226.32 312.748 226.32C311.676 226.32 310.836 226.088 310.228 225.624C309.62 225.144 309.188 224.488 308.932 223.656C308.692 222.808 308.572 221.824 308.572 220.704C308.572 219.52 308.732 218.456 309.052 217.512C309.372 216.552 309.884 215.792 310.588 215.232C311.308 214.672 312.244 214.392 313.396 214.392C314.516 214.392 315.428 214.68 316.132 215.256C316.836 215.816 317.348 216.576 317.668 217.536C318.004 218.496 318.172 219.568 318.172 220.752V227.28C318.172 228.528 318.028 229.68 317.74 230.736C317.452 231.792 316.964 232.64 316.276 233.28C315.588 233.904 314.628 234.216 313.396 234.216ZM313.396 224.376C313.956 224.376 314.412 224.24 314.764 223.968C315.116 223.68 315.388 223.368 315.58 223.032V220.152C315.58 219.48 315.516 218.872 315.388 218.328C315.26 217.768 315.036 217.328 314.716 217.008C314.396 216.672 313.956 216.504 313.396 216.504C312.836 216.504 312.388 216.672 312.052 217.008C311.732 217.344 311.5 217.784 311.356 218.328C311.228 218.856 311.164 219.44 311.164 220.08C311.164 220.848 311.196 221.56 311.26 222.216C311.34 222.872 311.532 223.4 311.836 223.8C312.156 224.184 312.676 224.376 313.396 224.376Z" fill="#3E7C23"/>
<path d="M299.984 295V293.176L304.928 285.472C305.296 284.896 305.632 284.36 305.936 283.864C306.256 283.368 306.512 282.848 306.704 282.304C306.912 281.744 307.016 281.104 307.016 280.384C307.016 279.488 306.872 278.784 306.584 278.272C306.296 277.76 305.792 277.504 305.072 277.504C304.464 277.504 303.992 277.672 303.656 278.008C303.32 278.344 303.088 278.784 302.96 279.328C302.832 279.872 302.768 280.456 302.768 281.08V281.728H300.2V281.056C300.2 279.888 300.352 278.888 300.656 278.056C300.976 277.208 301.48 276.552 302.168 276.088C302.872 275.624 303.8 275.392 304.952 275.392C306.52 275.392 307.688 275.84 308.456 276.736C309.224 277.616 309.608 278.84 309.608 280.408C309.608 281.24 309.504 281.968 309.296 282.592C309.104 283.216 308.848 283.8 308.528 284.344C308.208 284.888 307.856 285.448 307.472 286.024L303.008 292.84H309.152V295H299.984ZM316.629 295.216C315.509 295.216 314.597 294.936 313.893 294.376C313.189 293.8 312.669 293.032 312.333 292.072C312.013 291.096 311.853 290.016 311.853 288.832V282.28C311.853 281.016 311.997 279.864 312.285 278.824C312.573 277.784 313.061 276.952 313.749 276.328C314.453 275.704 315.413 275.392 316.629 275.392C317.637 275.392 318.485 275.576 319.173 275.944C319.877 276.312 320.413 276.848 320.781 277.552C321.165 278.256 321.365 279.112 321.381 280.12C321.381 280.152 321.381 280.2 321.381 280.264C321.397 280.312 321.405 280.36 321.405 280.408H318.813C318.813 279.464 318.661 278.744 318.357 278.248C318.053 277.752 317.477 277.504 316.629 277.504C316.165 277.504 315.765 277.656 315.429 277.96C315.093 278.248 314.837 278.696 314.661 279.304C314.501 279.912 314.421 280.696 314.421 281.656V284.608C314.677 284.208 315.037 283.888 315.501 283.648C315.981 283.392 316.565 283.264 317.253 283.264C318.325 283.264 319.165 283.496 319.773 283.96C320.381 284.424 320.813 285.08 321.069 285.928C321.325 286.76 321.453 287.744 321.453 288.88C321.453 290.048 321.293 291.112 320.973 292.072C320.653 293.032 320.141 293.8 319.437 294.376C318.733 294.936 317.797 295.216 316.629 295.216ZM316.629 293.08C317.205 293.08 317.653 292.92 317.973 292.6C318.293 292.264 318.517 291.824 318.645 291.28C318.789 290.736 318.861 290.144 318.861 289.504C318.861 288.736 318.821 288.024 318.741 287.368C318.677 286.712 318.493 286.192 318.189 285.808C317.885 285.408 317.365 285.208 316.629 285.208C316.277 285.208 315.957 285.272 315.669 285.4C315.381 285.528 315.133 285.696 314.925 285.904C314.717 286.096 314.549 286.304 314.421 286.528V289.432C314.421 290.088 314.485 290.696 314.613 291.256C314.757 291.816 314.989 292.264 315.309 292.6C315.629 292.92 316.069 293.08 316.629 293.08Z" fill="#3E7C23"/>
<path d="M305.984 356V354.176L310.928 346.472C311.296 345.896 311.632 345.36 311.936 344.864C312.256 344.368 312.512 343.848 312.704 343.304C312.912 342.744 313.016 342.104 313.016 341.384C313.016 340.488 312.872 339.784 312.584 339.272C312.296 338.76 311.792 338.504 311.072 338.504C310.464 338.504 309.992 338.672 309.656 339.008C309.32 339.344 309.088 339.784 308.96 340.328C308.832 340.872 308.768 341.456 308.768 342.08V342.728H306.2V342.056C306.2 340.888 306.352 339.888 306.656 339.056C306.976 338.208 307.48 337.552 308.168 337.088C308.872 336.624 309.8 336.392 310.952 336.392C312.52 336.392 313.688 336.84 314.456 337.736C315.224 338.616 315.608 339.84 315.608 341.408C315.608 342.24 315.504 342.968 315.296 343.592C315.104 344.216 314.848 344.8 314.528 345.344C314.208 345.888 313.856 346.448 313.472 347.024L309.008 353.84H315.152V356H305.984Z" fill="#AEFF8B"/>
<path d="M370.712 356.216C369.656 356.216 368.776 356.016 368.072 355.616C367.368 355.216 366.84 354.64 366.488 353.888C366.136 353.136 365.96 352.248 365.96 351.224V350.576H368.504C368.504 350.64 368.504 350.712 368.504 350.792C368.504 350.856 368.504 350.928 368.504 351.008C368.52 351.584 368.584 352.104 368.696 352.568C368.824 353.032 369.04 353.4 369.344 353.672C369.664 353.944 370.12 354.08 370.712 354.08C371.336 354.08 371.808 353.936 372.128 353.648C372.448 353.344 372.664 352.92 372.776 352.376C372.888 351.832 372.944 351.208 372.944 350.504C372.944 349.48 372.752 348.648 372.368 348.008C372 347.352 371.344 346.992 370.4 346.928C370.352 346.912 370.288 346.904 370.208 346.904C370.144 346.904 370.088 346.904 370.04 346.904V344.336C370.088 344.336 370.144 344.336 370.208 344.336C370.272 344.336 370.328 344.336 370.376 344.336C371.288 344.304 371.944 344.064 372.344 343.616C372.744 343.168 372.944 342.424 372.944 341.384C372.944 340.504 372.792 339.8 372.488 339.272C372.2 338.744 371.616 338.48 370.736 338.48C369.856 338.48 369.272 338.776 368.984 339.368C368.696 339.944 368.536 340.688 368.504 341.6C368.504 341.664 368.504 341.736 368.504 341.816C368.504 341.88 368.504 341.944 368.504 342.008H365.96V341.36C365.96 340.32 366.136 339.432 366.488 338.696C366.84 337.96 367.368 337.392 368.072 336.992C368.792 336.592 369.68 336.392 370.736 336.392C371.808 336.392 372.696 336.592 373.4 336.992C374.104 337.392 374.632 337.968 374.984 338.72C375.336 339.456 375.512 340.344 375.512 341.384C375.512 342.552 375.256 343.488 374.744 344.192C374.248 344.896 373.576 345.376 372.728 345.632C373.32 345.808 373.816 346.112 374.216 346.544C374.632 346.976 374.952 347.528 375.176 348.2C375.4 348.856 375.512 349.624 375.512 350.504C375.512 351.656 375.352 352.664 375.032 353.528C374.712 354.376 374.2 355.04 373.496 355.52C372.792 355.984 371.864 356.216 370.712 356.216Z" fill="#AEFF8B"/>
<path d="M433.6 356V350.792H427.96V348.104L433.024 336.56H436.048V348.512H438.232V350.792H436.048V356H433.6ZM430.432 348.512H433.6V339.68L430.432 348.512Z" fill="#AEFF8B"/>
<path d="M421.984 295V293.176L426.928 285.472C427.296 284.896 427.632 284.36 427.936 283.864C428.256 283.368 428.512 282.848 428.704 282.304C428.912 281.744 429.016 281.104 429.016 280.384C429.016 279.488 428.872 278.784 428.584 278.272C428.296 277.76 427.792 277.504 427.072 277.504C426.464 277.504 425.992 277.672 425.656 278.008C425.32 278.344 425.088 278.784 424.96 279.328C424.832 279.872 424.768 280.456 424.768 281.08V281.728H422.2V281.056C422.2 279.888 422.352 278.888 422.656 278.056C422.976 277.208 423.48 276.552 424.168 276.088C424.872 275.624 425.8 275.392 426.952 275.392C428.52 275.392 429.688 275.84 430.456 276.736C431.224 277.616 431.608 278.84 431.608 280.408C431.608 281.24 431.504 281.968 431.296 282.592C431.104 283.216 430.848 283.8 430.528 284.344C430.208 284.888 429.856 285.448 429.472 286.024L425.008 292.84H431.152V295H421.984ZM438.461 295.216C437.293 295.216 436.357 294.984 435.653 294.52C434.949 294.056 434.437 293.4 434.117 292.552C433.813 291.688 433.661 290.68 433.661 289.528C433.661 288.872 433.717 288.296 433.829 287.8C433.941 287.304 434.101 286.872 434.309 286.504C434.533 286.12 434.789 285.792 435.077 285.52C435.381 285.232 435.709 284.976 436.061 284.752C435.421 284.32 434.901 283.76 434.501 283.072C434.101 282.368 433.901 281.48 433.901 280.408C433.901 279.384 434.061 278.496 434.381 277.744C434.701 276.992 435.197 276.416 435.869 276.016C436.557 275.6 437.421 275.392 438.461 275.392C439.501 275.392 440.349 275.6 441.005 276.016C441.677 276.416 442.173 276.992 442.493 277.744C442.813 278.496 442.973 279.384 442.973 280.408C442.973 281.496 442.773 282.384 442.373 283.072C441.989 283.76 441.469 284.32 440.813 284.752C441.165 284.976 441.485 285.232 441.773 285.52C442.077 285.792 442.333 286.12 442.541 286.504C442.765 286.872 442.933 287.304 443.045 287.8C443.173 288.296 443.237 288.872 443.237 289.528C443.237 290.68 443.077 291.688 442.757 292.552C442.453 293.4 441.949 294.056 441.245 294.52C440.557 294.984 439.629 295.216 438.461 295.216ZM438.461 293.176C439.085 293.176 439.565 293.016 439.901 292.696C440.237 292.376 440.461 291.944 440.573 291.4C440.701 290.856 440.765 290.248 440.765 289.576C440.765 288.968 440.693 288.4 440.549 287.872C440.421 287.328 440.189 286.888 439.853 286.552C439.517 286.2 439.053 286.024 438.461 286.024C437.869 286.024 437.397 286.192 437.045 286.528C436.709 286.864 436.469 287.304 436.325 287.848C436.181 288.376 436.109 288.952 436.109 289.576C436.109 290.248 436.173 290.856 436.301 291.4C436.429 291.944 436.661 292.376 436.997 292.696C437.349 293.016 437.837 293.176 438.461 293.176ZM438.461 283.576C439.005 283.56 439.413 283.392 439.685 283.072C439.973 282.752 440.173 282.344 440.285 281.848C440.397 281.336 440.453 280.808 440.453 280.264C440.453 279.464 440.309 278.784 440.021 278.224C439.733 277.664 439.213 277.384 438.461 277.384C437.709 277.384 437.181 277.664 436.877 278.224C436.573 278.784 436.421 279.464 436.421 280.264C436.421 280.808 436.477 281.336 436.589 281.848C436.701 282.344 436.901 282.752 437.189 283.072C437.493 283.392 437.917 283.56 438.461 283.576Z" fill="#3E7C23"/>
<path d="M361.984 295V293.176L366.928 285.472C367.296 284.896 367.632 284.36 367.936 283.864C368.256 283.368 368.512 282.848 368.704 282.304C368.912 281.744 369.016 281.104 369.016 280.384C369.016 279.488 368.872 278.784 368.584 278.272C368.296 277.76 367.792 277.504 367.072 277.504C366.464 277.504 365.992 277.672 365.656 278.008C365.32 278.344 365.088 278.784 364.96 279.328C364.832 279.872 364.768 280.456 364.768 281.08V281.728H362.2V281.056C362.2 279.888 362.352 278.888 362.656 278.056C362.976 277.208 363.48 276.552 364.168 276.088C364.872 275.624 365.8 275.392 366.952 275.392C368.52 275.392 369.688 275.84 370.456 276.736C371.224 277.616 371.608 278.84 371.608 280.408C371.608 281.24 371.504 281.968 371.296 282.592C371.104 283.216 370.848 283.8 370.528 284.344C370.208 284.888 369.856 285.448 369.472 286.024L365.008 292.84H371.152V295H361.984ZM374.693 295L378.197 277.576H372.989V275.56H380.765V276.808L377.165 295H374.693Z" fill="#3E7C23"/>
<path d="M359.984 233V231.176L364.928 223.472C365.296 222.896 365.632 222.36 365.936 221.864C366.256 221.368 366.512 220.848 366.704 220.304C366.912 219.744 367.016 219.104 367.016 218.384C367.016 217.488 366.872 216.784 366.584 216.272C366.296 215.76 365.792 215.504 365.072 215.504C364.464 215.504 363.992 215.672 363.656 216.008C363.32 216.344 363.088 216.784 362.96 217.328C362.832 217.872 362.768 218.456 362.768 219.08V219.728H360.2V219.056C360.2 217.888 360.352 216.888 360.656 216.056C360.976 215.208 361.48 214.552 362.168 214.088C362.872 213.624 363.8 213.392 364.952 213.392C366.52 213.392 367.688 213.84 368.456 214.736C369.224 215.616 369.608 216.84 369.608 218.408C369.608 219.24 369.504 219.968 369.296 220.592C369.104 221.216 368.848 221.8 368.528 222.344C368.208 222.888 367.856 223.448 367.472 224.024L363.008 230.84H369.152V233H359.984ZM376.677 233.216C375.573 233.216 374.661 232.968 373.941 232.472C373.237 231.976 372.709 231.296 372.357 230.432C372.021 229.568 371.853 228.584 371.853 227.48V219.104C371.853 217.968 372.021 216.976 372.357 216.128C372.693 215.264 373.213 214.592 373.917 214.112C374.637 213.632 375.557 213.392 376.677 213.392C377.797 213.392 378.709 213.632 379.413 214.112C380.117 214.592 380.637 215.264 380.973 216.128C381.309 216.976 381.477 217.968 381.477 219.104V227.48C381.477 228.6 381.301 229.592 380.949 230.456C380.613 231.32 380.093 232 379.389 232.496C378.685 232.976 377.781 233.216 376.677 233.216ZM376.677 231.104C377.285 231.104 377.741 230.928 378.045 230.576C378.365 230.224 378.581 229.776 378.693 229.232C378.821 228.672 378.885 228.096 378.885 227.504V219.08C378.885 218.456 378.829 217.872 378.717 217.328C378.605 216.768 378.389 216.32 378.069 215.984C377.765 215.648 377.301 215.48 376.677 215.48C376.053 215.48 375.581 215.648 375.261 215.984C374.941 216.32 374.725 216.768 374.613 217.328C374.501 217.872 374.445 218.456 374.445 219.08V227.504C374.445 228.096 374.501 228.672 374.613 229.232C374.741 229.776 374.965 230.224 375.285 230.576C375.621 230.928 376.085 231.104 376.677 231.104Z" fill="#3E7C23"/>
<path d="M423.984 234V232.176L428.928 224.472C429.296 223.896 429.632 223.36 429.936 222.864C430.256 222.368 430.512 221.848 430.704 221.304C430.912 220.744 431.016 220.104 431.016 219.384C431.016 218.488 430.872 217.784 430.584 217.272C430.296 216.76 429.792 216.504 429.072 216.504C428.464 216.504 427.992 216.672 427.656 217.008C427.32 217.344 427.088 217.784 426.96 218.328C426.832 218.872 426.768 219.456 426.768 220.08V220.728H424.2V220.056C424.2 218.888 424.352 217.888 424.656 217.056C424.976 216.208 425.48 215.552 426.168 215.088C426.872 214.624 427.8 214.392 428.952 214.392C430.52 214.392 431.688 214.84 432.456 215.736C433.224 216.616 433.608 217.84 433.608 219.408C433.608 220.24 433.504 220.968 433.296 221.592C433.104 222.216 432.848 222.8 432.528 223.344C432.208 223.888 431.856 224.448 431.472 225.024L427.008 231.84H433.152V234H423.984ZM438.565 234V217.92C438.549 217.936 438.365 217.984 438.013 218.064C437.677 218.144 437.293 218.224 436.861 218.304C436.429 218.384 436.045 218.456 435.709 218.52C435.373 218.584 435.197 218.616 435.181 218.616V216.672C435.453 216.608 435.765 216.52 436.117 216.408C436.485 216.296 436.853 216.16 437.221 216C437.605 215.84 437.965 215.64 438.301 215.4C438.653 215.16 438.949 214.88 439.189 214.56H441.133V234H438.565Z" fill="#3E7C23"/>
<path d="M427.104 173V156.92C427.088 156.936 426.904 156.984 426.552 157.064C426.216 157.144 425.832 157.224 425.4 157.304C424.968 157.384 424.584 157.456 424.248 157.52C423.912 157.584 423.736 157.616 423.72 157.616V155.672C423.992 155.608 424.304 155.52 424.656 155.408C425.024 155.296 425.392 155.16 425.76 155C426.144 154.84 426.504 154.64 426.84 154.4C427.192 154.16 427.488 153.88 427.728 153.56H429.672V173H427.104ZM439.116 173V167.792H433.476V165.104L438.54 153.56H441.564V165.512H443.748V167.792H441.564V173H439.116ZM435.948 165.512H439.116V156.68L435.948 165.512Z" fill="#3E7C23"/>
<path d="M364.104 173V156.92C364.088 156.936 363.904 156.984 363.552 157.064C363.216 157.144 362.832 157.224 362.4 157.304C361.968 157.384 361.584 157.456 361.248 157.52C360.912 157.584 360.736 157.616 360.72 157.616V155.672C360.992 155.608 361.304 155.52 361.656 155.408C362.024 155.296 362.392 155.16 362.76 155C363.144 154.84 363.504 154.64 363.84 154.4C364.192 154.16 364.488 153.88 364.728 153.56H366.672V173H364.104ZM375.228 173.216C374.172 173.216 373.292 173.016 372.588 172.616C371.884 172.216 371.356 171.64 371.004 170.888C370.652 170.136 370.476 169.248 370.476 168.224V167.576H373.02C373.02 167.64 373.02 167.712 373.02 167.792C373.02 167.856 373.02 167.928 373.02 168.008C373.036 168.584 373.1 169.104 373.212 169.568C373.34 170.032 373.556 170.4 373.86 170.672C374.18 170.944 374.636 171.08 375.228 171.08C375.852 171.08 376.324 170.936 376.644 170.648C376.964 170.344 377.18 169.92 377.292 169.376C377.404 168.832 377.46 168.208 377.46 167.504C377.46 166.48 377.268 165.648 376.884 165.008C376.516 164.352 375.86 163.992 374.916 163.928C374.868 163.912 374.804 163.904 374.724 163.904C374.66 163.904 374.604 163.904 374.556 163.904V161.336C374.604 161.336 374.66 161.336 374.724 161.336C374.788 161.336 374.844 161.336 374.892 161.336C375.804 161.304 376.46 161.064 376.86 160.616C377.26 160.168 377.46 159.424 377.46 158.384C377.46 157.504 377.308 156.8 377.004 156.272C376.716 155.744 376.132 155.48 375.252 155.48C374.372 155.48 373.788 155.776 373.5 156.368C373.212 156.944 373.052 157.688 373.02 158.6C373.02 158.664 373.02 158.736 373.02 158.816C373.02 158.88 373.02 158.944 373.02 159.008H370.476V158.36C370.476 157.32 370.652 156.432 371.004 155.696C371.356 154.96 371.884 154.392 372.588 153.992C373.308 153.592 374.196 153.392 375.252 153.392C376.324 153.392 377.212 153.592 377.916 153.992C378.62 154.392 379.148 154.968 379.5 155.72C379.852 156.456 380.028 157.344 380.028 158.384C380.028 159.552 379.772 160.488 379.26 161.192C378.764 161.896 378.092 162.376 377.244 162.632C377.836 162.808 378.332 163.112 378.732 163.544C379.148 163.976 379.468 164.528 379.692 165.2C379.916 165.856 380.028 166.624 380.028 167.504C380.028 168.656 379.868 169.664 379.548 170.528C379.228 171.376 378.716 172.04 378.012 172.52C377.308 172.984 376.38 173.216 375.228 173.216Z" fill="#3E7C23"/>
<path d="M371.168 112.216C370.048 112.216 369.136 111.936 368.432 111.376C367.728 110.8 367.208 110.032 366.872 109.072C366.552 108.096 366.392 107.016 366.392 105.832V99.28C366.392 98.016 366.536 96.864 366.824 95.824C367.112 94.784 367.6 93.952 368.288 93.328C368.992 92.704 369.952 92.392 371.168 92.392C372.176 92.392 373.024 92.576 373.712 92.944C374.416 93.312 374.952 93.848 375.32 94.552C375.704 95.256 375.904 96.112 375.92 97.12C375.92 97.152 375.92 97.2 375.92 97.264C375.936 97.312 375.944 97.36 375.944 97.408H373.352C373.352 96.464 373.2 95.744 372.896 95.248C372.592 94.752 372.016 94.504 371.168 94.504C370.704 94.504 370.304 94.656 369.968 94.96C369.632 95.248 369.376 95.696 369.2 96.304C369.04 96.912 368.96 97.696 368.96 98.656V101.608C369.216 101.208 369.576 100.888 370.04 100.648C370.52 100.392 371.104 100.264 371.792 100.264C372.864 100.264 373.704 100.496 374.312 100.96C374.92 101.424 375.352 102.08 375.608 102.928C375.864 103.76 375.992 104.744 375.992 105.88C375.992 107.048 375.832 108.112 375.512 109.072C375.192 110.032 374.68 110.8 373.976 111.376C373.272 111.936 372.336 112.216 371.168 112.216ZM371.168 110.08C371.744 110.08 372.192 109.92 372.512 109.6C372.832 109.264 373.056 108.824 373.184 108.28C373.328 107.736 373.4 107.144 373.4 106.504C373.4 105.736 373.36 105.024 373.28 104.368C373.216 103.712 373.032 103.192 372.728 102.808C372.424 102.408 371.904 102.208 371.168 102.208C370.816 102.208 370.496 102.272 370.208 102.4C369.92 102.528 369.672 102.696 369.464 102.904C369.256 103.096 369.088 103.304 368.96 103.528V106.432C368.96 107.088 369.024 107.696 369.152 108.256C369.296 108.816 369.528 109.264 369.848 109.6C370.168 109.92 370.608 110.08 371.168 110.08Z" fill="#3E7C23"/>
<path d="M429.232 112L432.736 94.576H427.528V92.56H435.304V93.808L431.704 112H429.232Z" fill="#3E7C23"/>
</svg>
