<svg width="46" height="46" viewBox="0 0 46 46" fill="none" xmlns="http://www.w3.org/2000/svg">
<g clip-path="url(#clip0_49_483)">
<path d="M29.5812 17.6934C30.1434 17.1312 30.1462 16.2256 29.5875 15.6668C29.0287 15.1081 28.1231 15.1109 27.5609 15.6731L22.9868 20.2472L18.4411 15.7015C17.8823 15.1428 16.9767 15.1456 16.4145 15.7079C15.8522 16.2701 15.8494 17.1757 16.4081 17.7345L20.9538 22.2802L16.3797 26.8543C15.8175 27.4165 15.8147 28.3221 16.3734 28.8809C16.9322 29.4396 17.8378 29.4368 18.4 28.8746L22.9741 24.3005L27.5198 28.8462C28.0786 29.4049 28.9842 29.4021 29.5464 28.8398C30.1087 28.2776 30.1115 27.372 29.5528 26.8132L25.0071 22.2675L29.5812 17.6934Z" fill="#FF0000"/>
</g>
<circle cx="22.627" cy="22.6274" r="15" transform="rotate(45 22.627 22.6274)" stroke="#FF0000" stroke-width="2"/>
<defs>
<clipPath id="clip0_49_483">
<rect width="20" height="23" fill="white" transform="translate(24.041 7.07104) rotate(45)"/>
</clipPath>
</defs>
</svg>
