<svg width="56" height="56" viewBox="0 0 56 56" fill="none" xmlns="http://www.w3.org/2000/svg">
<path d="M28.0002 15.1667C32.2905 15.1524 36.4979 16.3492 40.1384 18.6194C43.779 20.8896 46.7051 24.141 48.5802 28C44.7302 35.8633 36.8668 40.8333 28.0002 40.8333C19.1335 40.8333 11.2702 35.8633 7.42016 28C9.29527 24.141 12.2213 20.8896 15.8619 18.6194C19.5025 16.3492 23.7098 15.1524 28.0002 15.1667ZM28.0002 10.5C16.3335 10.5 6.37016 17.7567 2.3335 28C6.37016 38.2433 16.3335 45.5 28.0002 45.5C39.6668 45.5 49.6302 38.2433 53.6668 28C49.6302 17.7567 39.6668 10.5 28.0002 10.5ZM28.0002 22.1667C29.5473 22.1667 31.031 22.7812 32.125 23.8752C33.2189 24.9692 33.8335 26.4529 33.8335 28C33.8335 29.5471 33.2189 31.0308 32.125 32.1248C31.031 33.2188 29.5473 33.8333 28.0002 33.8333C26.4531 33.8333 24.9693 33.2188 23.8754 32.1248C22.7814 31.0308 22.1668 29.5471 22.1668 28C22.1668 26.4529 22.7814 24.9692 23.8754 23.8752C24.9693 22.7812 26.4531 22.1667 28.0002 22.1667ZM28.0002 17.5C22.2135 17.5 17.5002 22.2133 17.5002 28C17.5002 33.7867 22.2135 38.5 28.0002 38.5C33.7868 38.5 38.5002 33.7867 38.5002 28C38.5002 22.2133 33.7868 17.5 28.0002 17.5Z" fill="#51A230"/>
</svg>
