<svg width="412" height="337" viewBox="0 0 412 337" fill="none" xmlns="http://www.w3.org/2000/svg">
<path d="M172.9 9.35041C231.548 8.44697 283.619 36.9806 313.844 80.6467L322.186 75.8147C290.225 29.4109 234.972 -0.929601 172.75 0.0217463C75.9563 1.5001 -1.52144 78.1007 0.0226856 170.772C1.57396 263.429 81.5752 337.62 178.362 336.142C275.148 334.657 352.64 258.056 351.089 165.392C350.624 137.632 343.075 111.555 330.2 88.6545L321.843 93.4865C333.86 115.012 340.909 139.493 341.338 165.543C342.803 253.06 269.615 325.41 178.204 326.799C86.808 328.209 11.239 258.138 9.77354 170.628C8.3152 83.1038 81.4966 10.7535 172.9 9.35041Z" fill="#51A230"/>
<path d="M173.672 55.6372C214.584 55.0076 250.921 74.5136 272.453 104.573L306.023 85.1633C277.471 44.091 228.41 17.3096 173.057 18.1583C86.5649 19.4861 17.5799 87.6819 18.9739 170.483C20.3607 253.278 91.5905 319.338 178.068 318.004C264.546 316.676 333.531 248.48 332.152 165.679C331.751 141.224 325.196 118.248 314.008 98.0167L280.331 117.489C288.087 132.19 292.705 148.705 292.998 166.281C294.035 228.379 242.307 279.532 177.432 280.525C112.572 281.517 59.1568 231.979 58.1059 169.881C57.0837 107.777 108.819 56.6297 173.672 55.6372Z" fill="#51A230"/>
<path d="M174.294 93.1166C200.773 92.7128 224.342 104.971 238.833 124.011L272.446 104.574C250.914 74.514 214.577 55.0079 173.665 55.6376C108.812 56.63 57.0766 107.777 58.0989 169.881C59.1497 231.979 112.572 281.518 177.425 280.525C242.293 279.533 294.028 228.372 292.991 166.281C292.698 148.705 288.08 132.197 280.324 117.489L246.739 136.913C251.114 146.057 253.673 156.179 253.845 166.884C254.531 208.278 220.046 242.389 176.789 243.046C133.561 243.71 97.9386 210.68 97.2452 169.286C96.5661 127.872 131.066 93.7805 174.294 93.1166Z" fill="white"/>
<path d="M174.93 130.603C186.961 130.418 197.799 135.455 205.105 143.511L238.84 124.012C224.349 104.971 200.773 92.7133 174.301 93.1171C131.073 93.781 96.5732 127.872 97.2666 169.287C97.9529 210.68 133.582 243.711 176.81 243.047C220.06 242.39 254.553 208.285 253.866 166.884C253.688 156.18 251.135 146.057 246.76 136.913L212.826 156.536C213.991 159.992 214.648 163.661 214.713 167.48C215.063 188.177 197.82 205.226 176.188 205.561C154.578 205.889 136.77 189.374 136.42 168.677C136.07 147.974 153.305 130.925 174.93 130.603Z" fill="#51A230"/>
<path d="M180.742 157.596L205.105 143.511C197.792 135.448 186.961 130.411 174.93 130.603C153.305 130.931 136.07 147.98 136.406 168.684C136.756 189.381 154.563 205.896 176.174 205.568C197.806 205.232 215.049 188.183 214.698 167.486C214.641 163.667 213.976 159.999 212.811 156.542L187.855 170.97C184.695 172.797 180.585 171.901 178.54 168.93L178.168 168.383C175.702 164.742 176.853 159.855 180.742 157.596Z" fill="white"/>
<path d="M400.329 73.4402C401.888 74.2272 403.775 74.1725 405.269 73.3033L410.423 70.326C411.202 69.8743 411.667 69.053 411.631 68.1838C411.624 67.3077 411.095 66.5206 410.287 66.11L386.425 54.071L389.106 52.5242C389.67 52.1957 390.099 51.6481 390.25 51.0185C390.407 50.3956 390.292 49.7249 389.935 49.1774L386.575 44.0168C385.839 42.8944 384.302 42.5453 383.115 43.2229L380.349 44.8244L379.77 19.2612C379.748 18.4057 379.255 17.6186 378.468 17.2011C377.682 16.7905 376.717 16.7973 375.945 17.249L370.819 20.2126C369.282 21.1024 368.36 22.7039 368.389 24.4218L369.011 51.3812L367.652 52.182L367.052 26.6188C367.038 25.7564 366.53 24.9693 365.744 24.545C364.965 24.1412 363.992 24.1549 363.213 24.5997L358.087 27.5633C356.543 28.4599 355.628 30.0614 355.664 31.7793L356.293 58.7387L354.921 59.5327L354.32 33.9695C354.313 33.1071 353.813 32.32 353.019 31.9025C352.247 31.485 351.275 31.4987 350.496 31.9504L345.377 34.914C343.84 35.8037 342.918 37.4121 342.954 39.13L343.49 62.0924C343.497 62.948 343.039 63.7487 342.289 64.1868L322.187 75.8083L313.844 80.6403L306.023 85.1575L272.453 104.568L238.84 124.005L205.105 143.511L180.742 157.597C176.853 159.855 175.695 164.742 178.169 168.376L178.54 168.924C180.585 171.888 184.696 172.791 187.855 170.964L212.811 156.536L246.746 136.914L280.331 117.49L314.009 98.0178L321.851 93.4937L330.208 88.6617L350.295 77.0471C351.032 76.609 351.968 76.5817 352.74 76.9786L374.894 88.1552C376.445 88.9423 378.325 88.8944 379.834 88.0115L384.988 85.0343C385.76 84.5894 386.225 83.7681 386.211 82.8989C386.182 82.0228 385.66 81.2357 384.867 80.8319L360.997 68.7929L362.312 68.0332L387.619 80.7977C389.177 81.5916 391.043 81.5369 392.559 80.6608L397.713 77.6836C398.492 77.225 398.957 76.4105 398.942 75.5345C398.914 74.6721 398.399 73.8782 397.591 73.4744L373.729 61.4422L375.03 60.6825L400.329 73.4402Z" fill="#4F4F4F"/>
</svg>
