<svg viewBox="0 0 278 272" fill="none" xmlns="http://www.w3.org/2000/svg">
<path d="M217.826 149.6V244.8H27.2282V54.4H95.571C96.2517 44.744 98.5661 35.632 102.106 27.2H27.2282C12.2527 27.2 0 39.44 0 54.4V244.8C0 259.76 12.2527 272 27.2282 272H217.826C232.801 272 245.054 259.76 245.054 244.8V176.8L217.826 149.6ZM197.404 217.6H47.6494L85.0881 169.592L111.772 201.688L149.211 153.544L197.404 217.6ZM235.524 93.704C241.514 84.184 245.054 73.168 245.054 61.2C245.054 27.336 217.69 0 183.79 0C149.891 0 122.527 27.336 122.527 61.2C122.527 95.064 149.891 122.4 183.654 122.4C195.635 122.4 206.798 118.864 216.192 112.88L258.668 155.312L278 136L235.524 93.704ZM183.79 95.2C174.764 95.2 166.107 91.6179 159.724 85.2416C153.341 78.8654 149.755 70.2174 149.755 61.2C149.755 52.1826 153.341 43.5346 159.724 37.1584C166.107 30.7821 174.764 27.2 183.79 27.2C192.817 27.2 201.474 30.7821 207.857 37.1584C214.24 43.5346 217.826 52.1826 217.826 61.2C217.826 70.2174 214.24 78.8654 207.857 85.2416C201.474 91.6179 192.817 95.2 183.79 95.2Z" fill="#51A230"/>
</svg>
