<svg width="54" height="47" viewBox="0 0 54 47" fill="none" xmlns="http://www.w3.org/2000/svg">
<path d="M44.2765 25.5651L28.8374 41.3653L28.9031 46.6706L34.2083 46.6049L49.6214 30.7791M53.6155 24.6767L50.2782 21.421C50.1526 21.2857 50.0003 21.178 49.8309 21.1048C49.6615 21.0315 49.4787 20.9942 49.2941 20.9953C48.9082 21.0259 48.5492 21.1591 48.2952 21.4456L45.7517 24.0528L51.095 29.1382L53.6385 26.5309C54.1214 26.0098 54.1112 25.1857 53.6155 24.6767ZM23.6248 36.433L5.5973 36.6562L5.27831 10.9027L26.0407 23.5243L46.484 10.3923L46.5478 15.543L51.6985 15.4792L51.5709 5.17778C51.5359 2.34488 49.1893 0.0557701 46.3564 0.0908589L5.15071 0.601241C2.31782 0.63633 0.028709 2.98286 0.0637978 5.81575L0.446585 36.72C0.481673 39.5529 2.8282 41.8421 5.6611 41.807L23.6886 41.5837L23.6248 36.433ZM46.4202 5.24157L25.9769 18.3736L5.21451 5.75196L46.4202 5.24157Z" fill="#3E7C23"/>
</svg>
