<svg xmlns="http://www.w3.org/2000/svg" version="1.1" xmlns:xlink="http://www.w3.org/1999/xlink" xmlns:svgjs="http://svgjs.dev/svgjs" width="1000" height="1000" viewBox="0 0 1000 1000"><rect width="1000" height="1000" fill="#ffffff"></rect><g transform="matrix(0.7,0,0,0.7,149.57575757575756,252.54999999999998)"><svg viewBox="0 0 396 280" data-background-color="#ffffff" preserveAspectRatio="xMidYMid meet" height="707" width="1000" xmlns="http://www.w3.org/2000/svg" xmlns:xlink="http://www.w3.org/1999/xlink"><g id="tight-bounds" transform="matrix(1,0,0,1,0.2400000000000091,0)"><svg viewBox="0 0 395.52 280" height="280" width="395.52"><g><svg viewBox="0 0 395.52 280" height="280" width="395.52"><g><svg viewBox="0 0 395.52 280" height="280" width="395.52"><g><svg viewBox="0 0 395.52 280" height="280" width="395.52"><g><svg viewBox="0 0 395.52 280" height="280" width="395.52"><g transform="matrix(1,0,0,1,131.76336708925555,74.00336708925556)"><svg viewBox="0 0 131.99326582148888 131.99326582148888" height="131.99326582148888" width="131.99326582148888"><g><svg xmlns="http://www.w3.org/2000/svg" xmlns:xlink="http://www.w3.org/1999/xlink" version="1.1" x="0" y="0" viewBox="2 2 96 96" enable-background="new 0 0 100 100" xml:space="preserve" height="131.99326582148888" width="131.99326582148888" class="icon-o-0" data-fill-palette-color="accent" id="o-0"><path d="M2 2v62h20.412c-1.729-1-3.09-3-3.987-4H6V6h88v54h-2.322c0.115 1 0.225 0.982 0.325 1.471C92.184 62.339 92.335 63 92.468 64H98V2H2z" fill="#1c4b82" data-fill-palette-color="accent"></path><path d="M88.086 62.482c-0.762-3.674-1.975-7.472-3.934-12.313L84.1 50.036l-0.062-0.129c-1.909-3.894-4.296-6.58-7.512-8.424-1.856-1.067-4.004-1.844-6.479-2.338 0.398-0.326 0.782-0.672 1.15-1.041 1.404-1.407 2.51-3.047 3.281-4.874 0.801-1.893 1.205-3.902 1.205-5.971 0-2.069-0.404-4.078-1.205-5.971-0.771-1.827-1.877-3.466-3.283-4.873-1.405-1.407-3.043-2.511-4.869-3.283-1.891-0.8-3.896-1.206-5.963-1.206-2.07 0-4.08 0.405-5.977 1.204-1.828 0.771-3.472 1.875-4.882 3.28-1.411 1.407-2.52 3.046-3.295 4.873C45.407 23.179 45 25.189 45 27.26c0 2.071 0.407 4.082 1.211 5.976 0.775 1.827 1.883 3.467 3.294 4.874 0.561 0.559 1.158 1.069 1.788 1.53-1.632 0.468-3.105 1.081-4.431 1.841-3.219 1.846-5.608 4.525-7.518 8.42l-0.004 0.012-0.004 0.011-1.411 2.915-9.233-6.786c-1.149-0.894-2.582-1.385-4.046-1.385-2.079 0-3.997 0.943-5.264 2.587-1.085 1.407-1.562 3.151-1.34 4.91 0.207 1.638 0.998 3.116 2.24 4.198C21.315 57.447 26.87 63.215 34.42 70h-2.488-4.938l1.025 4.836 4.235 19.975L32.927 98h3.24 17.388 13.967 17.725 3.337l0.599-3.302 3.637-19.968L93.676 70H89.15C88.902 67.393 88.619 65.057 88.086 62.482zM49 27.26c0-6.265 5.092-11.333 11.363-11.333 6.248 0 11.32 5.068 11.32 11.333 0 5.76-4.287 10.512-9.836 11.24 0 0-2.271 0.008-2.771 0.024C53.41 37.887 49 33.091 49 27.26zM49.166 59.261c0 0-3.882 6.472-5.034 8.2-0.627 0.939-1.562 1.258-2.532 1.258-1.938 0-4.01-1.251-4.01-1.251-8.441-7.548-14.566-14.026-14.566-14.026-1.167-0.916-1.376-2.574-0.473-3.746 0.522-0.678 1.308-1.028 2.095-1.028 0.574 0 1.149 0.187 1.624 0.568l13.161 9.674 3.506-7.254c2.636-5.377 6.631-8.771 16-9.125 0.472 0.043 3.847-0.031 3.847-0.031 10.577 0 14.873 3.471 17.661 9.156C83.805 59.965 84.578 64.33 85.131 70H79.99L80 68.109v-0.008-0.009c0-1.948-0.383-3.866-1.104-5.7-0.672-1.713-1.646-3.312-2.875-4.754-1.983-2.324-4.578-4.128-7.424-5.188-1.43-1.923-3.709-3.117-6.166-3.117-2.049 0-3.976 0.794-5.425 2.235C55.552 53.016 54.75 54.945 54.75 57c0 4.23 3.445 7.675 7.682 7.675 1.252 0 2.457-0.295 3.528-0.838 1.289 1.011 2.101 2.574 2.103 4.248L68.057 70H49.394L49.166 59.261zM65.469 59.127c-0.664 0.966-1.775 1.548-3.037 1.548-2.031 0-3.681-1.642-3.681-3.674 0-2.033 1.647-3.667 3.681-3.667 1.594 0 2.949 1.039 3.463 2.455 5.439 1.414 10.069 6.338 10.069 12.305L75.957 70h-3.9l0.008-1.906C72.062 63.895 69.252 60.322 65.469 59.127zM85.245 94H67.521 53.555 36.167l-4.235-20h56.949L85.245 94z" fill="#1c4b82" data-fill-palette-color="accent"></path></svg></g></svg></g><path d="M63.348 92.548V92.548C63.746 91.401 64.112 90.428 64.445 89.63 64.784 88.835 65.129 88.115 65.479 87.471 65.832 86.82 66.239 86.164 66.701 85.502V85.502L69.429 86.871C69.088 87.61 68.785 88.302 68.518 88.948 68.25 89.599 67.969 90.296 67.677 91.037 67.393 91.775 67.069 92.667 66.705 93.714V93.714C66.141 95.338 66.015 96.734 66.325 97.903 66.632 99.063 67.463 100.1 68.818 101.013 70.169 101.918 72.142 102.821 74.738 103.723V103.723C77.334 104.624 79.442 105.138 81.063 105.266 82.693 105.389 83.987 105.09 84.947 104.37 85.915 103.645 86.681 102.471 87.245 100.847V100.847C87.82 99.192 88.27 97.784 88.595 96.626 88.925 95.475 89.2 94.338 89.422 93.213V93.213L92.412 93.83C92.356 95.062 92.192 96.294 91.918 97.527 91.651 98.762 91.213 100.257 90.603 102.013V102.013C89.721 104.552 88.574 106.44 87.16 107.678 85.747 108.916 83.928 109.531 81.703 109.524 79.482 109.526 76.691 108.943 73.33 107.776V107.776C69.97 106.609 67.418 105.337 65.677 103.959 63.926 102.585 62.88 100.975 62.538 99.128 62.196 97.281 62.466 95.087 63.348 92.548ZM75.217 68.469V68.469C76.255 66.7 77.348 65.317 78.495 64.32 79.642 63.324 80.911 62.734 82.304 62.551 83.691 62.364 85.285 62.572 87.086 63.175 88.884 63.784 90.967 64.784 93.337 66.175V66.175C95.684 67.552 97.567 68.881 98.986 70.16 100.402 71.445 101.367 72.739 101.881 74.041 102.4 75.346 102.504 76.742 102.193 78.229 101.881 79.717 101.207 81.345 100.169 83.114V83.114C99.134 84.877 98.043 86.257 96.896 87.254 95.749 88.25 94.476 88.846 93.077 89.041 91.683 89.239 90.077 89.038 88.257 88.44 86.438 87.842 84.355 86.854 82.008 85.477V85.477C79.639 84.086 77.755 82.745 76.357 81.455 74.959 80.165 74.007 78.864 73.5 77.551 72.988 76.234 72.887 74.832 73.198 73.345 73.509 71.857 74.182 70.232 75.217 68.469ZM78.248 70.248V70.248C77.364 71.753 76.956 73.118 77.022 74.342 77.08 75.569 77.684 76.762 78.835 77.922 79.983 79.074 81.765 80.358 84.18 81.776V81.776C86.573 83.18 88.558 84.106 90.134 84.554 91.719 85 93.062 84.949 94.16 84.401 95.262 83.862 96.254 82.84 97.138 81.335V81.335C98.025 79.824 98.432 78.462 98.358 77.249 98.294 76.034 97.684 74.837 96.529 73.659 95.376 72.489 93.603 71.202 91.21 69.798V69.798C88.795 68.38 86.801 67.456 85.23 67.027 83.649 66.599 82.312 66.654 81.22 67.19 80.126 67.717 79.135 68.737 78.248 70.248ZM100.098 38.202L102.762 35.336 122.03 53.241C122.798 53.955 122.843 54.677 122.166 55.406V55.406L119.8 57.951C119.489 58.287 119.169 58.474 118.842 58.515 118.505 58.555 118.125 58.506 117.702 58.366V58.366L97.69 52.246C97.133 52.055 96.494 51.846 95.772 51.619 95.049 51.382 94.415 51.124 93.869 50.843V50.843L93.456 51.288C93.944 51.669 94.428 52.065 94.908 52.474 95.398 52.884 95.878 53.308 96.35 53.746V53.746L111.031 67.388 108.333 70.291 89.065 52.386C88.297 51.672 88.261 50.941 88.957 50.192V50.192L91.24 47.734C91.552 47.399 91.876 47.206 92.213 47.156 92.558 47.106 92.943 47.15 93.366 47.29V47.29L112.797 53.319C113.414 53.484 114.103 53.694 114.863 53.948 115.624 54.192 116.372 54.435 117.109 54.675V54.675L117.55 54.201C116.979 53.743 116.424 53.282 115.886 52.818 115.342 52.35 114.816 51.878 114.305 51.404V51.404ZM116.088 25.53V25.53C117.167 24.78 118.263 24.025 119.376 23.266 120.49 22.507 121.596 21.762 122.695 21.029 123.794 20.296 124.862 19.634 125.898 19.043V19.043L127.484 21.687 118.961 27.619C118.209 28.142 117.777 28.689 117.665 29.26 117.555 29.822 117.754 30.468 118.262 31.198V31.198L130.842 49.274 127.525 51.583 114.506 32.878C113.585 31.554 113.275 30.238 113.577 28.928 113.878 27.619 114.715 26.486 116.088 25.53ZM120.843 40.78L119.04 38.19 131.207 29.721 133.01 32.311ZM152.246 7.061V7.061C154.18 6.378 155.907 6.025 157.426 6.003 158.946 5.98 160.297 6.348 161.48 7.106 162.66 7.857 163.744 9.044 164.732 10.666 165.714 12.29 166.662 14.398 167.577 16.989V16.989C168.483 19.555 169.066 21.784 169.327 23.678 169.58 25.573 169.484 27.184 169.037 28.51 168.593 29.842 167.772 30.977 166.575 31.913 165.378 32.85 163.813 33.659 161.879 34.342V34.342C159.952 35.023 158.228 35.374 156.709 35.397 155.189 35.42 153.832 35.054 152.637 34.301 151.444 33.553 150.345 32.365 149.34 30.735 148.335 29.105 147.379 27.007 146.473 24.441V24.441C145.558 21.849 144.983 19.61 144.746 17.723 144.509 15.836 144.62 14.227 145.079 12.896 145.536 11.56 146.363 10.423 147.56 9.486 148.757 8.55 150.319 7.742 152.246 7.061ZM153.417 10.375V10.375C151.771 10.956 150.578 11.736 149.84 12.715 149.093 13.689 148.785 14.991 148.917 16.62 149.053 18.24 149.587 20.371 150.519 23.012V23.012C151.443 25.628 152.363 27.615 153.279 28.974 154.204 30.337 155.263 31.163 156.456 31.453 157.645 31.751 159.063 31.609 160.709 31.028V31.028C162.361 30.445 163.55 29.666 164.276 28.692 165.011 27.721 165.316 26.413 165.192 24.768 165.065 23.131 164.539 21.004 163.616 18.388V18.388C162.683 15.747 161.755 13.755 160.83 12.413 159.898 11.067 158.841 10.247 157.66 9.953 156.483 9.651 155.069 9.791 153.417 10.375ZM172.571 2.125L176.524 1.564 179.616 23.328C179.736 24.175 180.04 24.776 180.526 25.129 181.011 25.483 181.695 25.597 182.575 25.472V25.472L192.462 24.067 193.097 27.124C191.328 27.51 189.526 27.846 187.69 28.134 185.854 28.421 184.015 28.696 182.176 28.957V28.957C180.152 29.245 178.628 28.952 177.606 28.078 176.583 27.204 175.964 26.005 175.747 24.481V24.481ZM208.415 0.415L212.655 0.511 202.818 18.841 199.146 18.757 190.121 0 194.401 0.097 199.794 11.692C200.021 12.215 200.225 12.754 200.404 13.309 200.578 13.864 200.754 14.412 200.935 14.954V14.954L201.213 14.96C201.411 14.427 201.62 13.887 201.838 13.341 202.049 12.795 202.27 12.282 202.5 11.803V11.803ZM199.009 16.006L203.05 16.097 202.776 28.171 198.735 28.079ZM242.229 7.286L246.464 8.325C247.489 8.577 247.883 9.241 247.646 10.317V10.317L242.487 36.053 238.648 35.111 243.527 10.977 242.744 10.785 232.244 28.792C231.826 29.605 231.172 29.903 230.282 29.684V29.684L227.063 28.894C226.147 28.669 225.68 28.097 225.66 27.176V27.176L224.692 6.354 223.909 6.161 217.145 29.832 213.297 28.887 220.612 3.681C220.926 2.624 221.58 2.217 222.572 2.46V2.46L226.807 3.5C227.645 3.706 228.09 4.273 228.143 5.202V5.202L228.959 22.378C229.019 23.029 229.039 23.669 229.021 24.3 229.007 24.939 229.011 25.607 229.032 26.302V26.302L229.699 26.466C230.039 25.859 230.358 25.271 230.655 24.701 230.944 24.137 231.262 23.549 231.611 22.937V22.937L240.267 8.178C240.686 7.365 241.339 7.067 242.229 7.286ZM267.947 17.982V17.982C269.972 19.05 271.46 20.128 272.41 21.214 273.364 22.295 273.801 23.528 273.724 24.913 273.643 26.303 273.062 28.023 271.981 30.072V30.072C270.913 32.097 269.831 33.545 268.734 34.415 267.637 35.284 266.406 35.641 265.041 35.483 263.676 35.326 262.054 34.752 260.175 33.761V33.761C259.148 33.219 258.177 32.677 257.262 32.134 256.351 31.586 255.527 31.057 254.79 30.548 254.053 30.039 253.43 29.583 252.922 29.18 252.423 28.775 252.09 28.468 251.923 28.259V28.259L253.129 26.25C254.414 26.928 255.747 27.631 257.126 28.359 258.506 29.087 259.889 29.816 261.274 30.547V30.547C262.431 31.127 263.411 31.46 264.214 31.546 265.019 31.641 265.749 31.418 266.402 30.877 267.049 30.333 267.705 29.43 268.371 28.167V28.167C269.049 26.882 269.43 25.818 269.514 24.977 269.589 24.138 269.364 23.405 268.84 22.776 268.323 22.15 267.491 21.535 266.346 20.931V20.931C264.345 19.875 262.61 18.975 261.141 18.23 259.679 17.489 258.684 17.013 258.157 16.802V16.802L259.128 13.746C260.082 14.129 260.976 14.511 261.811 14.891 262.646 15.272 263.542 15.707 264.499 16.197 265.465 16.684 266.615 17.279 267.947 17.982ZM259.128 13.746L262.703 15.632 249.697 40.288 246.122 38.402ZM295.513 38.981L298.485 41.838C298.738 42.081 298.892 42.367 298.945 42.695 298.999 43.031 298.951 43.354 298.802 43.662V43.662L286.595 69.076 283.567 66.164 294.094 45.184C294.298 44.819 294.499 44.451 294.699 44.081 294.903 43.716 295.088 43.369 295.255 43.042V43.042L294.437 42.256C294.117 42.436 293.778 42.635 293.421 42.853 293.064 43.071 292.695 43.278 292.314 43.473V43.473L271.766 54.822 268.766 51.938 293.678 38.736C293.98 38.575 294.3 38.515 294.639 38.555 294.968 38.595 295.26 38.737 295.513 38.981ZM280.731 47.019L290.98 56.871 288.655 59.29 278.406 49.438ZM316.518 62.58V62.58C317.851 64.441 318.7 66.07 319.065 67.467 319.434 68.86 319.274 70.158 318.586 71.362 317.892 72.57 316.603 73.849 314.72 75.198V75.198C312.859 76.532 311.244 77.343 309.874 77.63 308.504 77.918 307.244 77.686 306.093 76.935 304.942 76.184 303.748 74.945 302.511 73.219V73.219C301.834 72.274 301.208 71.355 300.633 70.461 300.063 69.563 299.562 68.722 299.13 67.937 298.698 67.152 298.345 66.466 298.071 65.879 297.806 65.293 297.646 64.869 297.589 64.607V64.607L299.566 63.35C300.413 64.531 301.29 65.756 302.199 67.024 303.108 68.292 304.018 69.562 304.93 70.835V70.835C305.706 71.872 306.434 72.608 307.113 73.044 307.791 73.488 308.543 73.615 309.37 73.423 310.192 73.226 311.183 72.712 312.343 71.88V71.88C313.524 71.034 314.34 70.253 314.791 69.537 315.233 68.821 315.36 68.064 315.173 67.267 314.99 66.476 314.521 65.554 313.767 64.502V64.502C312.449 62.663 311.3 61.082 310.319 59.759 309.343 58.442 308.666 57.572 308.288 57.148V57.148L310.523 54.848C311.205 55.617 311.834 56.358 312.411 57.072 312.988 57.785 313.594 58.575 314.232 59.442 314.878 60.309 315.64 61.356 316.518 62.58ZM310.523 54.848L312.878 58.134 290.219 74.372 287.865 71.087ZM329.912 87.187V87.187C330.859 89.271 331.376 91.034 331.462 92.475 331.554 93.913 331.145 95.156 330.236 96.203 329.321 97.253 327.809 98.258 325.7 99.216V99.216C323.615 100.163 321.873 100.645 320.473 100.661 319.073 100.677 317.882 100.205 316.899 99.245 315.916 98.285 314.985 96.838 314.106 94.904V94.904C313.626 93.847 313.19 92.823 312.799 91.835 312.414 90.843 312.086 89.921 311.815 89.067 311.544 88.213 311.331 87.472 311.176 86.842 311.03 86.216 310.954 85.769 310.95 85.501V85.501L313.133 84.651C313.734 85.975 314.358 87.347 315.003 88.767 315.648 90.187 316.295 91.61 316.943 93.036V93.036C317.502 94.203 318.073 95.066 318.655 95.626 319.234 96.194 319.947 96.464 320.795 96.436 321.64 96.402 322.712 96.09 324.011 95.5V95.5C325.334 94.898 326.287 94.291 326.868 93.677 327.44 93.059 327.712 92.342 327.683 91.524 327.657 90.712 327.376 89.717 326.841 88.538V88.538C325.904 86.478 325.084 84.704 324.379 83.216 323.676 81.735 323.181 80.749 322.894 80.26V80.26L325.532 78.438C326.052 79.325 326.525 80.174 326.952 80.986 327.379 81.798 327.822 82.691 328.278 83.664 328.744 84.641 329.289 85.815 329.912 87.187ZM325.532 78.438L327.204 82.118 301.825 93.65 300.153 89.97ZM98.739 183.295V183.295C99.145 184.461 99.465 185.467 99.697 186.314 99.938 187.165 100.12 187.959 100.244 188.696 100.376 189.437 100.469 190.22 100.525 191.044V191.044L97.473 191.666C97.277 190.863 97.081 190.119 96.885 189.435 96.686 188.746 96.469 188.013 96.234 187.237 95.992 186.464 95.687 185.548 95.317 184.489V184.489C94.738 182.828 93.955 181.632 92.969 180.901 91.988 180.167 90.67 179.864 89.014 179.992 87.357 180.12 85.21 180.645 82.572 181.565V181.565C79.927 182.488 77.916 183.414 76.54 184.345 75.163 185.275 74.319 186.332 74.008 187.516 73.691 188.702 73.822 190.126 74.402 191.786V191.786C74.99 193.472 75.52 194.879 75.991 196.008 76.456 197.14 76.956 198.22 77.491 199.25V199.25L74.715 200.661C73.978 199.639 73.327 198.548 72.761 197.389 72.197 196.236 71.603 194.766 70.98 192.98V192.98C70.075 190.386 69.797 188.149 70.147 186.269 70.496 184.39 71.557 182.747 73.33 181.342 75.112 179.94 77.713 178.642 81.135 177.448V177.448C84.55 176.256 87.392 175.655 89.658 175.645 91.921 175.642 93.774 176.268 95.217 177.522 96.659 178.776 97.833 180.701 98.739 183.295ZM107.626 200.621V200.621C108.687 202.423 109.375 204.082 109.69 205.598 110.011 207.112 109.908 208.532 109.38 209.859 108.861 211.189 107.888 212.505 106.459 213.808 105.022 215.109 103.1 216.468 100.692 217.885V217.885C98.301 219.293 96.185 220.311 94.345 220.94 92.496 221.567 90.864 221.784 89.45 221.593 88.033 221.41 86.741 220.811 85.573 219.797 84.4 218.785 83.283 217.379 82.222 215.577V215.577C81.165 213.781 80.479 212.125 80.164 210.608 79.843 209.095 79.941 207.666 80.459 206.321 80.974 204.986 81.951 203.656 83.39 202.331 84.822 201.01 86.734 199.646 89.125 198.239V198.239C91.533 196.821 93.659 195.808 95.504 195.199 97.343 194.594 98.971 194.391 100.389 194.588 101.816 194.788 103.113 195.395 104.28 196.41 105.454 197.421 106.569 198.825 107.626 200.621ZM104.538 202.439V202.439C103.635 200.906 102.623 199.862 101.502 199.305 100.379 198.757 99.017 198.707 97.417 199.156 95.824 199.602 93.797 200.548 91.337 201.996V201.996C88.901 203.431 87.093 204.742 85.912 205.93 84.732 207.117 84.109 208.335 84.043 209.583 83.986 210.834 84.409 212.226 85.311 213.759V213.759C86.217 215.297 87.225 216.336 88.336 216.876 89.453 217.412 90.82 217.458 92.438 217.014 94.056 216.57 96.083 215.631 98.52 214.196V214.196C100.979 212.748 102.787 211.43 103.943 210.241 105.105 209.049 105.723 207.834 105.796 206.597 105.863 205.364 105.443 203.978 104.538 202.439ZM127.025 225.168L129.748 228.088 110.145 246.366C109.364 247.094 108.627 247.087 107.934 246.345V246.345L105.524 243.76C105.203 243.415 105.034 243.073 105.017 242.735 105.001 242.396 105.078 242.016 105.247 241.594V241.594L112.931 221.703C113.167 221.147 113.426 220.511 113.709 219.793 114.002 219.075 114.313 218.45 114.641 217.917V217.917L114.22 217.465C113.791 217.938 113.349 218.404 112.897 218.863 112.448 219.326 111.984 219.782 111.503 220.23V220.23L96.569 234.155 93.812 231.199 113.414 212.922C114.196 212.193 114.942 212.21 115.653 212.972V212.972L117.988 215.477C118.305 215.816 118.476 216.16 118.502 216.509 118.531 216.862 118.462 217.249 118.292 217.671V217.671L110.741 236.975C110.523 237.588 110.259 238.273 109.951 239.033 109.648 239.788 109.345 240.528 109.042 241.255V241.255L109.497 241.743C110 241.192 110.507 240.661 111.018 240.148 111.534 239.631 112.051 239.13 112.571 238.645V238.645ZM137.083 232.537V232.537C138.191 233.304 139.305 234.085 140.427 234.879 141.543 235.668 142.647 236.458 143.739 237.247 144.831 238.037 145.842 238.822 146.77 239.603V239.603L144.817 242.053 136.12 236.024C135.356 235.494 134.682 235.278 134.099 235.374 133.515 235.47 132.965 235.892 132.447 236.639V236.639L119.668 255.074 116.28 252.726 129.507 233.645C130.445 232.292 131.594 231.526 132.954 231.346 134.311 231.172 135.687 231.569 137.083 232.537ZM124.215 242.502L126.047 239.859 138.468 248.469 136.636 251.112ZM164.696 245.496V245.496C166.667 246.193 168.261 247.021 169.478 247.98 170.697 248.932 171.531 250.086 171.98 251.442 172.438 252.794 172.539 254.428 172.284 256.344 172.02 258.265 171.422 260.542 170.489 263.176V263.176C169.564 265.791 168.599 267.932 167.594 269.597 166.581 271.266 165.471 272.482 164.265 273.245 163.062 274.016 161.688 274.389 160.141 274.363 158.592 274.342 156.832 273.984 154.861 273.286V273.286C152.897 272.591 151.306 271.764 150.089 270.805 148.87 269.853 148.027 268.695 147.559 267.333 147.094 265.979 146.987 264.332 147.237 262.393 147.484 260.46 148.071 258.185 148.997 255.57V255.57C149.929 252.936 150.905 250.793 151.927 249.14 152.946 247.494 154.061 246.291 155.274 245.53 156.495 244.766 157.879 244.396 159.426 244.423 160.975 244.443 162.731 244.8 164.696 245.496ZM163.5 248.875V248.875C161.824 248.281 160.377 248.132 159.16 248.426 157.947 248.729 156.873 249.567 155.937 250.94 155.003 252.306 154.059 254.334 153.107 257.025V257.025C152.164 259.69 151.623 261.857 151.483 263.526 151.343 265.194 151.649 266.527 152.401 267.526 153.162 268.52 154.38 269.314 156.057 269.907V269.907C157.74 270.503 159.181 270.65 160.379 270.349 161.579 270.041 162.656 269.197 163.609 267.817 164.562 266.436 165.51 264.413 166.454 261.748V261.748C167.406 259.057 167.942 256.885 168.063 255.231 168.186 253.571 167.877 252.243 167.138 251.249 166.396 250.262 165.184 249.47 163.5 248.875ZM177.512 249.706L181.543 250.282 178.377 272.448C178.252 273.322 178.38 274 178.76 274.484 179.133 274.966 179.767 275.271 180.66 275.399V275.399L190.723 276.836 190.483 280C188.643 279.878 186.785 279.696 184.908 279.455 183.025 279.213 181.148 278.958 179.275 278.691V278.691C177.212 278.396 175.803 277.675 175.048 276.528 174.3 275.382 174.037 274.034 174.258 272.483V272.483ZM207.567 251.096L211.887 251.005 202.702 270.1 198.96 270.179 188.924 251.492 193.284 251.399 199.295 262.962C199.558 263.481 199.792 264.021 199.996 264.581 200.194 265.134 200.395 265.684 200.599 266.231V266.231L200.888 266.225C201.068 265.67 201.256 265.112 201.449 264.55 201.643 263.982 201.844 263.446 202.053 262.944V262.944ZM198.692 267.387L202.812 267.299 203.073 279.602 198.953 279.689ZM233.628 245.232L237.951 244.176C238.989 243.923 239.655 244.341 239.948 245.431V245.431L247.409 271.105 243.492 272.062 236.537 247.955 235.735 248.151 234.739 269.373C234.74 270.302 234.286 270.877 233.377 271.1V271.1L230.098 271.9C229.163 272.129 228.47 271.834 228.017 271.015V271.015L217.339 252.644 216.546 252.838 221.576 277.415 217.65 278.375 212.394 252.161C212.178 251.053 212.576 250.375 213.589 250.127V250.127L217.912 249.071C218.763 248.863 219.431 249.165 219.916 249.976V249.976L228.737 265.11C229.101 265.677 229.425 266.25 229.71 266.83 229.989 267.411 230.303 268.011 230.652 268.629V268.629L231.339 268.461C231.364 267.752 231.372 267.073 231.364 266.426 231.363 265.777 231.374 265.095 231.397 264.378V264.378L232.266 246.959C232.265 246.03 232.719 245.454 233.628 245.232ZM250.649 237.054V237.054C252.71 235.968 254.469 235.333 255.926 235.151 257.386 234.974 258.677 235.317 259.8 236.181 260.926 237.05 262.039 238.527 263.137 240.612V240.612C264.227 242.679 264.819 244.422 264.915 245.842 265.011 247.262 264.602 248.502 263.69 249.56 262.768 250.616 261.35 251.649 259.436 252.657V252.657C258.391 253.208 257.375 253.714 256.387 254.175 255.405 254.632 254.489 255.021 253.638 255.342 252.784 255.672 252.042 255.932 251.414 256.12 250.789 256.315 250.341 256.42 250.071 256.434V256.434L249.063 254.265C250.372 253.575 251.732 252.858 253.141 252.115 254.55 251.373 255.959 250.63 257.368 249.887V249.887C258.519 249.251 259.365 248.621 259.906 247.998 260.445 247.369 260.673 246.626 260.589 245.77 260.511 244.911 260.134 243.838 259.456 242.552V242.552C258.766 241.243 258.088 240.313 257.423 239.763 256.764 239.211 256.021 238.976 255.195 239.059 254.365 239.136 253.369 239.481 252.206 240.093V240.093C250.163 241.17 248.408 242.111 246.94 242.914 245.473 243.717 244.498 244.28 244.015 244.602V244.602L242.005 242.027C242.874 241.441 243.71 240.906 244.513 240.423 245.317 239.94 246.199 239.437 247.162 238.915 248.125 238.392 249.287 237.772 250.649 237.054ZM242.005 242.027L245.651 240.105 258.895 265.232 255.249 267.154ZM270.05 222.884L273.087 219.981C273.346 219.733 273.645 219.59 273.984 219.551 274.327 219.507 274.652 219.568 274.958 219.734V219.734L300.307 233.255 297.212 236.213 276.299 224.595C275.938 224.371 275.575 224.149 275.209 223.93 274.848 223.706 274.503 223.503 274.173 223.322V223.322L273.339 224.12C273.509 224.453 273.696 224.807 273.899 225.182 274.107 225.553 274.302 225.935 274.486 226.329V226.329L285.158 247.736 282.092 250.667 269.719 224.743C269.571 224.425 269.525 224.098 269.579 223.761 269.639 223.42 269.796 223.127 270.05 222.884ZM277.597 238.285L288.075 228.268 290.435 230.737 279.957 240.754ZM286.196 203.897V203.897C287.559 202.007 288.852 200.657 290.076 199.845 291.305 199.038 292.614 198.771 294.004 199.045 295.399 199.323 297.052 200.152 298.963 201.53V201.53C300.858 202.897 302.164 204.195 302.882 205.424 303.599 206.653 303.784 207.945 303.438 209.299 303.082 210.655 302.271 212.21 301.005 213.965V213.965C300.314 214.923 299.629 215.828 298.949 216.68 298.273 217.526 297.625 218.282 297.006 218.948 296.388 219.624 295.839 220.186 295.36 220.634 294.887 221.086 294.532 221.379 294.297 221.512V221.512L292.429 220.018C293.295 218.817 294.194 217.571 295.126 216.279 296.058 214.987 296.989 213.695 297.921 212.403V212.403C298.669 211.322 299.146 210.382 299.354 209.582 299.557 208.779 299.431 208.013 298.975 207.283 298.523 206.548 297.708 205.755 296.529 204.905V204.905C295.329 204.039 294.308 203.508 293.468 203.311 292.632 203.109 291.862 203.229 291.159 203.671 290.45 204.109 289.711 204.861 288.942 205.927V205.927C287.591 207.8 286.437 209.423 285.48 210.795 284.523 212.167 283.9 213.105 283.611 213.608V213.608L280.665 212.195C281.183 211.284 281.694 210.433 282.199 209.643 282.703 208.853 283.27 208.01 283.9 207.114 284.53 206.218 285.295 205.146 286.196 203.897ZM280.665 212.195L283.076 208.852 306.113 225.468 303.702 228.811ZM296.006 185.595V185.595C296.976 183.477 297.983 181.902 299.026 180.868 300.075 179.838 301.308 179.322 302.725 179.321 304.147 179.323 305.93 179.815 308.072 180.797V180.797C310.196 181.77 311.729 182.79 312.671 183.857 313.613 184.924 314.045 186.155 313.968 187.55 313.882 188.949 313.388 190.632 312.487 192.599V192.599C311.995 193.673 311.498 194.694 310.996 195.662 310.497 196.623 310.008 197.49 309.53 198.264 309.055 199.046 308.626 199.704 308.243 200.237 307.866 200.772 307.575 201.128 307.37 201.305V201.305L305.248 200.201C305.864 198.855 306.504 197.458 307.168 196.01 307.831 194.562 308.495 193.114 309.159 191.666V191.666C309.682 190.46 309.968 189.445 310.017 188.62 310.06 187.793 309.788 187.066 309.199 186.438 308.613 185.805 307.66 185.185 306.338 184.58V184.58C304.993 183.963 303.889 183.64 303.026 183.61 302.167 183.574 301.435 183.841 300.831 184.411 300.22 184.978 299.641 185.859 299.094 187.054V187.054C298.132 189.154 297.314 190.969 296.642 192.501 295.969 194.033 295.54 195.073 295.353 195.623V195.623L292.19 194.809C292.521 193.814 292.858 192.881 293.199 192.008 293.541 191.135 293.934 190.198 294.378 189.197 294.822 188.195 295.365 186.995 296.006 185.595ZM292.19 194.809L293.906 191.061 319.729 202.893 318.012 206.641ZM61.463 143.944C61.463 137.952 66.321 133.094 72.314 133.094 78.306 133.094 83.164 137.952 83.164 143.944 83.164 149.937 78.306 154.794 72.314 154.794 66.321 154.794 61.463 149.937 61.463 143.944ZM312.356 143.944C312.356 137.952 317.214 133.094 323.206 133.094 329.199 133.094 334.057 137.952 334.057 143.944 334.057 149.937 329.199 154.794 323.206 154.794 317.214 154.794 312.356 149.937 312.356 143.944Z" fill="#1c4b82" data-fill-palette-color="primary"></path></svg></g></svg></g></svg></g><g></g></svg></g><defs></defs></svg><rect width="395.52" height="280" fill="none" stroke="none" visibility="hidden"></rect></g></svg></g></svg>