<svg width="48" height="48" viewBox="0 0 48 48" fill="none" xmlns="http://www.w3.org/2000/svg">
<g clip-path="url(#clip0_1_224)">
<path d="M28.9688 14.125C28.9688 15.5 28.4844 16.6719 27.5156 17.6406C26.5469 18.6094 25.375 19.0938 24 19.0938C22.625 19.0938 21.4531 18.6094 20.4844 17.6406C19.5156 16.6719 19.0312 15.5 19.0312 14.125C19.0312 12.75 19.5156 11.5781 20.4844 10.6094C21.4531 9.64062 22.625 9.15625 24 9.15625C25.375 9.15625 26.5469 9.64062 27.5156 10.6094C28.4844 11.5781 28.9688 12.75 28.9688 14.125ZM35.6562 25.4688C35.4479 25.0521 35.1562 24.7188 34.7812 24.4688C34.4062 24.2188 33.9115 24.1198 33.2969 24.1719C32.6823 24.224 32.0521 24.5104 31.4062 25.0312C31.1979 25.1979 30.8958 25.4062 30.5 25.6562C30.1042 25.9062 29.2604 26.2396 27.9688 26.6562C26.6771 27.0729 25.3542 27.2812 24 27.2812C22.6458 27.2812 21.3542 27.0938 20.125 26.7188C18.8958 26.3438 18 25.9688 17.4375 25.5938L16.5938 25.0312C15.9479 24.5104 15.3177 24.224 14.7031 24.1719C14.0885 24.1198 13.5938 24.2188 13.2188 24.4688C12.8438 24.7188 12.5521 25.0521 12.3438 25.4688C11.8854 26.4062 11.8646 27.1823 12.2812 27.7969C12.6979 28.4115 13.6042 29.1771 15 30.0938C16.7292 31.1979 19.0833 31.8958 22.0625 32.1875L20.4688 33.8125C17.5104 36.7708 15.5208 38.75 14.5 39.75C14.0417 40.2083 13.8125 40.7552 13.8125 41.3906C13.8125 42.026 14.0417 42.5729 14.5 43.0312L14.7812 43.3125C15.2396 43.7708 15.7865 44 16.4219 44C17.0573 44 17.6042 43.7708 18.0625 43.3125L24.0312 37.3438C26.4062 39.7396 28.3958 41.7292 30 43.3125C30.4583 43.7708 31.0052 44 31.6406 44C32.276 44 32.8229 43.7708 33.2812 43.3125L33.5625 43.0312C34.0208 42.5729 34.25 42.026 34.25 41.3906C34.25 40.7552 34.0208 40.2083 33.5625 39.75L27.5938 33.8125L25.9688 32.1875C28.9062 31.8958 31.25 31.1979 33 30.0938C34.3958 29.1771 35.3021 28.4115 35.7188 27.7969C36.1354 27.1823 36.1146 26.4062 35.6562 25.4688ZM34.125 14.125C34.125 11.3333 33.1354 8.94792 31.1562 6.96875C29.1771 4.98958 26.7917 4 24 4C21.2083 4 18.8229 4.98958 16.8438 6.96875C14.8646 8.94792 13.875 11.3333 13.875 14.125C13.875 16.9167 14.8646 19.3021 16.8438 21.2812C18.8229 23.2604 21.2083 24.25 24 24.25C26.7917 24.25 29.1771 23.2604 31.1562 21.2812C33.1354 19.3021 34.125 16.9167 34.125 14.125ZM48 9V39C48 41.4792 47.1198 43.599 45.3594 45.3594C43.599 47.1198 41.4792 48 39 48H9C6.52083 48 4.40104 47.1198 2.64062 45.3594C0.880208 43.599 0 41.4792 0 39V9C0 6.52083 0.880208 4.40104 2.64062 2.64062C4.40104 0.880208 6.52083 0 9 0H39C41.4792 0 43.599 0.880208 45.3594 2.64062C47.1198 4.40104 48 6.52083 48 9Z" fill="#51A230"/>
</g>
<defs>
<clipPath id="clip0_1_224">
<rect width="48" height="48" fill="white"/>
</clipPath>
</defs>
</svg>
