<svg width="32" height="32" viewBox="0 0 32 32" fill="none" xmlns="http://www.w3.org/2000/svg">
<path d="M17.4282 7.59375C17.4282 6.79863 16.7898 6.15625 15.9996 6.15625C15.2094 6.15625 14.571 6.79863 14.571 7.59375V14.0625H8.14244C7.35226 14.0625 6.71387 14.7049 6.71387 15.5C6.71387 16.2951 7.35226 16.9375 8.14244 16.9375H14.571V23.4062C14.571 24.2014 15.2094 24.8438 15.9996 24.8438C16.7898 24.8438 17.4282 24.2014 17.4282 23.4062V16.9375H23.8567C24.6469 16.9375 25.2853 16.2951 25.2853 15.5C25.2853 14.7049 24.6469 14.0625 23.8567 14.0625H17.4282V7.59375Z" fill="#20007B"/>
<circle cx="16" cy="16" r="15" stroke="#20007B" stroke-width="2"/>
</svg>
