<svg width="32" height="32" viewBox="0 0 32 32" fill="#20007B" xmlns="http://www.w3.org/2000/svg">
<path fill-rule="evenodd" clip-rule="evenodd" d="M30 16C30 23.732 23.732 30 16 30C8.26801 30 2 23.732 2 16C2 8.26801 8.26801 2 16 2C23.732 2 30 8.26801 30 16ZM32 16C32 24.8366 24.8366 32 16 32C7.16344 32 0 24.8366 0 16C0 7.16344 7.16344 0 16 0C24.8366 0 32 7.16344 32 16ZM16 6.15625C16.7902 6.15625 17.4286 6.79863 17.4286 7.59375V14.0625H23.8571C24.6473 14.0625 25.2857 14.7049 25.2857 15.5C25.2857 16.2951 24.6473 16.9375 23.8571 16.9375H17.4286V23.4062C17.4286 24.2014 16.7902 24.8438 16 24.8438C15.2098 24.8438 14.5714 24.2014 14.5714 23.4062V16.9375H8.14286C7.35268 16.9375 6.71429 16.2951 6.71429 15.5C6.71429 14.7049 7.35268 14.0625 8.14286 14.0625H14.5714V7.59375C14.5714 6.79863 15.2098 6.15625 16 6.15625Z"/>
</svg>
