<svg width="38" height="38" viewBox="0 0 38 38" fill="none" xmlns="http://www.w3.org/2000/svg">
<path d="M11.0833 33.25C10.2125 33.25 9.46674 32.9397 8.84607 32.319C8.2254 31.6983 7.9156 30.9531 7.91665 30.0833V9.50001C7.46804 9.50001 7.09174 9.34801 6.78774 9.04401C6.48374 8.74001 6.33226 8.36423 6.33332 7.91667C6.33332 7.46806 6.48532 7.09176 6.78932 6.78776C7.09332 6.48376 7.4691 6.33228 7.91665 6.33334H14.25C14.25 5.88473 14.402 5.50842 14.706 5.20442C15.01 4.90042 15.3858 4.74895 15.8333 4.75001H22.1667C22.6153 4.75001 22.9916 4.90201 23.2956 5.20601C23.5996 5.51001 23.751 5.88578 23.75 6.33334H30.0833C30.5319 6.33334 30.9082 6.48534 31.2122 6.78934C31.5162 7.09334 31.6677 7.46912 31.6667 7.91667C31.6667 8.36528 31.5147 8.74159 31.2107 9.04559C30.9067 9.34959 30.5309 9.50106 30.0833 9.50001V30.0833C30.0833 30.9542 29.773 31.6999 29.1523 32.3206C28.5317 32.9413 27.7864 33.2511 26.9167 33.25H11.0833ZM11.0833 9.50001V30.0833H26.9167V9.50001H11.0833ZM14.25 25.3333C14.25 25.782 14.402 26.1583 14.706 26.4623C15.01 26.7663 15.3858 26.9177 15.8333 26.9167C16.2819 26.9167 16.6582 26.7647 16.9622 26.4607C17.2662 26.1567 17.4177 25.7809 17.4167 25.3333V14.25C17.4167 13.8014 17.2647 13.4251 16.9607 13.1211C16.6567 12.8171 16.2809 12.6656 15.8333 12.6667C15.3847 12.6667 15.0084 12.8187 14.7044 13.1227C14.4004 13.4267 14.2489 13.8025 14.25 14.25V25.3333ZM20.5833 25.3333C20.5833 25.782 20.7353 26.1583 21.0393 26.4623C21.3433 26.7663 21.7191 26.9177 22.1667 26.9167C22.6153 26.9167 22.9916 26.7647 23.2956 26.4607C23.5996 26.1567 23.751 25.7809 23.75 25.3333V14.25C23.75 13.8014 23.598 13.4251 23.294 13.1211C22.99 12.8171 22.6142 12.6656 22.1667 12.6667C21.718 12.6667 21.3417 12.8187 21.0377 13.1227C20.7337 13.4267 20.5823 13.8025 20.5833 14.25V25.3333Z" fill="#FF0000"/>
</svg>
