<svg width="57" height="57" viewBox="0 0 57 57" fill="none" xmlns="http://www.w3.org/2000/svg">
<path d="M28.4859 4.75C23.7885 4.75 19.1967 6.14291 15.2911 8.7526C11.3854 11.3623 8.34129 15.0715 6.54371 19.4113C4.74613 23.751 4.2758 28.5263 5.1922 33.1334C6.1086 37.7404 8.37057 41.9723 11.6921 45.2938C15.0136 48.6153 19.2454 50.8773 23.8525 51.7937C28.4595 52.7101 33.2348 52.2397 37.5746 50.4421C41.9143 48.6446 45.6236 45.6005 48.2333 41.6948C50.8429 37.7891 52.2358 33.1973 52.2358 28.5C52.2358 25.3811 51.6215 22.2928 50.428 19.4113C49.2344 16.5298 47.485 13.9116 45.2796 11.7062C43.0742 9.50082 40.4561 7.75141 37.5746 6.55786C34.6931 5.36431 31.6047 4.75 28.4859 4.75ZM36.0383 40.736C35.9497 40.9579 35.8146 41.1582 35.6422 41.3236C35.4697 41.4889 35.2638 41.6154 35.0384 41.6946C34.813 41.7738 34.5732 41.8038 34.3352 41.7827C34.0972 41.7615 33.8665 41.6897 33.6586 41.572L27.2105 36.5608L23.0732 40.3798C22.9772 40.4507 22.8649 40.4963 22.7466 40.5125C22.6283 40.5287 22.5079 40.5149 22.3964 40.4724L23.1896 33.3735L23.2134 33.3949L23.23 33.2547C23.23 33.2547 34.8319 22.6908 35.3045 22.2419C35.7842 21.793 35.6251 21.6956 35.6251 21.6956C35.6536 21.1494 34.7677 21.6956 34.7677 21.6956L19.3944 31.5851L12.9937 29.4049C12.9937 29.4049 12.0105 29.0534 11.9179 28.2768C11.8205 27.5072 13.0246 27.0893 13.0246 27.0893L38.4775 16.9765C38.4775 16.9765 40.5699 16.0455 40.5699 17.5893L36.0383 40.736Z" fill="#51A230"/>
</svg>
