<svg width="39" height="44" viewBox="0 0 39 44" fill="none" xmlns="http://www.w3.org/2000/svg">
<path d="M30.9413 6.89333C29.2411 4.98574 28.3041 2.53595 28.3048 0H20.6193V30.3111C20.56 31.9514 19.8554 33.5051 18.6538 34.645C17.4522 35.7848 15.8474 36.422 14.1773 36.4222C10.6454 36.4222 7.71046 33.5867 7.71046 30.0667C7.71046 25.8622 11.8393 22.7089 16.0925 24.0044V16.28C7.51148 15.1556 0 21.7067 0 30.0667C0 38.2067 6.8648 44 14.1524 44C21.9624 44 28.3048 37.7667 28.3048 30.0667V14.6911C31.4214 16.8907 35.1631 18.0709 39 18.0644V10.5111C39 10.5111 34.324 10.7311 30.9413 6.89333Z" fill="#51A230"/>
</svg>
