<svg width="56" height="56" viewBox="0 0 56 56" fill="none" xmlns="http://www.w3.org/2000/svg">
<path d="M35.1707 4.66699H20.8533C7.77733 4.66699 4.66699 7.77733 4.66699 20.83V35.1473C4.66699 48.221 7.75399 51.3337 20.83 51.3337H35.1473C48.221 51.3337 51.3337 48.2467 51.3337 35.1707V20.8533C51.3337 7.77733 48.2467 4.66699 35.1707 4.66699ZM42.341 37.9637H38.9367C37.6487 37.9637 37.2613 36.9207 34.9513 34.6107C32.9353 32.667 32.0837 32.4243 31.5727 32.4243C30.868 32.4243 30.6743 32.618 30.6743 33.591V36.6523C30.6743 37.4807 30.406 37.966 28.243 37.966C26.1438 37.8249 24.1081 37.1872 22.3037 36.1052C20.4993 35.0233 18.9777 33.5282 17.8643 31.743C15.2211 28.453 13.3819 24.5916 12.493 20.466C12.493 19.955 12.6867 19.493 13.6597 19.493H17.0617C17.9367 19.493 18.2517 19.8827 18.5947 20.781C20.2467 25.6437 23.0653 29.8717 24.2087 29.8717C24.6473 29.8717 24.8387 29.678 24.8387 28.5837V23.5763C24.694 21.292 23.4807 21.0983 23.4807 20.2723C23.4962 20.0545 23.5961 19.8512 23.759 19.7057C23.9219 19.5603 24.1351 19.4839 24.3533 19.493H29.7013C30.4317 19.493 30.6743 19.857 30.6743 20.732V27.4893C30.6743 28.2197 30.9893 28.4623 31.2087 28.4623C31.6473 28.4623 31.9857 28.2197 32.7883 27.417C34.5123 25.3145 35.9209 22.9722 36.9697 20.4637C37.0769 20.1623 37.2797 19.9044 37.5472 19.7291C37.8147 19.5538 38.1323 19.4709 38.4513 19.493H41.8557C42.8753 19.493 43.0923 20.004 42.8753 20.732C41.6375 23.505 40.1058 26.1373 38.3067 28.5837C37.9403 29.1437 37.7933 29.4353 38.3067 30.091C38.645 30.602 39.8373 31.5983 40.64 32.5457C41.8064 33.7092 42.7751 35.0553 43.5077 36.531C43.7993 37.4783 43.3117 37.9637 42.341 37.9637Z" fill="#51A230"/>
</svg>
