<svg width="100" height="100" viewBox="0 0 100 100" fill="none" xmlns="http://www.w3.org/2000/svg">
<path d="M64.2344 47.3985L45.4844 34.8985C45.0136 34.5844 44.4665 34.404 43.9012 34.3766C43.336 34.3493 42.7739 34.4759 42.275 34.743C41.7761 35.0101 41.3591 35.4076 41.0685 35.8932C40.7779 36.3788 40.6246 36.9341 40.625 37.5V62.5C40.6246 63.0659 40.7779 63.6213 41.0685 64.1069C41.3591 64.5924 41.7761 64.99 42.275 65.2571C42.7739 65.5242 43.336 65.6508 43.9012 65.6234C44.4665 65.596 45.0136 65.4157 45.4844 65.1016L64.2344 52.6016C64.663 52.3163 65.0145 51.9296 65.2577 51.4757C65.5008 51.0218 65.628 50.5149 65.628 50C65.628 49.4851 65.5008 48.9782 65.2577 48.5243C65.0145 48.0705 64.663 47.6837 64.2344 47.3985ZM46.875 56.6602V43.3594L56.8672 50L46.875 56.6602ZM91.5352 27.1563C91.1671 25.7162 90.4619 24.3843 89.4778 23.2705C88.4936 22.1566 87.2587 21.2927 85.875 20.75C72.4844 15.5781 51.1719 15.625 50 15.625C48.8281 15.625 27.5156 15.5781 14.125 20.75C12.7413 21.2927 11.5064 22.1566 10.5222 23.2705C9.53811 24.3843 8.83291 25.7162 8.46484 27.1563C7.45313 31.0547 6.25 38.1797 6.25 50C6.25 61.8203 7.45313 68.9453 8.46484 72.8438C8.83236 74.2845 9.53731 75.6172 10.5215 76.7318C11.5056 77.8464 12.7408 78.7109 14.125 79.2539C26.9531 84.2031 47.0312 84.375 49.7422 84.375H50.2578C52.9688 84.375 73.0586 84.2031 85.875 79.2539C87.2592 78.7109 88.4944 77.8464 89.4785 76.7318C90.4627 75.6172 91.1676 74.2845 91.5352 72.8438C92.5469 68.9375 93.75 61.8203 93.75 50C93.75 38.1797 92.5469 31.0547 91.5352 27.1563ZM85.4844 71.2969C85.3653 71.7761 85.1344 72.2204 84.8105 72.5931C84.4866 72.9659 84.079 73.2566 83.6211 73.4414C71.2578 78.2149 50.2305 78.1289 50.0273 78.1289H50C49.7891 78.1289 28.7773 78.207 16.4062 73.4414C15.9483 73.2566 15.5407 72.9659 15.2168 72.5931C14.8929 72.2204 14.662 71.7761 14.543 71.2969C13.5938 67.7305 12.5 61.1602 12.5 50C12.5 38.8399 13.5938 32.2695 14.5156 28.7227C14.6325 28.2406 14.8624 27.7932 15.1864 27.4176C15.5104 27.0419 15.9192 26.7488 16.3789 26.5625C28.3008 21.957 48.2773 21.875 49.9141 21.875H50.0195C50.2305 21.875 71.2617 21.8047 83.6133 26.5625C84.0712 26.7473 84.4788 27.038 84.8027 27.4108C85.1266 27.7836 85.3575 28.2278 85.4766 28.707C86.4062 32.2695 87.5 38.8399 87.5 50C87.5 61.1602 86.4062 67.7305 85.4844 71.2774V71.2969Z" fill="#FF0000"/>
</svg>
