<svg width="70" height="70" viewBox="0 0 70 70" fill="none" xmlns="http://www.w3.org/2000/svg">
<path d="M35.7113 11.667C37.2688 11.6757 41.1655 11.7137 45.3072 11.8799L46.7772 11.9441C50.9451 12.1395 55.1101 12.4778 57.178 13.0524C59.9343 13.8282 62.0984 16.0857 62.8305 18.9499C63.9972 23.4999 64.143 32.3724 64.1605 34.522L64.1634 34.9653V35.4728C64.143 37.6224 63.9972 46.4978 62.8305 51.0449C62.0897 53.9178 59.9226 56.1782 57.178 56.9424C55.1101 57.517 50.9451 57.8553 46.7772 58.0507L45.3072 58.1178C41.1655 58.2812 37.2688 58.322 35.7113 58.3278L35.0259 58.3307H34.2822C30.9863 58.3103 17.2022 58.1616 12.8155 56.9424C10.0622 56.1666 7.89509 53.9091 7.16301 51.0449C5.99634 46.4949 5.85051 37.6224 5.83301 35.4728V34.522C5.85051 32.3724 5.99634 23.497 7.16301 18.9499C7.90384 16.077 10.0709 13.8166 12.8184 13.0553C17.2022 11.8332 30.9893 11.6845 34.2851 11.667H35.7113ZM29.1634 24.792V45.2087L46.6634 35.0003L29.1634 24.792Z" fill="#51A230"/>
</svg>
